<?xml version="1.0" standalone="no"?>
<!DOCTYPE svg PUBLIC "-//W3C//DTD SVG 1.1//EN" "http://www.w3.org/Graphics/SVG/1.1/DTD/svg11.dtd" >
<svg>
<metadata>
Created by FontForge 20090622 at Tue Aug 15 16:46:20 2017
 By deploy user
Copyright &#194;&#169; 2012 by Librerias Gandhi S.A. de C.V. All rights reserved.
</metadata>
<defs>
<font id="GandhiSerif-Bold" horiz-adv-x="550" >
  <font-face 
    font-family="Gandhi Serif"
    font-weight="700"
    font-stretch="normal"
    units-per-em="1000"
    panose-1="2 0 0 0 0 0 0 0 0 0"
    ascent="765"
    descent="-235"
    x-height="474"
    cap-height="670"
    bbox="-157 -236 3565 906"
    underline-thickness="50"
    underline-position="-50"
    unicode-range="U+0020-U+FB02"
  />
<missing-glyph 
d="M80 -235v1000h390v-1000h-390z" />
    <glyph glyph-name=".notdef" 
d="M80 -235v1000h390v-1000h-390z" />
    <glyph glyph-name=".null" horiz-adv-x="0" 
 />
    <glyph glyph-name="nonmarkingreturn" horiz-adv-x="333" 
 />
    <glyph glyph-name="space" unicode=" " horiz-adv-x="250" 
 />
    <glyph glyph-name="exclam" unicode="!" horiz-adv-x="342" 
d="M190 201h-38q-57 356 -57 417q0 32 20.5 49t54.5 17t55.5 -17t21.5 -49q0 -61 -57 -417zM170 -14q-32 0 -53.5 21t-21.5 53q0 30 22 51.5t53 21.5q32 0 53.5 -21t21.5 -53q0 -30 -22 -51.5t-53 -21.5z" />
    <glyph glyph-name="quotedbl" unicode="&#x22;" horiz-adv-x="412" 
d="M143 422h-34l-44 224h122zM303 422h-34l-44 224h122z" />
    <glyph glyph-name="numbersign" unicode="#" 
d="M45 367v64h125l26 155h63l-26 -155h128l26 155h63l-26 -155h101v-64h-112l-20 -123h119v-64h-130l-25 -155h-63l25 155h-128l-25 -155h-63l25 155h-96v64h107l20 123h-114zM222 367l-20 -123h128l20 123h-128z" />
    <glyph glyph-name="dollar" unicode="$" 
d="M255 -114v100q-101 3 -181 44l-9 163h39q26 -162 151 -171v249q-91 45 -122 72q-60 52 -60 131q0 77 52.5 126.5t133.5 58.5v106h53v-106q73 -4 146 -30l-3 -149h-35q-24 119 -108 140v-229q37 -19 53 -28t46.5 -30t44 -39.5t25.5 -48t12 -64.5q0 -77 -50 -129t-135 -63
v-103h-53zM393 123q0 70 -85 120v-217q37 9 61 34t24 63zM178 532q0 -65 81 -113v203q-35 -6 -58 -30t-23 -60z" />
    <glyph glyph-name="percent" unicode="%" horiz-adv-x="783" 
d="M185 -14l-50 35l464 639l50 -35zM192 343q-71 0 -114 45t-43 112q0 74 45 117t120 43q71 0 114 -45t43 -112q0 -74 -45 -117t-120 -43zM195 629q-76 0 -76 -128q0 -127 78 -127q76 0 76 128q0 127 -78 127zM583 -14q-71 0 -114 45t-43 112q0 74 45 117t120 43
q71 0 114 -45t43 -112q0 -74 -45 -117t-120 -43zM586 272q-76 0 -76 -128q0 -127 78 -127q76 0 76 128q0 127 -78 127z" />
    <glyph glyph-name="ampersand" unicode="&#x26;" horiz-adv-x="754" 
d="M648 311l-135 -158l9 -12q44 -60 73.5 -82t68.5 -22h45v-32q-53 -19 -150 -19q-39 0 -66.5 16t-58.5 54q-75 -70 -193 -70q-89 0 -147.5 45.5t-58.5 132.5q0 137 173 201q-21 28 -33.5 46.5t-24 48t-11.5 56.5q0 66 50 105t139 39q81 0 125.5 -33.5t44.5 -94.5
q0 -112 -142 -166l131 -178l99 124l-70 21v28h213v-28zM287 42q63 0 118 53l-179 244q-62 -55 -62 -155q0 -69 31.5 -105.5t91.5 -36.5zM261 540q0 -44 50 -113l28 -39q51 66 51 145q0 41 -16 67t-46 26t-48.5 -24t-18.5 -62z" />
    <glyph glyph-name="quotesingle" unicode="'" horiz-adv-x="252" 
d="M143 422h-34l-44 224h122z" />
    <glyph glyph-name="parenleft" unicode="(" horiz-adv-x="454" 
d="M202 317q0 -134 48 -252t149 -189l-13 -28q-135 51 -228 172t-93 297t93 297t228 172l13 -28q-101 -71 -149 -189t-48 -252z" />
    <glyph glyph-name="parenright" unicode=")" horiz-adv-x="454" 
d="M252 317q0 134 -48 252t-149 189l13 28q135 -51 228 -172t93 -297t-93 -297t-228 -172l-13 28q101 71 149 189t48 252z" />
    <glyph glyph-name="asterisk" unicode="*" horiz-adv-x="446" 
d="M237 463l47 -159h-123l47 157l-113 -120l-60 108l162 37l-162 39l60 109l113 -125l-47 161h123l-47 -162l114 126l60 -109l-160 -39l160 -37l-60 -108z" />
    <glyph glyph-name="plus" unicode="+" 
d="M500 271h-193v-190h-66v190h-191v64h191v191h66v-191h193v-64z" />
    <glyph glyph-name="comma" unicode="," horiz-adv-x="250" 
d="M125 129q35 0 54.5 -24t19.5 -63q0 -59 -37.5 -112.5t-87.5 -81.5l-21 27q28 19 52 50.5t29 60.5h-11q-32 1 -52 20t-20 50q0 35 21 54t53 19z" />
    <glyph glyph-name="hyphen" unicode="-" horiz-adv-x="350" 
d="M315 215h-280v73h280v-73z" />
    <glyph glyph-name="period" unicode="." horiz-adv-x="250" 
d="M125 -14q-32 0 -53.5 21t-21.5 53q0 30 22 51.5t53 21.5q32 0 53.5 -21t21.5 -53q0 -30 -22 -51.5t-53 -21.5z" />
    <glyph glyph-name="slash" unicode="/" horiz-adv-x="536" 
d="M521 775l-438 -1010h-68l438 1010h68z" />
    <glyph glyph-name="zero" unicode="0" 
d="M509 323q0 -144 -63.5 -240.5t-171.5 -96.5q-112 0 -173 96.5t-61 240.5q0 145 63 241t171 96q107 0 171 -92t64 -245zM373 323q0 160 -24.5 229t-73.5 69q-99 0 -99 -298q0 -146 22.5 -222t76.5 -76q98 0 98 298z" />
    <glyph glyph-name="one" unicode="1" 
d="M370 54l130 -25v-29h-399v29l132 25v504l-142 -10v33l247 71h32v-598z" />
    <glyph glyph-name="two" unicode="2" 
d="M234 629q-87 0 -87 -160q-21 0 -34 1t-33 5t-30 15.5t-10 29.5q0 64 61.5 102t148.5 38q96 0 152 -46.5t56 -129.5q0 -162 -271 -359h246l27 84h33l-9 -209h-464v30q149 120 226 225.5t77 214.5q0 159 -89 159z" />
    <glyph glyph-name="three" unicode="3" 
d="M310 365q177 -40 177 -185q0 -83 -66 -138.5t-166 -55.5q-95 0 -157 32t-62 80q0 41 29 60.5t67 20.5q0 -68 33.5 -111.5t91.5 -43.5q50 0 80 32.5t30 86.5q0 151 -222 160v37q94 15 138.5 60t44.5 103q0 42 -25 66.5t-65 24.5q-71 0 -129 -75l-31 24q34 54 88 85.5
t120 31.5q72 0 123 -36.5t51 -103.5q0 -61 -42.5 -100.5t-107.5 -54.5z" />
    <glyph glyph-name="four" unicode="4" 
d="M514 188h-88v-139l81 -20v-29h-311v29l95 20v139h-259v32l351 432h43v-395h88v-69zM291 476l-175 -219h175v219z" />
    <glyph glyph-name="five" unicode="5" 
d="M495 198q0 -98 -67 -155t-165 -57q-91 0 -149.5 33t-58.5 79q0 42 31.5 61.5t64.5 19.5q0 -66 28.5 -110.5t89.5 -44.5q49 0 79.5 32t30.5 86q0 41 -18.5 71.5t-51 47t-70 24t-81.5 7.5h-69l32 351h284l20 55h31l-7 -181h-296l-9 -115h56q79 0 144 -21t108 -68.5
t43 -114.5z" />
    <glyph glyph-name="six" unicode="6" 
d="M228 351l-7 34q50 27 104 27q88 0 133 -55.5t45 -143.5q0 -101 -66 -164t-165 -63q-98 0 -159.5 63.5t-61.5 189.5q0 170 106 281.5t277 154.5l10 -36q-258 -97 -258 -386q0 -228 100 -228q35 0 56.5 28.5t28 62t6.5 71.5q0 25 -3.5 49.5t-12.5 55t-30 49.5t-52 19
q-24 0 -51 -9z" />
    <glyph glyph-name="seven" unicode="7" 
d="M444 518h-330l-24 -78h-34l17 238h32l11 -35h403v-35q-11 -38 -70 -190l-112 -285l-53 -133h-177z" />
    <glyph glyph-name="eight" unicode="8" 
d="M49 152q0 57 36 99t104 62q-55 35 -86.5 76.5t-31.5 100.5q0 74 59 122t147 48q99 0 155.5 -40t56.5 -112q0 -103 -129 -148q68 -40 105.5 -82.5t37.5 -106.5q0 -78 -62 -131.5t-163 -53.5q-107 0 -168 44.5t-61 121.5zM388 129q0 13 -2.5 25t-9 23t-12.5 19.5t-18.5 19
l-19.5 16.5t-24 16l-24.5 14.5l-27 15.5l-26.5 15q-51 -51 -51 -136q0 -59 28 -97.5t83 -38.5q44 0 74 29t30 79zM178 535q0 -26 10.5 -47.5t34 -41.5t42.5 -32t54 -32q53 47 53 131q0 46 -24.5 78.5t-74.5 32.5q-42 0 -68.5 -24t-26.5 -65z" />
    <glyph glyph-name="nine" unicode="9" 
d="M323 295l7 -34q-50 -27 -104 -27q-88 0 -133 55.5t-45 143.5q0 101 66 164t165 63q98 0 159.5 -63.5t61.5 -189.5q0 -170 -106 -281.5t-277 -154.5l-10 36q258 97 258 386q0 228 -100 228q-35 0 -56.5 -28.5t-28 -62t-6.5 -71.5q0 -25 3.5 -49.5t12.5 -55t30 -49.5
t52 -19q24 0 51 9z" />
    <glyph glyph-name="colon" unicode=":" horiz-adv-x="250" 
d="M125 -14q-32 0 -53.5 21t-21.5 53q0 30 22 51.5t53 21.5q32 0 53.5 -21t21.5 -53q0 -30 -22 -51.5t-53 -21.5zM125 271q-32 0 -53.5 21t-21.5 53q0 30 22 51.5t53 21.5q32 0 53.5 -21t21.5 -53q0 -30 -22 -51.5t-53 -21.5z" />
    <glyph glyph-name="semicolon" unicode=";" horiz-adv-x="250" 
d="M125 271q-32 0 -53.5 21t-21.5 53q0 30 22 51.5t53 21.5q32 0 53.5 -21t21.5 -53q0 -30 -22 -51.5t-53 -21.5zM125 129q35 0 54.5 -24t19.5 -63q0 -59 -37.5 -112.5t-87.5 -81.5l-21 27q28 19 52 50.5t29 60.5h-11q-32 1 -52 20t-20 50q0 35 21 54t53 19z" />
    <glyph glyph-name="less" unicode="&#x3c;" 
d="M73 280v50l367 195l29 -60l-304 -160l304 -160l-30 -60z" />
    <glyph glyph-name="equal" unicode="=" 
d="M500 369h-450v64h450v-64zM500 175h-450v64h450v-64z" />
    <glyph glyph-name="greater" unicode="&#x3e;" 
d="M477 330v-50l-366 -195l-30 60l304 160l-304 160l29 60z" />
    <glyph glyph-name="question" unicode="?" horiz-adv-x="412" 
d="M35 572q0 45 48.5 78.5t121.5 33.5q76 0 124 -37t48 -105q0 -42 -19.5 -79t-47 -62.5t-55 -47t-47 -43t-19.5 -41.5q0 -15 12 -24t29 -9q26 0 56 16l10 -30q-15 -10 -44 -18.5t-54 -8.5q-53 0 -84.5 25.5t-31.5 70.5q0 32 20 63t49 56l57.5 50t48.5 55t20 60q0 37 -18 58
t-50 21q-24 0 -39.5 -10.5t-23 -31.5t-10.5 -41.5t-3 -49.5h-29q-34 0 -51.5 14t-17.5 37zM194 -14q-31 0 -52.5 21t-21.5 53q0 30 22 51.5t53 21.5q32 0 53 -21t21 -53q0 -30 -22 -51.5t-53 -21.5z" />
    <glyph glyph-name="at" unicode="@" horiz-adv-x="953" 
d="M438 47q25 0 50 15.5t41 40.5v114q-143 -33 -143 -114q0 -27 14 -41.5t38 -14.5zM656 351v-266q0 -31 31 -31q67 0 109 71t42 167q0 152 -94.5 238t-244.5 86q-174 0 -276.5 -111.5t-102.5 -283.5q0 -190 99 -289.5t288 -99.5q163 0 292 91l30 -47q-64 -44 -151 -72
t-172 -28q-226 1 -338.5 117t-112.5 328q0 198 118.5 323.5t325.5 125.5q77 0 146.5 -22.5t127 -67t91.5 -119t34 -170.5q0 -136 -75.5 -220.5t-198.5 -84.5q-39 0 -67 18.5t-28 55.5q-64 -74 -159 -74q-115 0 -115 92q0 133 274 169v111q0 53 -13 75.5t-44 22.5
q-40 0 -62 -34.5t-24 -97.5h-37q-81 0 -81 45q0 38 38 66t88.5 40.5t102.5 12.5q159 0 159 -137z" />
    <glyph glyph-name="A" unicode="A" horiz-adv-x="754" 
d="M498 53l-69 181h-198l-72 -183l78 -22v-29h-212v29l80 23l260 632h33l247 -633l79 -22v-29h-304v29zM333 490l-84 -211h163z" />
    <glyph glyph-name="B" unicode="B" horiz-adv-x="651" 
d="M40 0v29l79 22v568l-79 22v29h293q50 0 87.5 -5.5t74 -21t56 -48t19.5 -80.5q0 -76 -48.5 -113t-135.5 -52q96 -3 158 -43.5t62 -120.5q0 -95 -71 -140.5t-196 -45.5h-299zM256 370h51q62 0 93 37t31 100q0 126 -111 126q-40 0 -64 -7v-256zM256 327v-282q21 -8 53 -8
q82 0 118 40.5t36 101.5q0 70 -40.5 109t-120.5 39h-46z" />
    <glyph glyph-name="C" unicode="C" horiz-adv-x="702" 
d="M642 193l-13 -160q-108 -47 -214 -47q-167 0 -263.5 84.5t-96.5 259.5q0 92 27.5 161.5t76.5 110.5t111 61.5t137 20.5q56 0 123 -14t103 -29l6 -160h-37q-48 167 -192 167q-102 0 -158.5 -84t-56.5 -222q0 -148 56 -233t170 -85q70 0 118 45t62 124h41z" />
    <glyph glyph-name="D" unicode="D" horiz-adv-x="780" 
d="M40 0v29l79 22v568l-79 22v29h326q176 0 267.5 -81t91.5 -237q0 -172 -97 -262t-274 -90h-314zM256 629v-587h84q118 0 181.5 77.5t63.5 223.5q0 286 -243 286h-86z" />
    <glyph glyph-name="E" unicode="E" horiz-adv-x="611" 
d="M40 0v29l79 22v568l-79 22v29h500v-179h-28l-56 137h-200v-256h115l35 99h26v-240h-26l-35 99h-115v-288h208l64 159h28l-9 -201h-507z" />
    <glyph glyph-name="F" unicode="F" horiz-adv-x="582" 
d="M256 51l83 -23v-28h-299v29l79 22v568l-79 22v29h502v-179h-28l-55 137h-203v-256h110l35 99h26v-240h-26l-36 99h-109v-279z" />
    <glyph glyph-name="G" unicode="G" horiz-adv-x="769" 
d="M522 45v207l-81 22v29h293v-29l-77 -22v-211q-37 -21 -107.5 -38t-124.5 -17q-168 0 -269 85.5t-101 258.5q0 94 28 164.5t78.5 110.5t113 59.5t137.5 19.5q59 0 129 -14.5t106 -29.5l6 -159h-38q-49 167 -205 167q-106 0 -160.5 -85.5t-54.5 -222.5q0 -317 225 -317
q58 0 102 22z" />
    <glyph glyph-name="H" unicode="H" horiz-adv-x="822" 
d="M703 619v-568l79 -22v-29h-295v29l79 22v277h-310v-277l79 -22v-29h-295v29l79 22v568l-79 22v29h295v-29l-79 -22v-246h310v246l-79 22v29h295v-29z" />
    <glyph glyph-name="I" unicode="I" horiz-adv-x="375" 
d="M256 619v-568l79 -22v-29h-295v29l79 22v568l-79 22v29h295v-29z" />
    <glyph glyph-name="J" unicode="J" horiz-adv-x="384" 
d="M39 -95l-14 29q65 37 86.5 75t21.5 129v481l-79 22v29h295v-29l-79 -22v-436q0 -109 -53.5 -177t-177.5 -101z" />
    <glyph glyph-name="K" unicode="K" horiz-adv-x="733" 
d="M397 403l234 -336q26 -38 72 -38v-29q-65 -14 -127 -14q-36 0 -58 12.5t-42 41.5l-205 303l270 276l-78 22v29h231v-29l-79 -22zM256 619v-568l79 -22v-29h-295v29l79 22v568l-79 22v29h295v-29z" />
    <glyph glyph-name="L" unicode="L" horiz-adv-x="600" 
d="M256 619v-577h212l64 164h28l-9 -206h-511v29l79 22v568l-79 22v29h295v-29z" />
    <glyph glyph-name="M" unicode="M" horiz-adv-x="929" 
d="M810 52l79 -23v-29h-295v29l81 23v508l-226 -569h-42l-239 573v-513l79 -22v-29h-212v29l79 22v568l-79 22v29h232l202 -493l197 493h206v-29l-62 -22v-567z" />
    <glyph glyph-name="N" unicode="N" horiz-adv-x="751" 
d="M638 -9h-41l-429 575v-515l79 -22v-29h-212v29l79 22v568l-79 22v29h221l328 -441v390l-79 22v29h211v-29l-78 -22v-628z" />
    <glyph glyph-name="O" unicode="O" horiz-adv-x="784" 
d="M401 23q51 0 89 28t59 74.5t30.5 99t9.5 109.5q0 155 -52.5 234t-149.5 79q-94 0 -143 -84t-49 -226q0 -314 206 -314zM393 -14q-165 0 -251.5 92t-86.5 256q0 155 93 252.5t253 97.5q161 0 244.5 -96.5t83.5 -253.5q0 -151 -90.5 -249.5t-245.5 -98.5z" />
    <glyph glyph-name="P" unicode="P" horiz-adv-x="612" 
d="M119 51v568l-79 22v29h274q61 0 105.5 -7.5t82 -26t56.5 -53t19 -85.5q0 -98 -75.5 -149t-186.5 -51h-32v31q155 22 155 169q0 135 -123 135q-25 0 -59 -8v-575l79 -21v-29h-295v29z" />
    <glyph glyph-name="Q" unicode="Q" horiz-adv-x="784" 
d="M568 -234q-63 0 -131 69.5t-117 155.5q-130 19 -197.5 108.5t-67.5 234.5q0 155 93 252.5t253 97.5q161 0 244.5 -96.5t83.5 -253.5q0 -128 -66.5 -220.5t-183.5 -118.5q40 -68 100.5 -125.5t109.5 -57.5h21v-29q-62 -17 -142 -17zM401 23q51 0 89 28t59 74.5t30.5 99
t9.5 109.5q0 155 -52.5 234t-149.5 79q-94 0 -143 -84t-49 -226q0 -314 206 -314z" />
    <glyph glyph-name="R" unicode="R" horiz-adv-x="682" 
d="M119 51v568l-79 23v28h276q128 0 194.5 -35.5t66.5 -130.5q0 -75 -55.5 -123t-166.5 -57q50 -7 82.5 -27.5t59.5 -65.5l94 -159q13 -22 30.5 -31t50.5 -12v-29q-45 -14 -121 -14q-33 0 -55.5 14t-41.5 47l-124 217q-17 29 -29 39.5t-34 10.5h-11v-264l79 -21v-29h-295v29
zM256 625v-276h47q69 0 102.5 40t33.5 112q0 132 -122 132q-25 0 -61 -8z" />
    <glyph glyph-name="S" unicode="S" horiz-adv-x="529" 
d="M446 498h-36q-13 67 -49.5 108t-93.5 41q-41 0 -72 -26.5t-31 -69.5q0 -33 17.5 -59.5t46 -45t62.5 -36t68 -37t62.5 -43t46 -60t17.5 -82.5q0 -90 -63.5 -146t-167.5 -56q-102 0 -194 45l-9 169h39q29 -177 168 -177q52 0 89 27.5t37 77.5q0 49 -33.5 83.5t-81.5 57.5
l-95.5 48t-81 68.5t-33.5 105.5q0 88 62.5 140.5t155.5 52.5q79 0 173 -32z" />
    <glyph glyph-name="T" unicode="T" horiz-adv-x="669" 
d="M403 51l83 -22v-29h-303v29l83 22v577h-143l-55 -137h-28v179h589v-179h-28l-55 137h-143v-577z" />
    <glyph glyph-name="U" unicode="U" horiz-adv-x="747" 
d="M722 641l-79 -22v-375q0 -126 -71 -192t-183 -66q-41 0 -77.5 5.5t-74.5 21.5t-65.5 41t-45 67.5t-17.5 97.5v400l-79 22v29h295v-29l-79 -22v-391q0 -91 43.5 -139.5t121.5 -48.5q79 0 129 53t50 156v370l-79 22v29h211v-29z" />
    <glyph glyph-name="V" unicode="V" horiz-adv-x="749" 
d="M258 617l156 -430l173 432l-78 22v29h215v-29l-80 -23l-257 -627h-38l-240 628l-79 22v29h306v-29z" />
    <glyph glyph-name="W" unicode="W" horiz-adv-x="1133" 
d="M649 617l156 -418l163 420l-78 22v29h218v-29l-80 -23l-251 -627h-33l-182 480l-184 -480h-34l-235 628l-79 22v29h304v-29l-78 -24l145 -421l132 352l-27 71l-75 22v29h296v-29z" />
    <glyph glyph-name="X" unicode="X" horiz-adv-x="774" 
d="M642 619l-198 -250l217 -318l83 -22v-29h-321v29l87 22l-155 229l-176 -229l85 -22v-29h-234v29l84 23l215 267l-204 300l-72 22v29h301v-29l-76 -23l141 -211l163 212l-76 22v29h215v-29z" />
    <glyph glyph-name="Y" unicode="Y" horiz-adv-x="714" 
d="M293 288l-201 331l-72 22v29h301v-29l-76 -23l161 -268l150 269l-74 22v29h212v-29l-80 -23l-185 -329v-238l83 -22v-29h-303v29l84 22v237z" />
    <glyph glyph-name="Z" unicode="Z" horiz-adv-x="658" 
d="M608 206l-9 -206h-564v26l385 602h-268l-55 -137h-28v179h520v-26l-385 -602h312l64 164h28z" />
    <glyph glyph-name="bracketleft" unicode="[" horiz-adv-x="418" 
d="M231 -120h132v-37h-268v948h268v-36h-132v-875z" />
    <glyph glyph-name="backslash" unicode="\" horiz-adv-x="536" 
d="M453 -235l-438 1010h68l438 -1010h-68z" />
    <glyph glyph-name="bracketright" unicode="]" horiz-adv-x="418" 
d="M55 -120h132v875h-132v36h268v-948h-268v37z" />
    <glyph glyph-name="asciicircum" unicode="^" 
d="M250 660h50l195 -366l-63 -28l-157 300l-157 -300l-63 28z" />
    <glyph glyph-name="underscore" unicode="_" 
d="M555 -97v-73h-560v73h560z" />
    <glyph glyph-name="grave" unicode="`" horiz-adv-x="400" 
d="M290 576l-30 -18q-45 30 -97.5 79.5t-52.5 69.5q0 35 99 35q21 -71 81 -166z" />
    <glyph glyph-name="a" unicode="a" horiz-adv-x="520" 
d="M374 -14q-65 0 -65 60v14q-63 -74 -159 -74q-115 0 -115 92q0 67 71.5 109.5t202.5 59.5v111q0 53 -13 75.5t-45 22.5q-40 0 -61.5 -34.5t-23.5 -97.5h-37q-81 0 -81 45q0 38 38 66t88.5 40.5t101.5 12.5q160 0 160 -137v-281q0 -27 9 -35.5t32 -8.5h21l-1 -24
q-59 -16 -123 -16zM218 47q23 0 48 14.5t43 40.5v115q-143 -32 -143 -114q0 -27 14 -41.5t38 -14.5z" />
    <glyph glyph-name="b" unicode="b" horiz-adv-x="579" 
d="M73 649l-63 10v27l187 40v-315q25 32 66.5 54.5t83.5 22.5q91 0 139 -62.5t48 -159.5q0 -73 -21.5 -129t-58.5 -88t-79.5 -47.5t-90.5 -15.5q-72 0 -143 28l-39 -28h-29v663zM294 419q-52 0 -97 -49v-318q44 -35 100 -35q54 0 84.5 56.5t30.5 142.5q0 91 -30 147t-88 56z
" />
    <glyph glyph-name="c" unicode="c" horiz-adv-x="505" 
d="M45 204q0 125 70.5 204.5t188.5 79.5q63 0 111.5 -28.5t48.5 -71.5q0 -28 -23.5 -43.5t-84.5 -15.5q-1 61 -15.5 94.5t-54.5 33.5q-54 0 -86.5 -57.5t-32.5 -156.5q0 -91 39 -144t111 -53q62 0 136 56l17 -26q-94 -90 -211 -90q-96 0 -155 53t-59 165z" />
    <glyph glyph-name="d" unicode="d" horiz-adv-x="594" 
d="M286 55q52 0 96 50v311q-14 16 -41 28.5t-54 12.5q-59 0 -89.5 -53t-30.5 -147q0 -202 119 -202zM506 61l63 -10v-26l-187 -39v81q-24 -34 -63 -57.5t-84 -23.5q-96 0 -143 62.5t-47 161.5q0 72 21.5 127t58 87t80 48t90.5 16q44 0 87 -10v177l-67 9v28l191 36v-667z" />
    <glyph glyph-name="e" unicode="e" horiz-adv-x="527" 
d="M273 -14q-109 0 -168.5 57.5t-59.5 170.5q0 125 71 199.5t174 74.5q87 0 139.5 -47t52.5 -130q0 -26 -2 -38h-313v-11q0 -216 154 -216q73 0 142 52l17 -26q-93 -86 -207 -86zM285 456q-44 0 -75.5 -36.5t-40.5 -110.5h182q3 33 3 39q0 53 -15 80.5t-54 27.5z" />
    <glyph glyph-name="f" unicode="f" horiz-adv-x="353" 
d="M222 44l65 -20v-24h-252v24l64 20v385h-64v45h64v29q1 92 78 157.5t152 65.5q39 0 39 -39q0 -36 -29 -67q-52 34 -92 34q-39 0 -39 -50q0 -58 14 -130h91v-45h-91v-385z" />
    <glyph glyph-name="g" unicode="g" horiz-adv-x="542" 
d="M246 488q85 0 138 -35q37 5 37 40q0 24 -8 51h27q34 0 53 -15.5t19 -41.5q0 -27 -24 -42t-63 -15h-14q39 -42 39 -110q0 -77 -61.5 -119t-143.5 -42q-41 0 -70 8q-24 -30 -24 -59q0 -27 35 -27h128q32 0 57.5 -2.5t54 -11t47.5 -22.5t31.5 -39t12.5 -59q0 -78 -79.5 -130
t-202.5 -52q-107 0 -163.5 26t-56.5 73q0 39 28.5 67.5t74.5 41.5q-22 3 -37 8t-29 21t-14 42q0 40 30.5 74t77.5 57q-106 39 -106 148q0 80 61.5 122.5t144.5 42.5zM253 -203q59 0 114 27t55 77q0 37 -29.5 49.5t-88.5 12.5h-157q-27 -27 -27 -72q0 -94 133 -94zM245 459
q-35 0 -58 -35.5t-24 -95.5q0 -23 3.5 -44.5t11.5 -44t26 -36t43 -13.5q39 0 60 35t21 93q0 141 -83 141z" />
    <glyph glyph-name="h" unicode="h" horiz-adv-x="604" 
d="M276 0h-246v24l63 20v605l-63 10v27l187 40v-314q76 76 169 76q133 0 133 -152v-292l65 -20v-24h-252v24l64 20v279q0 96 -78 96q-52 0 -101 -47v-328l59 -20v-24z" />
    <glyph glyph-name="i" unicode="i" horiz-adv-x="302" 
d="M156 570q-32 0 -53.5 21t-21.5 53q0 30 22 51.5t53 21.5q32 0 53.5 -21t21.5 -53q0 -30 -22 -51.5t-53 -21.5zM282 0h-250v24l63 19v365l-63 10v27l187 43v-445l63 -19v-24z" />
    <glyph glyph-name="j" unicode="j" horiz-adv-x="298" 
d="M227 488v-493q0 -71 -39.5 -125.5t-92 -79.5t-105.5 -25q-40 0 -40 39q0 25 14 46.5t29 30.5q52 -58 83 -58q27 0 27 45v540l-63 10v27zM166 570q-32 0 -53.5 21t-21.5 53q0 30 22 51.5t53 21.5q32 0 53.5 -21t21.5 -53q0 -30 -22 -51.5t-53 -21.5z" />
    <glyph glyph-name="k" unicode="k" horiz-adv-x="598" 
d="M409 428l-66 20v26h201v-25l-75 -23l-130 -134l168 -219q16 -21 31.5 -31.5t44.5 -17.5v-22q-13 -6 -47 -11t-53 -5q-64 0 -89 34l-161 222zM276 0h-246v24l63 20v605l-63 10v27l187 40v-682l59 -20v-24z" />
    <glyph glyph-name="l" unicode="l" horiz-adv-x="310" 
d="M280 0h-250v24l63 19v606l-63 10v27l187 40v-683l63 -19v-24z" />
    <glyph glyph-name="m" unicode="m" horiz-adv-x="900" 
d="M517 44l65 -20v-24h-252v24l64 20v280q0 49 -17.5 72t-57.5 23q-58 0 -100 -47v-328l59 -20v-24h-246v24l63 20v364l-63 10v27l187 43v-78q74 78 164 78q89 0 125 -76q37 37 84.5 56.5t88.5 19.5q67 0 100.5 -39.5t33.5 -111.5v-293l65 -20v-24h-252v24l64 20v280
q0 50 -18 72.5t-61 22.5q-51 0 -96 -37v-338z" />
    <glyph glyph-name="n" unicode="n" horiz-adv-x="606" 
d="M219 488v-76q76 76 169 76q133 0 133 -152v-292l65 -20v-24h-252v24l64 20v279q0 96 -78 96q-52 0 -101 -47v-328l59 -20v-24h-246v24l63 20v364l-63 10v27z" />
    <glyph glyph-name="o" unicode="o" horiz-adv-x="570" 
d="M286 17q54 0 81.5 58.5t27.5 161.5q0 220 -111 220q-54 0 -81.5 -58.5t-27.5 -161.5q0 -220 111 -220zM284 -14q-107 0 -173 64t-66 172q0 123 65 194.5t176 71.5q107 0 173 -64t66 -172q0 -123 -64.5 -194.5t-176.5 -71.5z" />
    <glyph glyph-name="p" unicode="p" horiz-adv-x="589" 
d="M207 488v-77q25 32 66.5 54.5t83.5 22.5q91 0 139 -62.5t48 -159.5q0 -72 -21.5 -128t-58 -88t-80 -48t-90.5 -16q-38 0 -87 11v-184l63 -19v-24h-250v24l63 19v599l-63 10v26zM304 419q-52 0 -97 -49v-318q44 -35 100 -35q54 0 84.5 56.5t30.5 142.5q0 91 -30 147
t-88 56z" />
    <glyph glyph-name="q" unicode="q" horiz-adv-x="579" 
d="M569 -230h-250v24l63 19v253q-25 -34 -65 -57t-82 -23q-95 0 -142.5 63.5t-47.5 157.5q0 73 21.5 129.5t58.5 88.5t79.5 47.5t90.5 15.5q77 0 142 -29l40 29h29v-675l63 -19v-24zM287 55q49 0 95 49v313q-43 40 -100 40t-86 -55.5t-29 -144.5q0 -202 120 -202z" />
    <glyph glyph-name="r" unicode="r" horiz-adv-x="445" 
d="M289 0h-257v24l63 20v364l-63 10v27l187 43v-109q82 109 152 109q54 0 54 -51q0 -49 -31 -83q-46 28 -86 28q-49 0 -89 -45v-293l70 -20v-24z" />
    <glyph glyph-name="s" unicode="s" horiz-adv-x="442" 
d="M405 140q0 -76 -53.5 -115t-137.5 -39q-71 0 -127.5 25t-56.5 66q0 32 25 51t64 21q7 -131 111 -131q38 0 62.5 17t24.5 48q0 25 -19.5 45.5t-49 33t-63.5 28.5t-63.5 32.5t-49 46t-19.5 66.5q0 76 51 114.5t128 38.5q70 0 114.5 -28.5t44.5 -71.5q0 -58 -100 -58
q-1 27 -4 46.5t-10 39.5t-22 30.5t-38 10.5q-34 0 -54 -19t-20 -54q0 -30 27 -52.5t65.5 -38t77 -33t65.5 -48t27 -72.5z" />
    <glyph glyph-name="t" unicode="t" horiz-adv-x="367" 
d="M193 -14q-104 0 -104 111v332h-64v45h65l86 116h37v-116h114v-45h-114v-324q0 -35 10 -50t35 -15q31 0 73 24l10 -32q-72 -46 -148 -46z" />
    <glyph glyph-name="u" unicode="u" horiz-adv-x="586" 
d="M374 -14v70q-76 -70 -162 -70q-67 0 -100.5 39.5t-33.5 111.5v271l-63 10v27l187 43v-338q0 -95 78 -95q53 0 94 44v309l-63 10v27l187 43v-427l63 -10v-26z" />
    <glyph glyph-name="v" unicode="v" horiz-adv-x="556" 
d="M205 428l105 -277l122 276l-65 23v24h174v-24l-64 -24l-186 -426h-38l-179 427l-59 23v24h258v-24z" />
    <glyph glyph-name="w" unicode="w" horiz-adv-x="805" 
d="M460 474l112 -316l109 269l-65 23v24h174v-24l-65 -24l-177 -426h-39l-109 301l-137 -301h-38l-149 427l-61 23v24h259v-24l-69 -22l82 -267l137 313h36z" />
    <glyph glyph-name="x" unicode="x" horiz-adv-x="588" 
d="M295 450l-62 -20l96 -140l103 137l-58 23v24h174v-24l-66 -24l-130 -170l149 -214l67 -22v-20h-262v20l60 22l-108 157l-111 -154l64 -25v-20h-191v20l75 27l139 187l-132 192l-69 25v23h262v-24z" />
    <glyph glyph-name="y" unicode="y" horiz-adv-x="553" 
d="M271 450l-66 -22l113 -277l109 275l-65 24v24h176v-24l-64 -24l-205 -499q-16 -40 -29 -63.5t-35 -49.5t-53 -38t-72 -12q-22 0 -37 9.5t-15 29.5q0 35 35 67q45 -35 81 -35q26 0 49 32t66 134l-185 426l-59 23v24h256v-24z" />
    <glyph glyph-name="z" unicode="z" horiz-adv-x="503" 
d="M450 0h-415v28l265 408h-161l-50 -101h-28l5 139h383v-26l-269 -410h200l51 105h27z" />
    <glyph glyph-name="braceleft" unicode="{" horiz-adv-x="454" 
d="M45 302v30q59 11 81.5 40.5t22.5 83.5v177q0 52 13 85t40 48t54 20t69 5h74v-34h-43q-26 0 -41 -6t-22 -23.5t-8.5 -35t-1.5 -55.5v-136q0 -82 -38.5 -124t-125.5 -60q85 -19 124.5 -61.5t39.5 -122.5v-136q0 -38 1.5 -55.5t8.5 -35t22 -23.5t41 -6h43v-34h-74
q-42 0 -69 5t-54 20t-40 48t-13 85v177q0 54 -22.5 83.5t-81.5 40.5z" />
    <glyph glyph-name="bar" unicode="|" horiz-adv-x="300" 
d="M183 -235h-66v1010h66v-1010z" />
    <glyph glyph-name="braceright" unicode="}" horiz-adv-x="454" 
d="M409 332v-30q-59 -11 -81.5 -40.5t-22.5 -83.5v-177q0 -52 -13 -85t-40 -48t-54 -20t-69 -5h-74v34h43q26 0 41 6t22 23.5t8.5 35t1.5 55.5v136q0 80 39.5 122.5t124.5 61.5q-87 18 -125.5 60t-38.5 124v136q0 38 -1.5 55.5t-8.5 35t-22 23.5t-41 6h-43v34h74q42 0 69 -5
t54 -20t40 -48t13 -85v-177q0 -54 22.5 -83.5t81.5 -40.5z" />
    <glyph glyph-name="asciitilde" unicode="~" 
d="M444 369l56 -16q-14 -51 -41.5 -84.5t-71.5 -33.5q-41 0 -120.5 30t-98.5 30q-43 0 -62 -66l-56 16q14 51 41.5 84.5t71.5 33.5q41 0 120 -30t99 -30q43 0 62 66z" />
    <glyph glyph-name="uni00A0" unicode="&#xa0;" horiz-adv-x="250" 
 />
    <glyph glyph-name="exclamdown" unicode="&#xa1;" horiz-adv-x="302" 
d="M132 273h38q57 -356 57 -417q0 -32 -20.5 -49t-54.5 -17t-55.5 17t-21.5 49q0 61 57 417zM152 488q32 0 53.5 -21t21.5 -53q0 -30 -22 -51.5t-53 -21.5q-32 0 -53.5 21t-21.5 53q0 30 22 51.5t53 21.5z" />
    <glyph glyph-name="cent" unicode="&#xa2;" 
d="M264 -114v101q-93 4 -154 58t-61 157q0 112 59 189t156 93v109h53v-105q79 -1 128.5 -31t49.5 -69q0 -28 -23.5 -43.5t-84.5 -15.5q-5 113 -70 126v-408q7 -1 21 -1q71 0 146 57l17 -26q-79 -75 -184 -88v-103h-53zM171 241q0 -143 93 -182v391q-43 -16 -68 -71.5
t-25 -137.5z" />
    <glyph glyph-name="sterling" unicode="&#xa3;" 
d="M64 301v48h75q-25 63 -25 108q0 104 62.5 153.5t160.5 49.5q35 0 69.5 -9t63 -34t28.5 -62q0 -60 -102 -61q-2 58 -20 94t-53 36q-38 0 -60 -27.5t-22 -69.5q0 -28 7 -57t20 -65.5t18 -55.5h140v-48h-130q2 -18 2 -28q0 -78 -112 -148h256l27 84h33l-9 -209h-445v30
q38 33 61.5 57.5t44.5 59.5t21 66q0 36 -18 88h-93z" />
    <glyph glyph-name="currency" unicode="&#xa4;" 
d="M274 124q-61 0 -105 30l-71 -71l-45 46l70 71q-28 44 -28 100q0 59 28 104l-70 71l45 46l70 -71q46 30 109 30q60 0 104 -30l71 71l45 -46l-71 -71q29 -44 29 -99q0 -61 -29 -105l71 -71l-45 -46l-71 71q-46 -30 -107 -30zM277 160q42 0 64.5 32.5t22.5 111.5
q0 140 -90 140q-88 0 -88 -140q0 -76 22 -110t69 -34z" />
    <glyph glyph-name="yen" unicode="&#xa5;" 
d="M94 282v48h92l-141 265l-62 22v29h291v-29l-76 -23l127 -239l119 240l-74 22v29h202v-29l-70 -23l-136 -264h90v-48h-111v-57h111v-48h-111v-126l78 -22v-29h-293v29l79 22v126h-115v48h115v57h-115z" />
    <glyph glyph-name="brokenbar" unicode="&#xa6;" horiz-adv-x="300" 
d="M183 405h-66v370h66v-370zM183 -235h-66v370h66v-370z" />
    <glyph glyph-name="section" unicode="&#xa7;" horiz-adv-x="535" 
d="M55 275q0 104 126 140q-79 53 -79 117q0 73 52 112.5t126 39.5q77 0 124.5 -25.5t47.5 -71.5q0 -61 -101 -61q0 26 -2.5 45.5t-10.5 39.5t-25 31t-43 11q-33 0 -54.5 -15.5t-21.5 -46.5q0 -32 29.5 -58.5t71.5 -46.5l84 -42t71.5 -56t29.5 -76q0 -104 -127 -140
q80 -53 80 -117q0 -73 -52 -112.5t-126 -39.5q-77 0 -124.5 25.5t-47.5 71.5q0 61 101 61q0 -26 2.5 -45.5t10.5 -39.5t25 -31t43 -11q33 0 54.5 15.5t21.5 46.5q0 32 -29.5 58.5t-71.5 46.5l-84 42t-71.5 56t-29.5 76zM383 266q0 15 -8.5 28t-28 26.5t-35.5 22.5t-46 24.5
t-46 24.5q-67 -18 -67 -71q0 -15 8.5 -28t28 -27t35.5 -23l46.5 -25l45.5 -24q67 20 67 72z" />
    <glyph glyph-name="dieresis" unicode="&#xa8;" horiz-adv-x="400" 
d="M92 716q29 0 50.5 -21t21.5 -49q0 -30 -21.5 -50.5t-50.5 -20.5q-30 0 -50 20.5t-20 50.5q0 28 20.5 49t49.5 21zM305 716q29 0 50.5 -21t21.5 -49q0 -30 -21.5 -50.5t-50.5 -20.5t-49.5 20.5t-20.5 50.5q0 28 20.5 49t49.5 21z" />
    <glyph glyph-name="copyright" unicode="&#xa9;" horiz-adv-x="800" 
d="M548 267l-7 -102q-67 -26 -127 -26q-89 0 -148 49.5t-59 140.5q0 101 58.5 152t141.5 51q65 0 137 -24l3 -103h-33q-28 93 -105 93q-52 0 -78.5 -50.5t-26.5 -113.5q0 -68 27.5 -113.5t85.5 -45.5q79 0 95 92h36zM50 335q0 147 98 248t252 101t252 -101t98 -248t-98 -248
t-252 -101t-252 101t-98 248zM706 335q0 130 -85 219t-221 89q-135 0 -220.5 -89.5t-85.5 -218.5q0 -130 85 -219t221 -89q135 0 220.5 89.5t85.5 218.5z" />
    <glyph glyph-name="ordfeminine" unicode="&#xaa;" horiz-adv-x="401" 
d="M171 380q19 0 37 13t28 31v66q-103 -26 -103 -74q0 -16 10.5 -26t27.5 -10zM371 368v-28q-42 -11 -89 -11q-46 0 -46 43v10q-17 -21 -50.5 -37t-68.5 -16q-33 0 -55 19t-22 55q0 91 196 118v67q0 37 -9 51t-33 14q-60 0 -61 -88q-84 0 -84 35q0 40 51 62t111 22
q115 0 115 -97v-188q0 -20 6.5 -25.5t22.5 -5.5h16z" />
    <glyph glyph-name="guillemotleft" unicode="&#xab;" horiz-adv-x="554" 
d="M176 246l118 -184l-26 -22l-223 206l223 206l26 -24zM376 246l118 -184l-26 -22l-223 206l223 206l26 -24z" />
    <glyph glyph-name="logicalnot" unicode="&#xac;" 
d="M495 425v-242h-66v178h-384v64h450z" />
    <glyph glyph-name="uni00AD" unicode="&#xad;" horiz-adv-x="350" 
d="M315 215h-280v73h280v-73z" />
    <glyph glyph-name="registered" unicode="&#xae;" horiz-adv-x="800" 
d="M270 190v297l-59 16v25h196q148 0 148 -94q0 -81 -119 -102q32 -2 48.5 -14t31.5 -37l49 -83q16 -23 42 -23v-26q-36 -8 -79 -8q-42 0 -62 37l-61 113q-15 27 -34 27h-9v-128l55 -15v-26h-206v26zM362 492v-143h22q38 0 56.5 21.5t18.5 55.5q0 69 -61 69q-16 0 -36 -3z
M50 335q0 147 98 248t252 101t252 -101t98 -248t-98 -248t-252 -101t-252 101t-98 248zM706 335q0 130 -85 219t-221 89q-135 0 -220.5 -89.5t-85.5 -218.5q0 -130 85 -219t221 -89q135 0 220.5 89.5t85.5 218.5z" />
    <glyph glyph-name="macron" unicode="&#xaf;" horiz-adv-x="400" 
d="M335 665v-75h-270v75h270z" />
    <glyph glyph-name="degree" unicode="&#xb0;" 
d="M275 602q-40 0 -67.5 -27.5t-27.5 -73.5q0 -45 28 -73.5t67 -28.5q40 0 67.5 27.5t27.5 73.5q0 45 -28 73.5t-67 28.5zM275 341q-69 0 -116 44t-47 116t47 115.5t116 43.5t116 -44t47 -116t-47 -115.5t-116 -43.5z" />
    <glyph glyph-name="plusminus" unicode="&#xb1;" 
d="M500 302h-193v-178h-66v178h-191v64h191v175h66v-175h193v-64zM500 0h-450v64h450v-64z" />
    <glyph glyph-name="twosuperior" unicode="&#xb2;" horiz-adv-x="400" 
d="M171 711q-61 0 -65 -96q-78 0 -78 40q0 43 45 67.5t110 24.5q71 0 112 -30t41 -84q0 -115 -186 -209h168l20 46h24l-7 -133h-341v30q113 78 168 138t55 125q0 81 -66 81z" />
    <glyph glyph-name="threesuperior" unicode="&#xb3;" horiz-adv-x="400" 
d="M236 565q71 -16 96 -45.5t25 -70.5q0 -53 -48.5 -86.5t-123.5 -33.5q-68 0 -114.5 23t-46.5 54q0 30 21.5 45.5t49.5 16.5q0 -42 25.5 -72.5t67.5 -30.5q80 0 80 62q0 87 -163 92v31q70 8 102.5 34t32.5 61q0 52 -57 52q-62 0 -102 -48l-25 26q51 72 152 72q55 0 92 -22
t37 -66q0 -38 -28 -62.5t-73 -31.5z" />
    <glyph glyph-name="acute" unicode="&#xb4;" horiz-adv-x="400" 
d="M140 558l-30 18q60 95 81 166q99 0 99 -35q0 -20 -52.5 -69.5t-97.5 -79.5z" />
    <glyph glyph-name="mu" unicode="&#xb5;" horiz-adv-x="581" 
d="M369 -14v70q-76 -70 -162 -70q-57 0 -90 28v-74q0 -27 8.5 -45t28.5 -27.5t36.5 -13.5t49.5 -9q0 -41 -20 -60.5t-49 -19.5q-98 0 -98 218v425l-63 10v27l187 43v-338q0 -95 78 -95q53 0 94 44v309l-63 10v27l187 43v-427l63 -10v-26z" />
    <glyph glyph-name="paragraph" unicode="&#xb6;" horiz-adv-x="700" 
d="M338 245q-283 6 -283 209q0 110 80.5 163t204.5 53h305v-32l-95 -25v-697h-65v706h-81v-706h-66v329zM338 289v333q-71 0 -104 -47.5t-33 -115.5q0 -61 32 -112t105 -58z" />
    <glyph glyph-name="periodcentered" unicode="&#xb7;" horiz-adv-x="250" 
d="M125 241q-32 0 -53.5 21t-21.5 53q0 30 22 51.5t53 21.5q32 0 53.5 -21t21.5 -53q0 -30 -22 -51.5t-53 -21.5z" />
    <glyph glyph-name="cedilla" unicode="&#xb8;" horiz-adv-x="400" 
d="M301 -138q0 -41 -32.5 -69t-85.5 -28q-47 0 -85 20l19 39q26 -16 57 -16q16 0 28 9t12 24q0 36 -80 36l-11 26l76 97h58l-56 -59q100 -8 100 -79z" />
    <glyph glyph-name="onesuperior" unicode="&#xb9;" horiz-adv-x="400" 
d="M269 383l96 -14v-32h-294v32l98 14v289l-106 -6v32l183 45h23v-360z" />
    <glyph glyph-name="ordmasculine" unicode="&#xba;" horiz-adv-x="454" 
d="M227 362q85 0 85 144q0 145 -85 145t-85 -144q0 -145 85 -145zM227 329q-84 0 -133 46.5t-49 131.5q0 84 49 130.5t133 46.5t133 -46.5t49 -131.5q0 -84 -49 -130.5t-133 -46.5z" />
    <glyph glyph-name="guillemotright" unicode="&#xbb;" horiz-adv-x="554" 
d="M378 246l-118 184l26 22l223 -206l-223 -206l-26 24zM178 246l-118 184l26 22l223 -206l-223 -206l-26 24z" />
    <glyph glyph-name="onequarter" unicode="&#xbc;" horiz-adv-x="1000" 
d="M256 300l96 -14v-32h-294v32l98 14v289l-106 -6v32l183 45h23v-360zM333 -14l-50 35l464 639l50 -35zM950 115h-64v-72l60 -11v-32h-230v32l71 11v72h-191v24l258 267h32v-244h64v-47zM787 281l-118 -119h118v119z" />
    <glyph glyph-name="onehalf" unicode="&#xbd;" horiz-adv-x="1000" 
d="M256 300l96 -14v-32h-294v32l98 14v289l-106 -6v32l183 45h23v-360zM285 -14l-50 35l464 639l50 -35zM759 374q-61 0 -65 -96q-78 0 -78 40q0 43 45 67.5t110 24.5q71 0 112 -30t41 -84q0 -115 -186 -209h168l20 46h24l-7 -133h-341v30q113 78 168 138t55 125
q0 81 -66 81z" />
    <glyph glyph-name="threequarters" unicode="&#xbe;" horiz-adv-x="1000" 
d="M326 -14l-50 35l464 639l50 -35zM950 115h-64v-72l60 -11v-32h-230v32l71 11v72h-191v24l258 267h32v-244h64v-47zM787 281l-118 -119h118v119zM262 478q71 -16 96 -45.5t25 -70.5q0 -53 -48.5 -86.5t-123.5 -33.5q-68 0 -114.5 23t-46.5 54q0 30 21.5 45.5t49.5 16.5
q0 -42 25.5 -72.5t67.5 -30.5q80 0 80 62q0 87 -163 92v31q70 8 102.5 34t32.5 61q0 52 -57 52q-62 0 -102 -48l-25 26q51 72 152 72q55 0 92 -22t37 -66q0 -38 -28 -62.5t-73 -31.5z" />
    <glyph glyph-name="questiondown" unicode="&#xbf;" horiz-adv-x="397" 
d="M377 -98q0 -45 -48.5 -78.5t-121.5 -33.5q-76 0 -124 37t-48 105q0 42 19.5 79t47 62.5t55 47t47 43t19.5 41.5q0 15 -12 24t-29 9q-26 0 -56 -16l-10 30q15 10 44 18.5t54 8.5q53 0 84.5 -25.5t31.5 -70.5q0 -32 -20 -63t-49 -56l-57.5 -50t-48.5 -55t-20 -60
q0 -37 18 -58t50 -21q24 0 39.5 10.5t23 31.5t10.5 41.5t3 49.5h29q34 0 51.5 -14t17.5 -37zM218 488q31 0 52.5 -21t21.5 -53q0 -30 -22 -51.5t-53 -21.5q-32 0 -53 21t-21 53q0 30 22 51.5t53 21.5z" />
    <glyph glyph-name="Agrave" unicode="&#xc0;" horiz-adv-x="754" 
d="M498 53l-69 181h-198l-72 -183l78 -22v-29h-212v29l80 23l260 632h33l247 -633l79 -22v-29h-304v29zM333 490l-84 -211h163zM461 748l-23 -27q-57 17 -123.5 48.5t-66.5 52.5q0 17 26 34t58 24q44 -61 129 -132z" />
    <glyph glyph-name="Aacute" unicode="&#xc1;" horiz-adv-x="754" 
d="M498 53l-69 181h-198l-72 -183l78 -22v-29h-212v29l80 23l260 632h33l247 -633l79 -22v-29h-304v29zM333 490l-84 -211h163zM324 721l-23 27q85 71 129 132q32 -7 58 -24t26 -34q0 -21 -66.5 -52.5t-123.5 -48.5z" />
    <glyph glyph-name="Acircumflex" unicode="&#xc2;" horiz-adv-x="754" 
d="M498 53l-69 181h-198l-72 -183l78 -22v-29h-212v29l80 23l260 632h33l247 -633l79 -22v-29h-304v29zM333 490l-84 -211h163zM356 884h51q33 -54 101 -133l-32 -25l-95 66l-94 -66l-32 25q68 79 101 133z" />
    <glyph glyph-name="Atilde" unicode="&#xc3;" horiz-adv-x="754" 
d="M498 53l-69 181h-198l-72 -183l78 -22v-29h-212v29l80 23l260 632h33l247 -633l79 -22v-29h-304v29zM333 490l-84 -211h163zM501 881l37 -9q-12 -65 -32 -95.5t-55 -30.5q-20 0 -68 21t-63 21q-16 0 -25 -11t-20 -39l-37 9q12 65 32 95.5t55 30.5q20 0 68 -21t63 -21
q16 0 25 11t20 39z" />
    <glyph glyph-name="Adieresis" unicode="&#xc4;" horiz-adv-x="754" 
d="M498 53l-69 181h-198l-72 -183l78 -22v-29h-212v29l80 23l260 632h33l247 -633l79 -22v-29h-304v29zM333 490l-84 -211h163zM273 873q29 0 50.5 -21t21.5 -49q0 -30 -21.5 -50.5t-50.5 -20.5t-49.5 20t-20.5 51q0 28 20.5 49t49.5 21zM486 873q29 0 50.5 -21t21.5 -49
q0 -30 -21.5 -50.5t-50.5 -20.5q-30 0 -50 20t-20 51q0 28 20.5 49t49.5 21z" />
    <glyph glyph-name="Aring" unicode="&#xc5;" horiz-adv-x="754" 
d="M498 53l-69 181h-198l-72 -183l78 -22v-29h-212v29l80 23l260 632h33l247 -633l79 -22v-29h-304v29zM333 490l-84 -211h163zM285 809q0 41 27.5 66t69.5 25q41 0 69 -25t28 -66t-28 -65.5t-69 -24.5q-42 0 -69.5 24.5t-27.5 65.5zM344 809q0 -27 11 -42t28 -15t28 15
t11 42t-11 41.5t-28 14.5t-28 -14.5t-11 -41.5z" />
    <glyph glyph-name="AE" unicode="&#xc6;" horiz-adv-x="972" 
d="M401 0v29l79 22v183h-218l-108 -183l78 -22v-29h-217v29l80 23l343 568l-75 21v29h538v-179h-28l-56 137h-200v-256h115l35 99h26v-240h-26l-35 99h-115v-288h208l64 159h28l-9 -201h-507zM289 279h191v322z" />
    <glyph glyph-name="Ccedilla" unicode="&#xc7;" horiz-adv-x="702" 
d="M481 -138q0 -41 -32.5 -69t-85.5 -28q-47 0 -85 20l19 39q26 -16 57 -16q16 0 28 9t12 24q0 36 -80 36l-11 26l66 85q-147 10 -230.5 94.5t-83.5 247.5q0 92 27.5 161.5t76.5 110.5t111 61.5t137 20.5q56 0 123 -14t103 -29l6 -160h-37q-48 167 -192 167
q-102 0 -158.5 -84t-56.5 -222q0 -148 56 -233t170 -85q70 0 118 45t62 124h41l-13 -160q-102 -44 -206 -47l-42 -45q100 -8 100 -79z" />
    <glyph glyph-name="Egrave" unicode="&#xc8;" horiz-adv-x="611" 
d="M40 0v29l79 22v568l-79 22v29h500v-179h-28l-56 137h-200v-256h115l35 99h26v-240h-26l-35 99h-115v-288h208l64 159h28l-9 -201h-507zM388 748l-23 -27q-57 17 -123.5 48.5t-66.5 52.5q0 17 26 34t58 24q44 -61 129 -132z" />
    <glyph glyph-name="Eacute" unicode="&#xc9;" horiz-adv-x="611" 
d="M40 0v29l79 22v568l-79 22v29h500v-179h-28l-56 137h-200v-256h115l35 99h26v-240h-26l-35 99h-115v-288h208l64 159h28l-9 -201h-507zM232 721l-23 27q85 71 129 132q32 -7 58 -24t26 -34q0 -21 -66.5 -52.5t-123.5 -48.5z" />
    <glyph glyph-name="Ecircumflex" unicode="&#xca;" horiz-adv-x="611" 
d="M40 0v29l79 22v568l-79 22v29h500v-179h-28l-56 137h-200v-256h115l35 99h26v-240h-26l-35 99h-115v-288h208l64 159h28l-9 -201h-507zM282 884h51q33 -54 101 -133l-32 -25l-95 66l-94 -66l-32 25q68 79 101 133z" />
    <glyph glyph-name="Edieresis" unicode="&#xcb;" horiz-adv-x="611" 
d="M40 0v29l79 22v568l-79 22v29h500v-179h-28l-56 137h-200v-256h115l35 99h26v-240h-26l-35 99h-115v-288h208l64 159h28l-9 -201h-507zM198 873q29 0 50.5 -21t21.5 -49q0 -30 -21.5 -50.5t-50.5 -20.5q-30 0 -50 20t-20 51q0 28 20.5 49t49.5 21zM411 873q29 0 50.5 -21
t21.5 -49q0 -30 -21.5 -50.5t-50.5 -20.5t-49.5 20t-20.5 51q0 28 20.5 49t49.5 21z" />
    <glyph glyph-name="Igrave" unicode="&#xcc;" horiz-adv-x="375" 
d="M256 619v-568l79 -22v-29h-295v29l79 22v568l-79 22v29h295v-29zM278 748l-23 -27q-57 17 -123.5 48.5t-66.5 52.5q0 17 26 34t58 24q44 -61 129 -132z" />
    <glyph glyph-name="Iacute" unicode="&#xcd;" horiz-adv-x="375" 
d="M256 619v-568l79 -22v-29h-295v29l79 22v568l-79 22v29h295v-29zM124 721l-23 27q85 71 129 132q32 -7 58 -24t26 -34q0 -21 -66.5 -52.5t-123.5 -48.5z" />
    <glyph glyph-name="Icircumflex" unicode="&#xce;" horiz-adv-x="375" 
d="M256 619v-568l79 -22v-29h-295v29l79 22v568l-79 22v29h295v-29zM162 884h51q33 -54 101 -133l-32 -25l-95 66l-94 -66l-32 25q68 79 101 133z" />
    <glyph glyph-name="Idieresis" unicode="&#xcf;" horiz-adv-x="375" 
d="M256 619v-568l79 -22v-29h-295v29l79 22v568l-79 22v29h295v-29zM80 873q29 0 50.5 -21t21.5 -49q0 -30 -21.5 -50.5t-50.5 -20.5q-30 0 -50 20t-20 51q0 28 20.5 49t49.5 21zM293 873q29 0 50.5 -21t21.5 -49q0 -30 -21.5 -50.5t-50.5 -20.5t-49.5 20t-20.5 51
q0 28 20.5 49t49.5 21z" />
    <glyph glyph-name="Eth" unicode="&#xd0;" horiz-adv-x="786" 
d="M46 0v29l79 22v267h-85v58h85v243l-79 22v29h326q176 0 267.5 -81t91.5 -237q0 -172 -97 -262t-274 -90h-314zM591 343q0 286 -243 286h-86v-253h121v-58h-121v-276h84q118 0 181.5 77.5t63.5 223.5z" />
    <glyph glyph-name="Ntilde" unicode="&#xd1;" horiz-adv-x="751" 
d="M638 -9h-41l-429 575v-515l79 -22v-29h-212v29l79 22v568l-79 22v29h221l328 -441v390l-79 22v29h211v-29l-78 -22v-628zM496 881l37 -9q-12 -65 -32 -95.5t-55 -30.5q-20 0 -68 21t-63 21q-16 0 -25 -11t-20 -39l-37 9q12 65 32 95.5t55 30.5q20 0 68 -21t63 -21
q16 0 25 11t20 39z" />
    <glyph glyph-name="Ograve" unicode="&#xd2;" horiz-adv-x="784" 
d="M401 23q51 0 89 28t59 74.5t30.5 99t9.5 109.5q0 155 -52.5 234t-149.5 79q-94 0 -143 -84t-49 -226q0 -314 206 -314zM393 -14q-165 0 -251.5 92t-86.5 256q0 155 93 252.5t253 97.5q161 0 244.5 -96.5t83.5 -253.5q0 -151 -90.5 -249.5t-245.5 -98.5zM478 748l-23 -27
q-57 17 -123.5 48.5t-66.5 52.5q0 17 26 34t58 24q44 -61 129 -132z" />
    <glyph glyph-name="Oacute" unicode="&#xd3;" horiz-adv-x="784" 
d="M401 23q51 0 89 28t59 74.5t30.5 99t9.5 109.5q0 155 -52.5 234t-149.5 79q-94 0 -143 -84t-49 -226q0 -314 206 -314zM393 -14q-165 0 -251.5 92t-86.5 256q0 155 93 252.5t253 97.5q161 0 244.5 -96.5t83.5 -253.5q0 -151 -90.5 -249.5t-245.5 -98.5zM328 721l-23 27
q85 71 129 132q32 -7 58 -24t26 -34q0 -21 -66.5 -52.5t-123.5 -48.5z" />
    <glyph glyph-name="Ocircumflex" unicode="&#xd4;" horiz-adv-x="784" 
d="M401 23q51 0 89 28t59 74.5t30.5 99t9.5 109.5q0 155 -52.5 234t-149.5 79q-94 0 -143 -84t-49 -226q0 -314 206 -314zM393 -14q-165 0 -251.5 92t-86.5 256q0 155 93 252.5t253 97.5q161 0 244.5 -96.5t83.5 -253.5q0 -151 -90.5 -249.5t-245.5 -98.5zM366 884h51
q33 -54 101 -133l-32 -25l-95 66l-94 -66l-32 25q68 79 101 133z" />
    <glyph glyph-name="Otilde" unicode="&#xd5;" horiz-adv-x="784" 
d="M401 23q51 0 89 28t59 74.5t30.5 99t9.5 109.5q0 155 -52.5 234t-149.5 79q-94 0 -143 -84t-49 -226q0 -314 206 -314zM393 -14q-165 0 -251.5 92t-86.5 256q0 155 93 252.5t253 97.5q161 0 244.5 -96.5t83.5 -253.5q0 -151 -90.5 -249.5t-245.5 -98.5zM512 881l37 -9
q-12 -65 -32 -95.5t-55 -30.5q-20 0 -68 21t-63 21q-16 0 -25 -11t-20 -39l-37 9q12 65 32 95.5t55 30.5q20 0 68 -21t63 -21q16 0 25 11t20 39z" />
    <glyph glyph-name="Odieresis" unicode="&#xd6;" horiz-adv-x="784" 
d="M401 23q51 0 89 28t59 74.5t30.5 99t9.5 109.5q0 155 -52.5 234t-149.5 79q-94 0 -143 -84t-49 -226q0 -314 206 -314zM393 -14q-165 0 -251.5 92t-86.5 256q0 155 93 252.5t253 97.5q161 0 244.5 -96.5t83.5 -253.5q0 -151 -90.5 -249.5t-245.5 -98.5zM284 873
q29 0 50.5 -21t21.5 -49q0 -30 -21.5 -50.5t-50.5 -20.5q-30 0 -50 20t-20 51q0 28 20.5 49t49.5 21zM497 873q29 0 50.5 -21t21.5 -49q0 -30 -21.5 -50.5t-50.5 -20.5t-49.5 20t-20.5 51q0 28 20.5 49t49.5 21z" />
    <glyph glyph-name="multiply" unicode="&#xd7;" 
d="M462 444l-142 -143l142 -142l-46 -44l-141 141l-141 -141l-46 44l142 142l-142 143l46 44l141 -142l141 142z" />
    <glyph glyph-name="Oslash" unicode="&#xd8;" horiz-adv-x="784" 
d="M393 -14q-115 0 -193 46l-48 -66h-68l71 98q-100 91 -100 270q0 155 93 252.5t253 97.5q100 0 174 -41l45 61h67l-67 -92q109 -93 109 -278q0 -151 -90.5 -249.5t-245.5 -98.5zM401 23q51 0 89 28t59 74.5t30.5 99t9.5 109.5q0 116 -31 192l-310 -427q53 -76 153 -76z
M195 337q0 -111 26 -183l308 425q-51 68 -142 68q-94 0 -143 -84t-49 -226z" />
    <glyph glyph-name="Ugrave" unicode="&#xd9;" horiz-adv-x="747" 
d="M722 641l-79 -22v-375q0 -126 -71 -192t-183 -66q-41 0 -77.5 5.5t-74.5 21.5t-65.5 41t-45 67.5t-17.5 97.5v400l-79 22v29h295v-29l-79 -22v-391q0 -91 43.5 -139.5t121.5 -48.5q79 0 129 53t50 156v370l-79 22v29h211v-29zM480 748l-23 -27q-57 17 -123.5 48.5
t-66.5 52.5q0 17 26 34t58 24q44 -61 129 -132z" />
    <glyph glyph-name="Uacute" unicode="&#xda;" horiz-adv-x="747" 
d="M722 641l-79 -22v-375q0 -126 -71 -192t-183 -66q-41 0 -77.5 5.5t-74.5 21.5t-65.5 41t-45 67.5t-17.5 97.5v400l-79 22v29h295v-29l-79 -22v-391q0 -91 43.5 -139.5t121.5 -48.5q79 0 129 53t50 156v370l-79 22v29h211v-29zM367 721l-23 27q85 71 129 132q32 -7 58 -24
t26 -34q0 -21 -66.5 -52.5t-123.5 -48.5z" />
    <glyph glyph-name="Ucircumflex" unicode="&#xdb;" horiz-adv-x="747" 
d="M722 641l-79 -22v-375q0 -126 -71 -192t-183 -66q-41 0 -77.5 5.5t-74.5 21.5t-65.5 41t-45 67.5t-17.5 97.5v400l-79 22v29h295v-29l-79 -22v-391q0 -91 43.5 -139.5t121.5 -48.5q79 0 129 53t50 156v370l-79 22v29h211v-29zM386 884h51q33 -54 101 -133l-32 -25l-95 66
l-94 -66l-32 25q68 79 101 133z" />
    <glyph glyph-name="Udieresis" unicode="&#xdc;" horiz-adv-x="747" 
d="M722 641l-79 -22v-375q0 -126 -71 -192t-183 -66q-41 0 -77.5 5.5t-74.5 21.5t-65.5 41t-45 67.5t-17.5 97.5v400l-79 22v29h295v-29l-79 -22v-391q0 -91 43.5 -139.5t121.5 -48.5q79 0 129 53t50 156v370l-79 22v29h211v-29zM299 873q29 0 50.5 -21t21.5 -49
q0 -30 -21.5 -50.5t-50.5 -20.5t-49.5 20t-20.5 51q0 28 20.5 49t49.5 21zM512 873q29 0 50.5 -21t21.5 -49q0 -30 -21.5 -50.5t-50.5 -20.5q-30 0 -50 20t-20 51q0 28 20.5 49t49.5 21z" />
    <glyph glyph-name="Yacute" unicode="&#xdd;" horiz-adv-x="714" 
d="M293 288l-201 331l-72 22v29h301v-29l-76 -23l161 -268l150 269l-74 22v29h212v-29l-80 -23l-185 -329v-238l83 -22v-29h-303v29l84 22v237zM351 721l-23 27q85 71 129 132q32 -7 58 -24t26 -34q0 -21 -66.5 -52.5t-123.5 -48.5z" />
    <glyph glyph-name="Thorn" unicode="&#xde;" horiz-adv-x="617" 
d="M256 528h58q61 0 105.5 -7.5t82 -26t56.5 -53t19 -85.5q0 -98 -75.5 -149t-186.5 -51h-32v31q155 22 155 169q0 135 -123 135q-25 0 -59 -8v-433l79 -21v-29h-295v29l79 22v568l-79 22v29h295v-29l-79 -22v-91z" />
    <glyph glyph-name="germandbls" unicode="&#xdf;" horiz-adv-x="633" 
d="M438 17q33 0 54 21t21 53q0 33 -33.5 60t-73 44.5t-73 52t-33.5 80.5q0 32 19.5 64.5t43 55.5t43 55.5t19.5 64.5q0 54 -26 87t-71 33q-103 0 -103 -162v-526h-190v24l67 20v385h-64v45h64v28q0 96 64.5 160t171.5 64q91 0 154 -35.5t63 -100.5q0 -33 -28.5 -62.5
t-62 -47t-62 -42t-28.5 -48.5q0 -20 24 -39t58.5 -37.5t69 -40.5t58.5 -55.5t24 -74.5q0 -74 -53 -115.5t-129 -41.5q-68 0 -113.5 24.5t-45.5 62.5q0 69 89 76q8 -132 82 -132z" />
    <glyph glyph-name="agrave" unicode="&#xe0;" horiz-adv-x="520" 
d="M374 -14q-65 0 -65 60v14q-63 -74 -159 -74q-115 0 -115 92q0 67 71.5 109.5t202.5 59.5v111q0 53 -13 75.5t-45 22.5q-40 0 -61.5 -34.5t-23.5 -97.5h-37q-81 0 -81 45q0 38 38 66t88.5 40.5t101.5 12.5q160 0 160 -137v-281q0 -27 9 -35.5t32 -8.5h21l-1 -24
q-59 -16 -123 -16zM218 47q23 0 48 14.5t43 40.5v115q-143 -32 -143 -114q0 -27 14 -41.5t38 -14.5zM350 576l-30 -18q-45 30 -97.5 79.5t-52.5 69.5q0 35 99 35q21 -71 81 -166z" />
    <glyph glyph-name="aacute" unicode="&#xe1;" horiz-adv-x="520" 
d="M374 -14q-65 0 -65 60v14q-63 -74 -159 -74q-115 0 -115 92q0 67 71.5 109.5t202.5 59.5v111q0 53 -13 75.5t-45 22.5q-40 0 -61.5 -34.5t-23.5 -97.5h-37q-81 0 -81 45q0 38 38 66t88.5 40.5t101.5 12.5q160 0 160 -137v-281q0 -27 9 -35.5t32 -8.5h21l-1 -24
q-59 -16 -123 -16zM218 47q23 0 48 14.5t43 40.5v115q-143 -32 -143 -114q0 -27 14 -41.5t38 -14.5zM212 558l-30 18q60 95 81 166q99 0 99 -35q0 -20 -52.5 -69.5t-97.5 -79.5z" />
    <glyph glyph-name="acircumflex" unicode="&#xe2;" horiz-adv-x="520" 
d="M374 -14q-65 0 -65 60v14q-63 -74 -159 -74q-115 0 -115 92q0 67 71.5 109.5t202.5 59.5v111q0 53 -13 75.5t-45 22.5q-40 0 -61.5 -34.5t-23.5 -97.5h-37q-81 0 -81 45q0 38 38 66t88.5 40.5t101.5 12.5q160 0 160 -137v-281q0 -27 9 -35.5t32 -8.5h21l-1 -24
q-59 -16 -123 -16zM218 47q23 0 48 14.5t43 40.5v115q-143 -32 -143 -114q0 -27 14 -41.5t38 -14.5zM235 740h50q50 -93 101 -162l-32 -20l-94 80l-94 -80l-32 20q51 69 101 162z" />
    <glyph glyph-name="atilde" unicode="&#xe3;" horiz-adv-x="520" 
d="M374 -14q-65 0 -65 60v14q-63 -74 -159 -74q-115 0 -115 92q0 67 71.5 109.5t202.5 59.5v111q0 53 -13 75.5t-45 22.5q-40 0 -61.5 -34.5t-23.5 -97.5h-37q-81 0 -81 45q0 38 38 66t88.5 40.5t101.5 12.5q160 0 160 -137v-281q0 -27 9 -35.5t32 -8.5h21l-1 -24
q-59 -16 -123 -16zM218 47q23 0 48 14.5t43 40.5v115q-143 -32 -143 -114q0 -27 14 -41.5t38 -14.5zM373 721l37 -9q-12 -65 -32 -95.5t-55 -30.5q-20 0 -68 21t-63 21q-16 0 -25 -11t-20 -39l-37 9q12 65 32 95.5t55 30.5q20 0 68 -21t63 -21q16 0 25 11t20 39z" />
    <glyph glyph-name="adieresis" unicode="&#xe4;" horiz-adv-x="520" 
d="M374 -14q-65 0 -65 60v14q-63 -74 -159 -74q-115 0 -115 92q0 67 71.5 109.5t202.5 59.5v111q0 53 -13 75.5t-45 22.5q-40 0 -61.5 -34.5t-23.5 -97.5h-37q-81 0 -81 45q0 38 38 66t88.5 40.5t101.5 12.5q160 0 160 -137v-281q0 -27 9 -35.5t32 -8.5h21l-1 -24
q-59 -16 -123 -16zM218 47q23 0 48 14.5t43 40.5v115q-143 -32 -143 -114q0 -27 14 -41.5t38 -14.5zM152 716q29 0 50.5 -21t21.5 -49q0 -30 -21.5 -50.5t-50.5 -20.5q-30 0 -50 20.5t-20 50.5q0 28 20.5 49t49.5 21zM365 716q29 0 50.5 -21t21.5 -49q0 -30 -21.5 -50.5
t-50.5 -20.5t-49.5 20.5t-20.5 50.5q0 28 20.5 49t49.5 21z" />
    <glyph glyph-name="aring" unicode="&#xe5;" horiz-adv-x="520" 
d="M374 -14q-65 0 -65 60v14q-63 -74 -159 -74q-115 0 -115 92q0 67 71.5 109.5t202.5 59.5v111q0 53 -13 75.5t-45 22.5q-40 0 -61.5 -34.5t-23.5 -97.5h-37q-81 0 -81 45q0 38 38 66t88.5 40.5t101.5 12.5q160 0 160 -137v-281q0 -27 9 -35.5t32 -8.5h21l-1 -24
q-59 -16 -123 -16zM218 47q23 0 48 14.5t43 40.5v115q-143 -32 -143 -114q0 -27 14 -41.5t38 -14.5zM163 649q0 41 27.5 66t69.5 25q41 0 69 -25t28 -66t-28 -65.5t-69 -24.5q-42 0 -69.5 24.5t-27.5 65.5zM222 649q0 -27 11 -42t28 -15t28 15t11 42t-11 41.5t-28 14.5
t-28 -14.5t-11 -41.5z" />
    <glyph glyph-name="ae" unicode="&#xe6;" horiz-adv-x="790" 
d="M536 -14q-143 0 -197 94q-71 -92 -196 -94q-43 0 -75.5 20.5t-32.5 71.5q0 133 274 169v111q0 53 -13 75.5t-45 22.5q-40 0 -61.5 -34.5t-23.5 -97.5h-37q-81 0 -81 45q0 38 37.5 66t88 40.5t101.5 12.5q95 0 134 -47q64 47 144 47q87 0 139.5 -47t52.5 -130
q0 -20 -2 -32h-313v-17q0 -216 154 -216q73 0 142 52l17 -26q-93 -86 -207 -86zM548 456q-44 0 -75.5 -36.5t-40.5 -110.5h182q3 33 3 39q0 53 -15 80.5t-54 27.5zM218 47q58 0 105 68q-15 44 -15 100q-62 -11 -102 -40t-40 -72q0 -26 15 -41t37 -15z" />
    <glyph glyph-name="ccedilla" unicode="&#xe7;" horiz-adv-x="505" 
d="M345 -138q0 -41 -32.5 -69t-85.5 -28q-47 0 -85 20l19 39q26 -16 57 -16q16 0 28 9t12 24q0 36 -80 36l-11 26l66 84q-85 7 -136.5 60t-51.5 157q0 125 70.5 204.5t188.5 79.5q63 0 111.5 -28.5t48.5 -71.5q0 -28 -23.5 -43.5t-84.5 -15.5q-1 61 -15.5 94.5t-54.5 33.5
q-54 0 -86.5 -57.5t-32.5 -156.5q0 -91 39 -144t111 -53q62 0 136 56l17 -26q-81 -77 -181 -88l-44 -47q100 -8 100 -79z" />
    <glyph glyph-name="egrave" unicode="&#xe8;" horiz-adv-x="527" 
d="M273 -14q-109 0 -168.5 57.5t-59.5 170.5q0 125 71 199.5t174 74.5q87 0 139.5 -47t52.5 -130q0 -26 -2 -38h-313v-11q0 -216 154 -216q73 0 142 52l17 -26q-93 -86 -207 -86zM285 456q-44 0 -75.5 -36.5t-40.5 -110.5h182q3 33 3 39q0 53 -15 80.5t-54 27.5zM357 576
l-30 -18q-45 30 -97.5 79.5t-52.5 69.5q0 35 99 35q21 -71 81 -166z" />
    <glyph glyph-name="eacute" unicode="&#xe9;" horiz-adv-x="527" 
d="M273 -14q-109 0 -168.5 57.5t-59.5 170.5q0 125 71 199.5t174 74.5q87 0 139.5 -47t52.5 -130q0 -26 -2 -38h-313v-11q0 -216 154 -216q73 0 142 52l17 -26q-93 -86 -207 -86zM285 456q-44 0 -75.5 -36.5t-40.5 -110.5h182q3 33 3 39q0 53 -15 80.5t-54 27.5zM231 558
l-30 18q60 95 81 166q99 0 99 -35q0 -20 -52.5 -69.5t-97.5 -79.5z" />
    <glyph glyph-name="ecircumflex" unicode="&#xea;" horiz-adv-x="527" 
d="M273 -14q-109 0 -168.5 57.5t-59.5 170.5q0 125 71 199.5t174 74.5q87 0 139.5 -47t52.5 -130q0 -26 -2 -38h-313v-11q0 -216 154 -216q73 0 142 52l17 -26q-93 -86 -207 -86zM285 456q-44 0 -75.5 -36.5t-40.5 -110.5h182q3 33 3 39q0 53 -15 80.5t-54 27.5zM256 740h50
q50 -93 101 -162l-32 -20l-94 80l-94 -80l-32 20q51 69 101 162z" />
    <glyph glyph-name="edieresis" unicode="&#xeb;" horiz-adv-x="527" 
d="M273 -14q-109 0 -168.5 57.5t-59.5 170.5q0 125 71 199.5t174 74.5q87 0 139.5 -47t52.5 -130q0 -26 -2 -38h-313v-11q0 -216 154 -216q73 0 142 52l17 -26q-93 -86 -207 -86zM285 456q-44 0 -75.5 -36.5t-40.5 -110.5h182q3 33 3 39q0 53 -15 80.5t-54 27.5zM185 716
q29 0 50.5 -21t21.5 -49q0 -30 -21.5 -50.5t-50.5 -20.5t-49.5 20.5t-20.5 50.5q0 28 20.5 49t49.5 21zM398 716q29 0 50.5 -21t21.5 -49q0 -30 -21.5 -50.5t-50.5 -20.5q-30 0 -50 20.5t-20 50.5q0 28 20.5 49t49.5 21z" />
    <glyph glyph-name="igrave" unicode="&#xec;" horiz-adv-x="302" 
d="M282 0h-250v24l63 19v365l-63 10v27l187 43v-445l63 -19v-24zM228 576l-30 -18q-45 30 -97.5 79.5t-52.5 69.5q0 35 99 35q21 -71 81 -166z" />
    <glyph glyph-name="iacute" unicode="&#xed;" horiz-adv-x="302" 
d="M282 0h-250v24l63 19v365l-63 10v27l187 43v-445l63 -19v-24zM111 558l-30 18q60 95 81 166q99 0 99 -35q0 -20 -52.5 -69.5t-97.5 -79.5z" />
    <glyph glyph-name="icircumflex" unicode="&#xee;" horiz-adv-x="302" 
d="M282 0h-250v24l63 19v365l-63 10v27l187 43v-445l63 -19v-24zM126 740h50q50 -93 101 -162l-32 -20l-94 80l-94 -80l-32 20q51 69 101 162z" />
    <glyph glyph-name="idieresis" unicode="&#xef;" horiz-adv-x="302" 
d="M282 0h-250v24l63 19v365l-63 10v27l187 43v-445l63 -19v-24zM44 716q29 0 50.5 -21t21.5 -49q0 -30 -21.5 -50.5t-50.5 -20.5q-30 0 -50 20.5t-20 50.5q0 28 20.5 49t49.5 21zM257 716q29 0 50.5 -21t21.5 -49q0 -30 -21.5 -50.5t-50.5 -20.5t-49.5 20.5t-20.5 50.5
q0 28 20.5 49t49.5 21z" />
    <glyph glyph-name="eth" unicode="&#xf0;" horiz-adv-x="546" 
d="M170 523v55l93 40q-48 51 -124 89l16 34q95 -30 175 -94l104 44v-55l-62 -27q129 -131 129 -321q0 -139 -66 -220.5t-171 -81.5q-98 0 -161 69.5t-63 176.5q0 106 62 175.5t173 69.5q32 0 71 -13q-18 65 -51 112zM368 266q0 90 -12 154q-30 10 -63 10q-63 0 -92.5 -57
t-29.5 -148q0 -87 25 -144.5t72 -57.5q29 0 50 24.5t31 64.5t14.5 77.5t4.5 76.5z" />
    <glyph glyph-name="ntilde" unicode="&#xf1;" horiz-adv-x="606" 
d="M219 488v-76q76 76 169 76q133 0 133 -152v-292l65 -20v-24h-252v24l64 20v279q0 96 -78 96q-52 0 -101 -47v-328l59 -20v-24h-246v24l63 20v364l-63 10v27zM423 721l37 -9q-12 -65 -32 -95.5t-55 -30.5q-20 0 -68 21t-63 21q-16 0 -25 -11t-20 -39l-37 9q12 65 32 95.5
t55 30.5q20 0 68 -21t63 -21q16 0 25 11t20 39z" />
    <glyph glyph-name="ograve" unicode="&#xf2;" horiz-adv-x="570" 
d="M286 17q54 0 81.5 58.5t27.5 161.5q0 220 -111 220q-54 0 -81.5 -58.5t-27.5 -161.5q0 -220 111 -220zM284 -14q-107 0 -173 64t-66 172q0 123 65 194.5t176 71.5q107 0 173 -64t66 -172q0 -123 -64.5 -194.5t-176.5 -71.5zM376 576l-30 -18q-45 30 -97.5 79.5
t-52.5 69.5q0 35 99 35q21 -71 81 -166z" />
    <glyph glyph-name="oacute" unicode="&#xf3;" horiz-adv-x="570" 
d="M286 17q54 0 81.5 58.5t27.5 161.5q0 220 -111 220q-54 0 -81.5 -58.5t-27.5 -161.5q0 -220 111 -220zM284 -14q-107 0 -173 64t-66 172q0 123 65 194.5t176 71.5q107 0 173 -64t66 -172q0 -123 -64.5 -194.5t-176.5 -71.5zM253 558l-30 18q60 95 81 166q99 0 99 -35
q0 -20 -52.5 -69.5t-97.5 -79.5z" />
    <glyph glyph-name="ocircumflex" unicode="&#xf4;" horiz-adv-x="570" 
d="M286 17q54 0 81.5 58.5t27.5 161.5q0 220 -111 220q-54 0 -81.5 -58.5t-27.5 -161.5q0 -220 111 -220zM284 -14q-107 0 -173 64t-66 172q0 123 65 194.5t176 71.5q107 0 173 -64t66 -172q0 -123 -64.5 -194.5t-176.5 -71.5zM260 740h50q50 -93 101 -162l-32 -20l-94 80
l-94 -80l-32 20q51 69 101 162z" />
    <glyph glyph-name="otilde" unicode="&#xf5;" horiz-adv-x="570" 
d="M286 17q54 0 81.5 58.5t27.5 161.5q0 220 -111 220q-54 0 -81.5 -58.5t-27.5 -161.5q0 -220 111 -220zM284 -14q-107 0 -173 64t-66 172q0 123 65 194.5t176 71.5q107 0 173 -64t66 -172q0 -123 -64.5 -194.5t-176.5 -71.5zM403 721l37 -9q-12 -65 -32 -95.5t-55 -30.5
q-20 0 -68 21t-63 21q-16 0 -25 -11t-20 -39l-37 9q12 65 32 95.5t55 30.5q20 0 68 -21t63 -21q16 0 25 11t20 39z" />
    <glyph glyph-name="odieresis" unicode="&#xf6;" horiz-adv-x="570" 
d="M286 17q54 0 81.5 58.5t27.5 161.5q0 220 -111 220q-54 0 -81.5 -58.5t-27.5 -161.5q0 -220 111 -220zM284 -14q-107 0 -173 64t-66 172q0 123 65 194.5t176 71.5q107 0 173 -64t66 -172q0 -123 -64.5 -194.5t-176.5 -71.5zM177 716q29 0 50.5 -21t21.5 -49
q0 -30 -21.5 -50.5t-50.5 -20.5t-49.5 20.5t-20.5 50.5q0 28 20.5 49t49.5 21zM390 716q29 0 50.5 -21t21.5 -49q0 -30 -21.5 -50.5t-50.5 -20.5q-30 0 -50 20.5t-20 50.5q0 28 20.5 49t49.5 21z" />
    <glyph glyph-name="divide" unicode="&#xf7;" 
d="M500 270h-450v65h450v-65zM212 151q0 27 18 45.5t44 18.5q27 0 45.5 -18.5t18.5 -45.5q0 -26 -18.5 -44t-45.5 -18q-26 0 -44 18.5t-18 43.5zM212 456q0 26 18 44.5t44 18.5q27 0 45.5 -18.5t18.5 -44.5t-18.5 -44.5t-45.5 -18.5q-26 0 -44 18.5t-18 44.5z" />
    <glyph glyph-name="oslash" unicode="&#xf8;" horiz-adv-x="570" 
d="M284 -14q-73 0 -129 31l-30 -42h-63l52 72q-69 64 -69 175q0 123 65 194.5t176 71.5q69 0 123 -28l29 39h64l-50 -69q73 -65 73 -178q0 -123 -64.5 -194.5t-176.5 -71.5zM286 17q54 0 81.5 58.5t27.5 161.5q0 57 -9 101l-186 -259q28 -62 86 -62zM175 237q0 -56 7 -95
l185 258q-28 57 -83 57q-54 0 -81.5 -58.5t-27.5 -161.5z" />
    <glyph glyph-name="ugrave" unicode="&#xf9;" horiz-adv-x="586" 
d="M374 -14v70q-76 -70 -162 -70q-67 0 -100.5 39.5t-33.5 111.5v271l-63 10v27l187 43v-338q0 -95 78 -95q53 0 94 44v309l-63 10v27l187 43v-427l63 -10v-26zM339 576l-30 -18q-45 30 -97.5 79.5t-52.5 69.5q0 35 99 35q21 -71 81 -166z" />
    <glyph glyph-name="uacute" unicode="&#xfa;" horiz-adv-x="586" 
d="M374 -14v70q-76 -70 -162 -70q-67 0 -100.5 39.5t-33.5 111.5v271l-63 10v27l187 43v-338q0 -95 78 -95q53 0 94 44v309l-63 10v27l187 43v-427l63 -10v-26zM269 558l-30 18q60 95 81 166q99 0 99 -35q0 -20 -52.5 -69.5t-97.5 -79.5z" />
    <glyph glyph-name="ucircumflex" unicode="&#xfb;" horiz-adv-x="586" 
d="M374 -14v70q-76 -70 -162 -70q-67 0 -100.5 39.5t-33.5 111.5v271l-63 10v27l187 43v-338q0 -95 78 -95q53 0 94 44v309l-63 10v27l187 43v-427l63 -10v-26zM257 740h50q50 -93 101 -162l-32 -20l-94 80l-94 -80l-32 20q51 69 101 162z" />
    <glyph glyph-name="udieresis" unicode="&#xfc;" horiz-adv-x="586" 
d="M374 -14v70q-76 -70 -162 -70q-67 0 -100.5 39.5t-33.5 111.5v271l-63 10v27l187 43v-338q0 -95 78 -95q53 0 94 44v309l-63 10v27l187 43v-427l63 -10v-26zM173 716q29 0 50.5 -21t21.5 -49q0 -30 -21.5 -50.5t-50.5 -20.5t-49.5 20.5t-20.5 50.5q0 28 20.5 49t49.5 21z
M386 716q29 0 50.5 -21t21.5 -49q0 -30 -21.5 -50.5t-50.5 -20.5q-30 0 -50 20.5t-20 50.5q0 28 20.5 49t49.5 21z" />
    <glyph glyph-name="yacute" unicode="&#xfd;" horiz-adv-x="553" 
d="M271 450l-66 -22l113 -277l109 275l-65 24v24h176v-24l-64 -24l-205 -499q-16 -40 -29 -63.5t-35 -49.5t-53 -38t-72 -12q-22 0 -37 9.5t-15 29.5q0 35 35 67q45 -35 81 -35q26 0 49 32t66 134l-185 426l-59 23v24h256v-24zM285 558l-30 18q60 95 81 166q99 0 99 -35
q0 -20 -52.5 -69.5t-97.5 -79.5z" />
    <glyph glyph-name="thorn" unicode="&#xfe;" horiz-adv-x="579" 
d="M197 726v-315q25 32 66.5 54.5t83.5 22.5q91 0 139 -62.5t48 -159.5q0 -73 -21.5 -129t-58.5 -88t-79.5 -47.5t-90.5 -15.5q-38 0 -87 11v-184l63 -19v-24h-250v24l63 19v836l-63 10v27zM294 419q-52 0 -97 -49v-318q44 -35 100 -35q54 0 84.5 56.5t30.5 142.5
q0 91 -30 147t-88 56z" />
    <glyph glyph-name="ydieresis" unicode="&#xff;" horiz-adv-x="553" 
d="M271 450l-66 -22l113 -277l109 275l-65 24v24h176v-24l-64 -24l-205 -499q-16 -40 -29 -63.5t-35 -49.5t-53 -38t-72 -12q-22 0 -37 9.5t-15 29.5q0 35 35 67q45 -35 81 -35q26 0 49 32t66 134l-185 426l-59 23v24h256v-24zM187 716q29 0 50.5 -21t21.5 -49
q0 -30 -21.5 -50.5t-50.5 -20.5t-49.5 20.5t-20.5 50.5q0 28 20.5 49t49.5 21zM400 716q29 0 50.5 -21t21.5 -49q0 -30 -21.5 -50.5t-50.5 -20.5q-30 0 -50 20.5t-20 50.5q0 28 20.5 49t49.5 21z" />
    <glyph glyph-name="dotlessi" unicode="&#x131;" horiz-adv-x="302" 
d="M282 0h-250v24l63 19v365l-63 10v27l187 43v-445l63 -19v-24z" />
    <glyph glyph-name="Lslash" unicode="&#x141;" horiz-adv-x="600" 
d="M256 619v-248l118 31v-57l-118 -31v-272h212l64 164h28l-9 -206h-511v29l79 22v226l-74 -19v57l74 19v285l-79 22v29h295v-29z" />
    <glyph glyph-name="lslash" unicode="&#x142;" horiz-adv-x="316" 
d="M30 301v57l63 25v266l-63 10v27l187 40v-293l74 30v-57l-74 -30v-333l63 -19v-24h-250v24l63 19v283z" />
    <glyph glyph-name="OE" unicode="&#x152;" horiz-adv-x="950" 
d="M803 42l64 159h28l-9 -201h-483q-174 0 -261 77.5t-87 255.5q0 159 95.5 248t260.5 89h468v-179h-28l-56 137h-200v-256h115l35 99h26v-240h-26l-35 99h-115v-288h208zM417 40h41v591h-54q-105 0 -157 -81.5t-52 -212.5q0 -139 56 -218t166 -79z" />
    <glyph glyph-name="oe" unicode="&#x153;" horiz-adv-x="878" 
d="M284 -14q-107 0 -173 64t-66 172q0 123 65 194.5t176 71.5q116 0 182 -74q69 74 173 74q87 0 139.5 -47t52.5 -130q0 -20 -2 -32h-313v-17q0 -216 154 -216q73 0 142 52l17 -26q-93 -86 -207 -86q-115 0 -173 61q-63 -61 -167 -61zM286 17q54 0 81.5 58.5t27.5 161.5
q0 220 -111 220q-54 0 -81.5 -58.5t-27.5 -161.5q0 -220 111 -220zM636 456q-44 0 -75.5 -36.5t-40.5 -110.5h182q3 33 3 39q0 53 -15 80.5t-54 27.5z" />
    <glyph glyph-name="Scaron" unicode="&#x160;" horiz-adv-x="529" 
d="M446 498h-36q-13 67 -49.5 108t-93.5 41q-41 0 -72 -26.5t-31 -69.5q0 -33 17.5 -59.5t46 -45t62.5 -36t68 -37t62.5 -43t46 -60t17.5 -82.5q0 -90 -63.5 -146t-167.5 -56q-102 0 -194 45l-9 169h39q29 -177 168 -177q52 0 89 27.5t37 77.5q0 49 -33.5 83.5t-81.5 57.5
l-95.5 48t-81 68.5t-33.5 105.5q0 88 62.5 140.5t155.5 52.5q79 0 173 -32zM302 733h-51q-33 54 -101 133l32 25l94 -66l95 66l32 -25q-68 -79 -101 -133z" />
    <glyph glyph-name="scaron" unicode="&#x161;" horiz-adv-x="442" 
d="M405 140q0 -76 -53.5 -115t-137.5 -39q-71 0 -127.5 25t-56.5 66q0 32 25 51t64 21q7 -131 111 -131q38 0 62.5 17t24.5 48q0 25 -19.5 45.5t-49 33t-63.5 28.5t-63.5 32.5t-49 46t-19.5 66.5q0 76 51 114.5t128 38.5q70 0 114.5 -28.5t44.5 -71.5q0 -58 -100 -58
q-1 27 -4 46.5t-10 39.5t-22 30.5t-38 10.5q-34 0 -54 -19t-20 -54q0 -30 27 -52.5t65.5 -38t77 -33t65.5 -48t27 -72.5zM251 563h-50q-50 93 -101 162l32 20l94 -80l94 80l32 -20q-51 -69 -101 -162z" />
    <glyph glyph-name="Ydieresis" unicode="&#x178;" horiz-adv-x="714" 
d="M293 288l-201 331l-72 22v29h301v-29l-76 -23l161 -268l150 269l-74 22v29h212v-29l-80 -23l-185 -329v-238l83 -22v-29h-303v29l84 22v237zM280 873q29 0 50.5 -21t21.5 -49q0 -30 -21.5 -50.5t-50.5 -20.5q-30 0 -50 20t-20 51q0 28 20.5 49t49.5 21zM493 873
q29 0 50.5 -21t21.5 -49q0 -30 -21.5 -50.5t-50.5 -20.5t-49.5 20t-20.5 51q0 28 20.5 49t49.5 21z" />
    <glyph glyph-name="Zcaron" unicode="&#x17d;" horiz-adv-x="658" 
d="M608 206l-9 -206h-564v26l385 602h-268l-55 -137h-28v179h520v-26l-385 -602h312l64 164h28zM340 733h-51q-33 54 -101 133l32 25l94 -66l95 66l32 -25q-68 -79 -101 -133z" />
    <glyph glyph-name="zcaron" unicode="&#x17e;" horiz-adv-x="503" 
d="M450 0h-415v28l265 408h-161l-50 -101h-28l5 139h383v-26l-269 -410h200l51 105h27zM283 563h-50q-50 93 -101 162l32 20l94 -80l94 80l32 -20q-51 -69 -101 -162z" />
    <glyph glyph-name="florin" unicode="&#x192;" 
d="M121 366v48h95l2 20q8 73 52 126.5t98.5 76.5t109.5 23q35 0 35 -34q0 -20 -12.5 -41.5t-24.5 -30.5q-16 14 -43 26t-47 12q-22 0 -28.5 -15t-10.5 -59l-11 -104h121v-48h-126l-26 -256q-13 -131 -84.5 -196.5t-164.5 -65.5q-49 0 -49 39q0 17 11.5 36.5t23.5 30.5
q17 -18 42.5 -34.5t43.5 -16.5q24 0 33 32q6 20 15 100l35 331h-90z" />
    <glyph glyph-name="circumflex" unicode="&#x2c6;" horiz-adv-x="400" 
d="M175 740h50q50 -93 101 -162l-32 -20l-94 80l-94 -80l-32 20q51 69 101 162z" />
    <glyph glyph-name="caron" unicode="&#x2c7;" horiz-adv-x="400" 
d="M225 563h-50q-50 93 -101 162l32 20l94 -80l94 80l32 -20q-51 -69 -101 -162z" />
    <glyph glyph-name="breve" unicode="&#x2d8;" horiz-adv-x="400" 
d="M200 644q77 0 101 85l34 -10q0 -69 -36.5 -110.5t-98.5 -41.5t-98.5 41.5t-36.5 110.5l34 10q24 -85 101 -85z" />
    <glyph glyph-name="dotaccent" unicode="&#x2d9;" horiz-adv-x="400" 
d="M200 570q-32 0 -53.5 21t-21.5 53q0 30 22 51.5t53 21.5q32 0 53.5 -21t21.5 -53q0 -30 -22 -51.5t-53 -21.5z" />
    <glyph glyph-name="ring" unicode="&#x2da;" horiz-adv-x="400" 
d="M103 649q0 41 27.5 66t69.5 25q41 0 69 -25t28 -66t-28 -65.5t-69 -24.5q-42 0 -69.5 24.5t-27.5 65.5zM162 649q0 -27 11 -42t28 -15t28 15t11 42t-11 41.5t-28 14.5t-28 -14.5t-11 -41.5z" />
    <glyph glyph-name="ogonek" unicode="&#x2db;" horiz-adv-x="400" 
d="M233 0h43q-80 -71 -80 -150q0 -41 33 -41q26 0 51 19l16 -38q-43 -25 -90 -25q-46 0 -74 21.5t-28 60.5q0 49 37.5 90t91.5 63z" />
    <glyph glyph-name="tilde" unicode="&#x2dc;" horiz-adv-x="400" 
d="M313 721l37 -9q-12 -65 -32 -95.5t-55 -30.5q-20 0 -68 21t-63 21q-16 0 -25 -11t-20 -39l-37 9q12 65 32 95.5t55 30.5q20 0 68 -21t63 -21q16 0 25 11t20 39z" />
    <glyph glyph-name="hungarumlaut" unicode="&#x2dd;" horiz-adv-x="400" 
d="M220 554l-29 17q19 31 39.5 85.5t25.5 85.5q39 0 69.5 -9t30.5 -26q0 -25 -41.5 -68.5t-94.5 -84.5zM73 554l-29 17q19 31 39.5 85.5t25.5 85.5q39 0 69.5 -9t30.5 -26q0 -25 -41.5 -68.5t-94.5 -84.5z" />
    <glyph glyph-name="pi" unicode="&#x3c0;" horiz-adv-x="568" 
d="M524 534l30 -9q-34 -180 -129 -180q-8 0 -46 2q-8 -68 -8 -134q0 -68 26.5 -98t97.5 -40q-8 -45 -33 -67t-58 -22q-89 0 -89 161q0 62 23 204l-123 11q-24 -122 -24 -210q0 -97 41 -141q-13 -9 -38 -17t-43 -8q-38 0 -38 69q0 47 18 140.5t40 170.5q-6 0 -16 0.5t-14 0.5
q-39 0 -59.5 -15t-33.5 -56l-30 9q34 180 129 180q22 0 138 -11t146 -11q39 0 59.5 15t33.5 56z" />
    <glyph glyph-name="uni200A" unicode="&#x200a;" horiz-adv-x="50" 
 />
    <glyph glyph-name="endash" unicode="&#x2013;" horiz-adv-x="600" 
d="M565 215h-530v73h530v-73z" />
    <glyph glyph-name="emdash" unicode="&#x2014;" horiz-adv-x="900" 
d="M865 215h-830v73h830v-73z" />
    <glyph glyph-name="quoteleft" unicode="&#x2018;" horiz-adv-x="268" 
d="M131 410q-32 0 -53 22t-21 61q0 59 35 109t86 80l21 -27q-67 -48 -82 -104h15q29 0 49 -18t20 -50t-19.5 -52.5t-50.5 -20.5z" />
    <glyph glyph-name="quoteright" unicode="&#x2019;" horiz-adv-x="268" 
d="M137 684q32 0 53 -22t21 -61q0 -59 -35 -109t-86 -80l-21 27q67 48 82 104h-15q-29 0 -49 18t-20 50t19.5 52.5t50.5 20.5z" />
    <glyph glyph-name="quotesinglbase" unicode="&#x201a;" horiz-adv-x="268" 
d="M132 131q32 0 53 -22t21 -61q0 -59 -35 -109t-86 -80l-21 27q67 48 82 104h-15q-29 0 -49 18t-20 50t19.5 52.5t50.5 20.5z" />
    <glyph glyph-name="quotedblleft" unicode="&#x201c;" horiz-adv-x="458" 
d="M321 412q-32 0 -53 22t-21 61q0 59 35 109t86 80l21 -27q-67 -48 -82 -104h15q29 0 49 -18t20 -50t-19.5 -52.5t-50.5 -20.5zM131 412q-32 0 -53 22t-21 61q0 59 35 109t86 80l21 -27q-67 -48 -82 -104h15q29 0 49 -18t20 -50t-19.5 -52.5t-50.5 -20.5z" />
    <glyph glyph-name="quotedblright" unicode="&#x201d;" horiz-adv-x="458" 
d="M137 684q32 0 53 -22t21 -61q0 -59 -35 -109t-86 -80l-21 27q67 48 82 104h-15q-29 0 -49 18t-20 50t19.5 52.5t50.5 20.5zM327 684q32 0 53 -22t21 -61q0 -59 -35 -109t-86 -80l-21 27q67 48 82 104h-15q-29 0 -49 18t-20 50t19.5 52.5t50.5 20.5z" />
    <glyph glyph-name="quotedblbase" unicode="&#x201e;" horiz-adv-x="458" 
d="M132 131q32 0 53 -22t21 -61q0 -59 -35 -109t-86 -80l-21 27q67 48 82 104h-15q-29 0 -49 18t-20 50t19.5 52.5t50.5 20.5zM322 131q32 0 53 -22t21 -61q0 -59 -35 -109t-86 -80l-21 27q67 48 82 104h-15q-29 0 -49 18t-20 50t19.5 52.5t50.5 20.5z" />
    <glyph glyph-name="dagger" unicode="&#x2020;" horiz-adv-x="520" 
d="M310 -84h-100l18 492l-190 -16v90l190 -17l-18 205h100l-18 -205l190 17v-90l-190 16z" />
    <glyph glyph-name="daggerdbl" unicode="&#x2021;" horiz-adv-x="520" 
d="M226 177v231l-188 -16v90l190 -17l-18 205h100l-18 -205l190 17v-90l-188 16v-231l188 16v-90l-190 17l18 -205h-100l18 205l-190 -17v90z" />
    <glyph glyph-name="bullet" unicode="&#x2022;" horiz-adv-x="417" 
d="M207 171q-61 0 -103 42.5t-42 102.5q0 62 42 104.5t103 42.5q63 0 105 -42.5t42 -104.5q0 -60 -42 -102.5t-105 -42.5z" />
    <glyph glyph-name="ellipsis" unicode="&#x2026;" horiz-adv-x="750" 
d="M125 -14q-32 0 -53.5 21t-21.5 53q0 30 22 51.5t53 21.5q32 0 53.5 -21t21.5 -53q0 -30 -22 -51.5t-53 -21.5zM375 -14q-32 0 -53.5 21t-21.5 53q0 30 22 51.5t53 21.5q32 0 53.5 -21t21.5 -53q0 -30 -22 -51.5t-53 -21.5zM625 -14q-32 0 -53.5 21t-21.5 53q0 30 22 51.5
t53 21.5q32 0 53.5 -21t21.5 -53q0 -30 -22 -51.5t-53 -21.5z" />
    <glyph glyph-name="perthousand" unicode="&#x2030;" horiz-adv-x="1168" 
d="M190 -14l-50 35l464 639l50 -35zM197 343q-71 0 -114 45t-43 112q0 74 45 117t120 43q71 0 114 -45t43 -112q0 -74 -45 -117t-120 -43zM200 629q-76 0 -76 -128q0 -127 78 -127q76 0 76 128q0 127 -78 127zM588 -14q-71 0 -114 45t-43 112q0 74 45 117t120 43
q71 0 114 -45t43 -112q0 -74 -45 -117t-120 -43zM591 272q-76 0 -76 -128q0 -127 78 -127q76 0 76 128q0 127 -78 127zM963 -14q-71 0 -114 45t-43 112q0 74 45 117t120 43q71 0 114 -45t43 -112q0 -74 -45 -117t-120 -43zM966 272q-76 0 -76 -128q0 -127 78 -127
q76 0 76 128q0 127 -78 127z" />
    <glyph glyph-name="guilsinglleft" unicode="&#x2039;" horiz-adv-x="354" 
d="M176 246l118 -184l-26 -22l-223 206l223 206l26 -24z" />
    <glyph glyph-name="guilsinglright" unicode="&#x203a;" horiz-adv-x="354" 
d="M178 246l-118 184l26 22l223 -206l-223 -206l-26 24z" />
    <glyph glyph-name="fraction" unicode="&#x2044;" horiz-adv-x="200" 
d="M-107 -14l-50 35l464 639l50 -35z" />
    <glyph glyph-name="zero.sups" unicode="&#x2070;" horiz-adv-x="400" 
d="M373 538q0 -91 -46.5 -150t-126.5 -59q-83 0 -128 60t-45 149q0 91 46.5 150t126.5 59t126.5 -55.5t46.5 -153.5zM273 538q0 173 -72 173q-73 0 -73 -173t73 -173q72 0 72 173z" />
    <glyph glyph-name="four.sups" unicode="&#x2074;" horiz-adv-x="400" 
d="M376 452h-64v-72l60 -11v-32h-230v32l71 11v72h-191v24l258 267h32v-244h64v-47zM213 618l-118 -119h118v119z" />
    <glyph glyph-name="five.sups" unicode="&#x2075;" horiz-adv-x="400" 
d="M145 591q38 0 72.5 -6t69 -20t55 -42t20.5 -66q0 -61 -49.5 -94.5t-120.5 -33.5q-67 0 -110.5 23.5t-43.5 53.5q0 31 23.5 46.5t47.5 15.5q0 -43 21 -73t66 -30q81 0 81 59q0 90 -162 90h-52l24 223h210l14 34h23l-6 -120h-212l-6 -60h35z" />
    <glyph glyph-name="six.sups" unicode="&#x2076;" horiz-adv-x="400" 
d="M172 549l-5 29q40 16 70 16q64 0 97.5 -33t33.5 -86q0 -64 -49 -105t-121 -41t-118 42t-46 122q0 110 80.5 178.5t205.5 85.5l5 -29q-97 -32 -144.5 -88.5t-47.5 -142.5q0 -132 70 -132q37 0 53 30.5t16 62.5q0 9 -1 18.5t-5 24t-11 25.5t-21 19t-32 8q-11 0 -30 -4z" />
    <glyph glyph-name="seven.sups" unicode="&#x2077;" horiz-adv-x="400" 
d="M311 650h-230l-18 -49h-25l12 157h24l8 -21h298v-26l-174 -374h-131z" />
    <glyph glyph-name="eight.sups" unicode="&#x2078;" horiz-adv-x="400" 
d="M33 433q0 76 93 100q-77 46 -77 110q0 45 43.5 74.5t108.5 29.5q74 0 115 -23.5t41 -69.5q0 -62 -89 -90q47 -25 73.5 -53t26.5 -67q0 -49 -44 -82t-119 -33q-80 0 -126 27.5t-46 76.5zM283 420q0 9 -3.5 17t-10.5 15.5t-14.5 13.5t-20.5 13l-22 11.5l-25.5 12.5
t-25.5 12q-36 -33 -36 -78q0 -72 81 -72q30 0 53.5 13.5t23.5 41.5zM135 662q0 -12 6.5 -22t24.5 -21.5t28 -16.5l38 -19q37 32 37 75q0 53 -70 53q-64 0 -64 -49z" />
    <glyph glyph-name="nine.sups" unicode="&#x2079;" horiz-adv-x="400" 
d="M228 527l5 -29q-38 -16 -69 -16q-65 0 -98 32.5t-33 86.5q0 64 48.5 105t121.5 41q71 0 117 -42t46 -122q0 -111 -79 -179t-204 -85l-8 29q97 32 144.5 88.5t47.5 142.5q0 132 -70 132q-36 0 -52 -30.5t-16 -62.5q0 -12 2 -24.5t8 -30.5t21.5 -29t38.5 -11q12 0 29 4z
" />
    <glyph glyph-name="Euro" unicode="&#x20ac;" 
d="M37 354v48h51q18 128 89 193t167 65q40 0 86.5 -12t71.5 -24l4 -157h-38q-34 155 -122 155q-35 0 -61 -34t-39.5 -81t-19.5 -105h173v-48h-176v-57h176v-48h-173q18 -221 124 -221q52 0 77.5 42.5t37.5 132.5h41l-13 -175q-69 -42 -147 -42q-99 0 -170 69.5t-88 193.5
h-51v48h46v24q0 22 1 33h-47z" />
    <glyph glyph-name="trademark" unicode="&#x2122;" horiz-adv-x="1031" 
d="M929 339l52 -16v-24h-186v24l49 16v253l-132 -301h-26l-140 303v-255l48 -16v-24h-135v24l50 16v289l-50 15v27h155l112 -254l113 254h140v-27l-50 -15v-289zM283 339l53 -16v-24h-192v24l53 16v295h-82l-30 -87h-30v123h370v-123h-27l-32 87h-83v-295z" />
    <glyph glyph-name="Omega" unicode="&#x2126;" horiz-adv-x="782" 
d="M676 125l41 89h30l-16 -214h-286v85q139 128 139 310q0 69 -18.5 123t-63 89.5t-111.5 35.5t-111.5 -35.5t-63 -89.5t-18.5 -123q0 -182 139 -310v-85h-286l-16 214h30l41 -89h146q-90 59 -142 127t-52 165q0 69 27.5 121.5t74.5 83.5t105.5 46.5t125.5 15.5t125.5 -15.5
t105.5 -46.5t74.5 -83.5t27.5 -121.5q0 -97 -52 -165t-142 -127h146z" />
    <glyph glyph-name="partialdiff" unicode="&#x2202;" horiz-adv-x="549" 
d="M256 687q-68 0 -112 -117q-15 7 -33.5 26.5t-18.5 41.5q0 35 40 61.5t113 26.5q80 0 140 -52.5t89.5 -133.5t29.5 -176t-30.5 -180.5t-92 -141.5t-139.5 -56q-94 0 -145.5 47.5t-51.5 132.5q0 102 62.5 154.5t152.5 52.5q59 0 112 -28q2 40 2 60q0 48 -6 94t-19 90
t-37 71t-56 27zM246 23q48 0 79.5 82t43.5 197q-43 17 -87 17q-52 0 -83.5 -45.5t-31.5 -110.5q0 -58 19 -99t60 -41z" />
    <glyph glyph-name="Delta" unicode="&#x2206;" horiz-adv-x="688" 
d="M628 0h-573v38l275 646h31l267 -645v-39zM123 58h357l-173 429z" />
    <glyph glyph-name="product" unicode="&#x220f;" horiz-adv-x="734" 
d="M483 -65v694h-232v-694l79 -22v-29h-295v29l79 22v684l-79 22v29h664v-29l-79 -22v-684l79 -23v-28h-295v29z" />
    <glyph glyph-name="summation" unicode="&#x2211;" horiz-adv-x="590" 
d="M25 -116v39l238 329l-232 377v41h493v-173h-35l-43 128h-254l186 -297l-235 -319h327l35 103h35l-9 -228h-506z" />
    <glyph glyph-name="minus" unicode="&#x2212;" 
d="M500 271h-450v64h450v-64z" />
    <glyph glyph-name="radical" unicode="&#x221a;" 
d="M234 0l-157 373l-72 22v27h184l92 -245l194 590h58l-261 -767h-38z" />
    <glyph glyph-name="infinity" unicode="&#x221e;" horiz-adv-x="772" 
d="M210 501q108 0 172 -126q71 126 183 126q68 0 115 -52t47 -137t-48 -137t-117 -52q-108 0 -173 126q-69 -126 -182 -126q-68 0 -115 52t-47 137t48 137t117 52zM212 189q47 0 79 31.5t59 87.5q-60 128 -139 128q-46 0 -73 -36.5t-27 -87.5t26.5 -87t74.5 -36zM560 435
q-47 0 -78.5 -31.5t-59.5 -87.5q59 -128 139 -128q46 0 73 36.5t27 87.5t-26.5 87t-74.5 36z" />
    <glyph glyph-name="integral" unicode="&#x222b;" horiz-adv-x="424" 
d="M265 665q-24 0 -30.5 -16.5t-6.5 -48.5q0 -46 24 -263.5t24 -309.5q0 -113 -63.5 -187.5t-148.5 -74.5q-67 0 -67 43q0 36 41 72q15 -19 40.5 -36.5t45.5 -17.5q24 0 30.5 16.5t6.5 48.5q0 46 -24.5 263.5t-24.5 309.5q0 113 64 187.5t148 74.5q67 0 67 -43
q0 -36 -41 -72q-16 19 -40.5 36.5t-44.5 17.5z" />
    <glyph glyph-name="approxequal" unicode="&#x2248;" 
d="M444 464l56 -16q-14 -51 -41.5 -84.5t-71.5 -33.5q-41 0 -120.5 30t-98.5 30q-43 0 -62 -66l-56 16q14 51 41.5 84.5t71.5 33.5q41 0 120 -30t99 -30q43 0 62 66zM444 274l56 -16q-14 -51 -41.5 -84.5t-71.5 -33.5q-41 0 -120.5 30t-98.5 30q-43 0 -62 -66l-56 16
q14 51 41.5 84.5t71.5 33.5q41 0 120 -30t99 -30q43 0 62 66z" />
    <glyph glyph-name="notequal" unicode="&#x2260;" 
d="M94 78l61 97h-105v64h146l83 130h-229v64h270l61 96h77l-61 -96h103v-64h-144l-83 -130h227v-64h-268l-61 -97h-77z" />
    <glyph glyph-name="lessequal" unicode="&#x2264;" 
d="M75 309v50l367 195l29 -60l-304 -160l304 -160l-30 -60zM500 0h-450v64h450v-64z" />
    <glyph glyph-name="greaterequal" unicode="&#x2265;" 
d="M475 359v-50l-366 -195l-30 60l304 160l-304 160l29 60zM500 0h-450v64h450v-64z" />
    <glyph glyph-name="lozenge" unicode="&#x25ca;" 
d="M293 -14h-36l-233 337l233 337h36l233 -337zM276 72l168 250l-169 251l-168 -250z" />
    <glyph glyph-name="uniF8FF" unicode="&#xf8ff;" horiz-adv-x="3635" 
d="M526 474h167l-67 -427q-23 -146 -103 -213t-214 -67q-58 0 -110 17t-90.5 59t-38.5 103h187q3 -22 24 -34t47 -12q63 0 91.5 36t41.5 120q-69 -64 -160 -64q-90 0 -144 54.5t-54 141.5q0 114 83.5 207t202.5 93q91 0 128 -66h2zM371 134q53 0 89.5 36t36.5 89
q0 38 -24.5 62.5t-67.5 24.5q-53 0 -89.5 -36.5t-36.5 -90.5q0 -38 24 -61.5t68 -23.5zM1008 131q53 0 89 35t36 89q0 38 -24.5 63t-67.5 25q-52 0 -88.5 -36t-36.5 -90q0 -39 24 -62.5t68 -23.5zM1164 474h167l-75 -474h-167l8 54h-1q-54 -68 -153 -68q-92 0 -146.5 59.5
t-54.5 148.5q0 112 80.5 203t197.5 91q42 0 79 -16t57 -46zM1432 474h167l-9 -63h1q65 77 163 77q150 0 150 -145q0 -21 -5 -58l-45 -285h-167l35 222q8 53 8 72q0 61 -62 61q-87 0 -105 -111l-38 -244h-167zM2485 0h-167l8 54h-2q-26 -34 -67.5 -51t-85.5 -17
q-91 0 -146 59t-55 148q0 111 81.5 203t197.5 92q42 0 79 -16t57 -46l53 337h167zM2589 0l121 763h167l-56 -351h2q69 76 162 76q75 0 112.5 -39.5t37.5 -109.5q0 -26 -4 -50l-46 -289h-167l39 243q4 26 4 43q0 69 -62 69q-46 0 -71.5 -32.5t-33.5 -79.5l-38 -243h-167z
M3261 474h167l-75 -474h-167zM3358 559q-35 0 -57.5 23t-22.5 57q0 41 32.5 74t76.5 33q35 0 57.5 -22.5t22.5 -56.5q0 -42 -33 -75t-76 -33zM741 -233v152h19v-152h-19zM806 -103v22h18v-22h-18zM806 -233v110h18v-110h-18zM887 -233h-18v152h19v-54q12 14 30 14
q23 0 35 -16.5t12 -38.5q0 -25 -13 -42t-35 -17q-20 0 -30 16v-14zM916 -220q15 0 22.5 13.5t7.5 28.5q0 42 -29 42q-30 0 -30 -42t29 -42zM996 -233v110h16v-17q10 19 24 19q10 0 19 -6l-6 -17q-6 4 -14 4q-21 0 -21 -35v-58h-18zM1123 -235q-51 1 -51 57q0 26 13.5 41.5
t37.5 15.5t38 -15t14 -40q0 -59 -52 -59zM1123 -220q33 0 33 43q0 19 -9.5 30t-23.5 11q-32 0 -32 -42t32 -42zM1202 -200l18 3q3 -23 29 -23q25 0 25 17q0 10 -17 14t-34.5 11.5t-17.5 25.5q0 31 40 31t44 -30l-18 -3q-6 18 -24 18q-24 0 -24 -14q0 -2 0.5 -3.5t1 -2.5
t1.5 -2t3 -2l3 -1.5t4 -1.5l4.5 -1.5t5.5 -1t6 -1.5q21 -5 31 -12t10 -22q0 -16 -12.5 -25t-31.5 -9q-41 0 -47 35zM1369 -195h-25v26h25v-26zM1443 -233h-18v110h16v-15q14 17 34 17q22 0 31 -19q12 19 33 19q34 0 34 -36v-76h-18v71q0 25 -20 25q-27 0 -27 -31v-65h-18v72
q0 24 -20 24q-27 0 -27 -37v-59zM1700 -233h-17v16q-12 -18 -34 -18q-38 0 -38 40v72h19v-70q0 -26 22 -26q29 0 29 34v62h19v-110zM1660 -109h-16l14 29h24zM1881 -103h-19v22h19v-22zM1881 -233h-19v110h19v-110zM1994 -193l18 -2q-6 -40 -46 -40q-25 0 -37.5 15.5
t-12.5 41.5t12.5 41.5t37.5 15.5q38 0 44 -34l-18 -3q-5 22 -26 22q-30 0 -30 -42t30 -42q22 0 28 27zM2114 -219q-19 -16 -40 -16q-38 0 -38 31q0 18 13.5 25.5t35 10t28.5 5.5v6q0 21 -27 21q-23 0 -28 -21l-18 3q7 33 48 33q44 0 44 -35v-41q0 -27 5 -36h-19q-2 4 -4 14z
M2113 -188v10q-6 -3 -21.5 -5t-25.5 -6t-10 -14q0 -18 22 -18q15 0 25 8.5t10 24.5zM2316 -233h-18l-41 110h19l31 -88l31 88h19zM2407 -103h-19v22h19v-22zM2407 -233h-19v110h19v-110zM2651 -197l20 -3q-12 -35 -49 -35q-52 0 -52 56q0 27 13.5 42.5t37.5 15.5t37 -16
t13 -38v-8h-82q1 -15 10 -26t23 -11q24 0 29 23zM2590 -167h62q-3 31 -30 31q-28 0 -32 -31zM3206 -233h-19v95h-16v15h16v14q0 30 30 30q12 0 18 -2l-3 -16q-6 1 -13 1q-13 0 -13 -17v-10h21v-15h-21v-95zM3308 -109h-15l13 29h25zM3498 -4q-28 0 -47.5 18.5t-19.5 47.5
t19.5 47t47.5 18t47.5 -18t19.5 -47t-19.5 -47.5t-47.5 -18.5zM3498 10q20 0 34.5 15t14.5 37t-14.5 36.5t-34.5 14.5t-34.5 -14.5t-14.5 -36.5t14.5 -37t34.5 -15zM3486 25h-14v73h28q28 0 28 -21q0 -18 -19 -20l20 -32h-16l-17 31h-10v-31zM3499 87h-13v-19h13q15 0 15 10
q0 9 -15 9zM2211 -195h-25v26h25v-26zM2877 -195h-26v26h26v-26zM2236 131q53 0 89 35t36 89q0 38 -24.5 63t-67.5 25q-52 0 -88.5 -36t-36.5 -90q0 -39 24 -62.5t68 -23.5zM1734 -200l18 3q3 -23 29 -23q25 0 25 17q0 10 -17 14t-34.5 11.5t-17.5 25.5q0 31 40 31t44 -30
l-18 -3q-6 18 -24 18q-24 0 -24 -14q0 -2 0.5 -3.5t1 -2.5t1.5 -2t3 -2l3 -1.5t4 -1.5l4.5 -1.5t5.5 -1t6 -1.5q21 -5 31 -12t10 -22q0 -16 -12.5 -25t-31.5 -9q-41 0 -47 35zM2537 -233h-18v14q-10 -16 -30 -16q-22 0 -35 16t-13 43q0 22 12 38.5t35 16.5q18 0 30 -14v54
h19v-152zM2490 -220q30 0 30 42q0 18 -8 30t-23 12q-29 0 -29 -42t30 -42zM2751 -235q-51 1 -51 57q0 26 13.5 41.5t37.5 15.5t38 -15t14 -40q0 -59 -52 -59zM2751 -220q33 0 33 43q0 19 -9.5 30t-23.5 11q-32 0 -32 -42t32 -42zM3002 -193l18 -2q-6 -40 -46 -40
q-25 0 -37.5 15.5t-12.5 41.5t12.5 41.5t37.5 15.5q38 0 44 -34l-18 -3q-5 22 -26 22q-30 0 -30 -42t30 -42q22 0 28 27zM3123 -219q-19 -16 -40 -16q-38 0 -38 31q0 18 13.5 25.5t35 10t28.5 5.5v6q0 21 -27 21q-23 0 -28 -21l-18 3q7 33 48 33q44 0 44 -35v-41
q0 -27 5 -36h-19q-2 4 -4 14zM3122 -188v10q-6 -3 -21.5 -5t-25.5 -6t-10 -14q0 -18 22 -18q15 0 25 8.5t10 24.5zM3333 -197l20 -3q-12 -35 -49 -35q-52 0 -52 56q0 27 13.5 42.5t37.5 15.5t37 -16t13 -38v-8h-82q1 -15 10 -26t23 -11q24 0 29 23zM3272 -167h62
q-3 31 -30 31q-28 0 -32 -31z" />
    <glyph glyph-name="fi" unicode="&#xfb01;" horiz-adv-x="655" 
d="M222 44l65 -20v-24h-252v24l64 20v385h-64v45h64v29q1 92 78 157.5t152 65.5q39 0 39 -39q0 -36 -29 -67q-52 34 -92 34q-39 0 -39 -50q0 -58 14 -130h91v-45h-91v-385zM509 570q-32 0 -53.5 21t-21.5 53q0 30 22 51.5t53 21.5q32 0 53.5 -21t21.5 -53q0 -30 -22 -51.5
t-53 -21.5zM635 0h-250v24l63 19v365l-63 10v27l187 43v-445l63 -19v-24z" />
    <glyph glyph-name="fl" unicode="&#xfb02;" horiz-adv-x="663" 
d="M222 44l65 -20v-24h-252v24l64 20v385h-64v45h64v29q1 92 78 157.5t152 65.5q39 0 39 -39q0 -36 -29 -67q-52 34 -92 34q-39 0 -39 -50q0 -58 14 -130h91v-45h-91v-385zM633 0h-250v24l63 19v606l-63 10v27l187 40v-683l63 -19v-24z" />
    <glyph glyph-name="a.smcp" horiz-adv-x="626" 
d="M381 44l-42 105h-152l-47 -107l48 -15v-27h-153v27l60 16l210 470h28l196 -470l59 -17v-26h-252v26zM267 332l-63 -143h119z" />
    <glyph glyph-name="b.smcp" horiz-adv-x="558" 
d="M46 0v26l52 15v421l-52 15v26h233q43 0 75 -4.5t62.5 -16t47 -36t16.5 -60.5q0 -32 -13 -55t-37.5 -36.5t-50 -20.5t-59.5 -11q84 -1 135.5 -33.5t51.5 -95.5q0 -134 -224 -134h-237zM233 281h25q46 0 66 27.5t20 69.5q0 95 -75 95q-26 0 -36 -5v-187zM369 137
q0 50 -28 78.5t-86 28.5h-22v-207q11 -6 30 -6q33 0 55.5 11t32.5 29t14 33.5t4 32.5z" />
    <glyph glyph-name="c.smcp" horiz-adv-x="590" 
d="M528 146l-10 -125q-79 -35 -170 -35q-290 0 -290 263q0 72 23 125t64 83.5t91 45t109 14.5q45 0 96.5 -10.5t79.5 -21.5l4 -125h-31q-37 125 -141 125q-78 0 -118 -62.5t-40 -162.5q0 -242 158 -242q54 0 92 34t49 94h34z" />
    <glyph glyph-name="d.smcp" horiz-adv-x="654" 
d="M46 0v26l52 15v421l-52 15v26h269q140 0 210.5 -57.5t70.5 -181.5q0 -264 -291 -264h-259zM459 257q0 43 -6.5 77t-24 66.5t-53 50.5t-87.5 18h-55v-433h54q87 0 129.5 58.5t42.5 162.5z" />
    <glyph glyph-name="e.smcp" horiz-adv-x="511" 
d="M46 0v26l52 15v421l-52 15v26h394v-139h-23l-49 105h-135v-188h73l27 74h23v-184h-23l-27 74h-73v-210h145l50 116h25l-7 -151h-400z" />
    <glyph glyph-name="f.smcp" horiz-adv-x="490" 
d="M233 41l50 -16v-25h-237v26l52 15v421l-52 15v26h397v-141h-23l-49 107h-138v-188h72l27 74h23v-184h-23l-27 74h-72v-204z" />
    <glyph glyph-name="g.smcp" horiz-adv-x="633" 
d="M416 24v166l-52 14v27h236v-27l-52 -14v-165q-24 -15 -89.5 -27t-106.5 -12q-294 0 -294 263q0 74 24 128t67 83.5t93 43t110 13.5q51 0 106 -11t82 -23l5 -123h-32q-40 125 -160 125q-57 0 -94 -35.5t-50.5 -84t-13.5 -108.5q0 -239 157 -239q4 0 64 6z" />
    <glyph glyph-name="h.smcp" horiz-adv-x="673" 
d="M575 462v-421l51 -15v-26h-238v26l52 15v202h-207v-202l51 -15v-26h-238v26l52 15v421l-52 15v26h238v-26l-51 -15v-180h207v180l-52 15v26h238v-26z" />
    <glyph glyph-name="i.smcp" horiz-adv-x="331" 
d="M233 462v-421l52 -15v-26h-239v26l52 15v421l-52 15v26h239v-26z" />
    <glyph glyph-name="j.smcp" horiz-adv-x="341" 
d="M41 -72l-13 27q52 28 68.5 54.5t16.5 93.5v359l-52 15v26h238v-26l-51 -15v-325q0 -82 -48 -133t-159 -76z" />
    <glyph glyph-name="k.smcp" horiz-adv-x="616" 
d="M359 316l181 -266q17 -24 45 -24v-28q-65 -12 -118 -12q-31 0 -48 9.5t-32 32.5l-148 229l214 205l-47 14v27h172v-27l-59 -13zM233 462v-421l51 -15v-26h-238v26l52 15v421l-52 15v26h238v-26z" />
    <glyph glyph-name="l.smcp" horiz-adv-x="505" 
d="M233 462v-427h150l50 123h25l-7 -158h-405v26l52 15v421l-52 15v26h234v-26z" />
    <glyph glyph-name="m.smcp" horiz-adv-x="769" 
d="M671 42l51 -16v-26h-238v26l54 16v370l-175 -419h-37l-184 422v-373l51 -16v-26h-151v26l52 16v420l-52 15v26h199l145 -346l144 346h192v-26l-51 -15v-420z" />
    <glyph glyph-name="n.smcp" horiz-adv-x="604" 
d="M511 -7h-40l-329 416v-367l51 -16v-26h-151v26l52 16v420l-52 15v26h187l234 -294v252l-48 16v26h146v-26l-50 -16v-468z" />
    <glyph glyph-name="o.smcp" horiz-adv-x="659" 
d="M335 18q35 0 61 21t40 56t20.5 73.5t6.5 81.5q0 116 -35.5 176t-101.5 60q-64 0 -97 -64t-33 -169q0 -235 139 -235zM330 -14q-131 0 -201.5 71t-70.5 193q0 117 75.5 192t202.5 75q130 0 197.5 -74t67.5 -193q0 -113 -73 -188.5t-198 -75.5z" />
    <glyph glyph-name="p.smcp" horiz-adv-x="524" 
d="M98 41v421l-52 15v26h218q110 0 163.5 -26.5t53.5 -97.5q0 -44 -19.5 -76t-52.5 -48t-69.5 -23.5t-77.5 -7.5h-8v25q92 19 92 123q0 101 -79 101q-16 0 -34 -5v-428l56 -14v-26h-243v26z" />
    <glyph glyph-name="q.smcp" horiz-adv-x="659" 
d="M468 -176q-35 0 -64.5 13t-55.5 39.5t-43.5 51t-41.5 64.5q-100 17 -152.5 85t-52.5 173q0 117 75.5 192t202.5 75q130 0 197.5 -74t67.5 -193q0 -92 -50 -161t-138 -92q27 -39 47 -64t51 -48.5t58 -23.5h18v-26q-51 -11 -119 -11zM335 18q35 0 61 21t40 56t20.5 73.5
t6.5 81.5q0 116 -35.5 176t-101.5 60q-64 0 -97 -64t-33 -169q0 -235 139 -235z" />
    <glyph glyph-name="r.smcp" horiz-adv-x="571" 
d="M98 41v421l-52 16v25h219q105 0 158.5 -25t53.5 -96q0 -60 -46 -97t-135 -41q48 -4 74.5 -21.5t47.5 -53.5l66 -113q14 -24 64 -33v-26q-29 -11 -108 -11q-59 0 -85 51l-87 170q-14 28 -30 28h-5v-195l49 -14v-26h-236v26zM233 467v-202h19q52 0 72.5 27.5t20.5 79.5
q0 101 -77 101q-13 0 -35 -6z" />
    <glyph glyph-name="s.smcp" horiz-adv-x="442" 
d="M397 150q0 -72 -49.5 -118t-129.5 -46q-42 0 -88.5 10.5t-73.5 27.5l-7 128h33q8 -60 43 -97t91 -37q39 0 65 20t26 56q0 32 -26 55t-63.5 38.5t-75 33.5t-63.5 53t-26 86q0 73 52.5 115t129.5 42t135 -22l-3 -118h-29q-12 49 -40.5 78t-69.5 29q-33 0 -55 -19.5
t-22 -56.5q0 -32 25.5 -54t61.5 -37.5t72 -33.5t61.5 -51.5t25.5 -81.5z" />
    <glyph glyph-name="t.smcp" horiz-adv-x="561" 
d="M160 0v26l53 15v428h-95l-49 -106h-23v140h469v-140h-23l-49 106h-95v-428l54 -15v-26h-242z" />
    <glyph glyph-name="u.smcp" horiz-adv-x="609" 
d="M574 477l-51 -15v-281q0 -96 -54 -145.5t-147 -49.5q-35 0 -62 2.5t-61 13.5t-56 29t-37.5 52.5t-15.5 81.5v297l-52 15v26h238v-26l-51 -15v-303q0 -129 114 -129q62 0 100 37.5t38 110.5v284l-52 15v26h149v-26z" />
    <glyph glyph-name="v.smcp" horiz-adv-x="601" 
d="M281 -7l-191 469l-52 15v26h253v-26l-51 -15l104 -285l122 285l-52 14v27h153v-27l-51 -14l-201 -469h-34z" />
    <glyph glyph-name="w.smcp" horiz-adv-x="890" 
d="M575 -7l-129 346l-145 -346h-30l-180 469l-53 15v26h253v-26l-52 -17l95 -273l89 215l-22 60l-51 15v26h247v-26l-54 -17l94 -268l107 270l-55 14v27h167v-27l-60 -14l-192 -469h-29z" />
    <glyph glyph-name="x.smcp" horiz-adv-x="614" 
d="M253 460l89 -138l110 140l-52 13v28h158v-28l-49 -11l-144 -177l159 -245l52 -16v-26h-253v26l52 17l-99 150l-128 -153l53 -14v-26h-163v26l54 17l161 185l-154 236l-49 13v26h253v-27z" />
    <glyph glyph-name="y.smcp" horiz-adv-x="593" 
d="M235 221l-149 241l-55 15v26h254v-27l-49 -15l114 -189l107 190l-51 14v27h156v-27l-58 -15l-136 -241v-179l53 -15v-26h-240v26l54 15v180z" />
    <glyph glyph-name="z.smcp" horiz-adv-x="568" 
d="M514 158l-7 -158h-465v24l292 445h-191l-47 -104h-23v138h425v-25l-292 -442h234l49 122h25z" />
    <glyph glyph-name="aacute.smcp" horiz-adv-x="626" 
d="M381 44l-42 105h-152l-47 -107l48 -15v-27h-153v27l60 16l210 470h28l196 -470l59 -17v-26h-252v26zM267 332l-63 -143h119zM273 578l-30 18q60 95 81 166q99 0 99 -35q0 -20 -52.5 -69.5t-97.5 -79.5z" />
    <glyph glyph-name="agrave.smcp" horiz-adv-x="626" 
d="M381 44l-42 105h-152l-47 -107l48 -15v-27h-153v27l60 16l210 470h28l196 -470l59 -17v-26h-252v26zM267 332l-63 -143h119zM401 596l-30 -18q-45 30 -97.5 79.5t-52.5 69.5q0 35 99 35q21 -71 81 -166z" />
    <glyph glyph-name="acircumflex.smcp" horiz-adv-x="626" 
d="M381 44l-42 105h-152l-47 -107l48 -15v-27h-153v27l60 16l210 470h28l196 -470l59 -17v-26h-252v26zM267 332l-63 -143h119zM294 760h50q50 -93 101 -162l-32 -20l-94 80l-94 -80l-32 20q51 69 101 162z" />
    <glyph glyph-name="atilde.smcp" horiz-adv-x="626" 
d="M381 44l-42 105h-152l-47 -107l48 -15v-27h-153v27l60 16l210 470h28l196 -470l59 -17v-26h-252v26zM267 332l-63 -143h119zM434 741l37 -9q-12 -65 -32 -95.5t-55 -30.5q-20 0 -68 21t-63 21q-16 0 -25 -11t-20 -39l-37 9q12 65 32 95.5t55 30.5q20 0 68 -21t63 -21
q16 0 25 11t20 39z" />
    <glyph glyph-name="adieresis.smcp" horiz-adv-x="626" 
d="M381 44l-42 105h-152l-47 -107l48 -15v-27h-153v27l60 16l210 470h28l196 -470l59 -17v-26h-252v26zM267 332l-63 -143h119zM211 736q29 0 50.5 -21t21.5 -49q0 -30 -21.5 -50.5t-50.5 -20.5t-49.5 20.5t-20.5 50.5q0 28 20.5 49t49.5 21zM424 736q29 0 50.5 -21
t21.5 -49q0 -30 -21.5 -50.5t-50.5 -20.5q-30 0 -50 20.5t-20 50.5q0 28 20.5 49t49.5 21z" />
    <glyph glyph-name="aring.smcp" horiz-adv-x="626" 
d="M381 44l-42 105h-152l-47 -107l48 -15v-27h-153v27l60 16l210 470h28l196 -470l59 -17v-26h-252v26zM267 332l-63 -143h119zM222 669q0 41 27.5 66t69.5 25q41 0 69 -25t28 -66t-28 -65.5t-69 -24.5q-42 0 -69.5 24.5t-27.5 65.5zM281 669q0 -27 11 -42t28 -15t28 15
t11 42t-11 41.5t-28 14.5t-28 -14.5t-11 -41.5z" />
    <glyph glyph-name="ccedilla.smcp" horiz-adv-x="590" 
d="M415 -138q0 -41 -32.5 -69t-85.5 -28q-47 0 -85 20l19 39q26 -16 57 -16q16 0 28 9t12 24q0 36 -80 36l-11 26l66 85q-245 19 -245 261q0 72 23 125t64 83.5t91 45t109 14.5q45 0 96.5 -10.5t79.5 -21.5l4 -125h-31q-37 125 -141 125q-78 0 -118 -62.5t-40 -162.5
q0 -242 158 -242q54 0 92 34t49 94h34l-10 -125q-73 -32 -161 -35l-42 -45q100 -8 100 -79z" />
    <glyph glyph-name="eacute.smcp" horiz-adv-x="511" 
d="M46 0v26l52 15v421l-52 15v26h394v-139h-23l-49 105h-135v-188h73l27 74h23v-184h-23l-27 74h-73v-210h145l50 116h25l-7 -151h-400zM209 578l-30 18q60 95 81 166q99 0 99 -35q0 -20 -52.5 -69.5t-97.5 -79.5z" />
    <glyph glyph-name="egrave.smcp" horiz-adv-x="511" 
d="M46 0v26l52 15v421l-52 15v26h394v-139h-23l-49 105h-135v-188h73l27 74h23v-184h-23l-27 74h-73v-210h145l50 116h25l-7 -151h-400zM319 596l-30 -18q-45 30 -97.5 79.5t-52.5 69.5q0 35 99 35q21 -71 81 -166z" />
    <glyph glyph-name="ecircumflex.smcp" horiz-adv-x="511" 
d="M46 0v26l52 15v421l-52 15v26h394v-139h-23l-49 105h-135v-188h73l27 74h23v-184h-23l-27 74h-73v-210h145l50 116h25l-7 -151h-400zM232 760h50q50 -93 101 -162l-32 -20l-94 80l-94 -80l-32 20q51 69 101 162z" />
    <glyph glyph-name="edieresis.smcp" horiz-adv-x="511" 
d="M46 0v26l52 15v421l-52 15v26h394v-139h-23l-49 105h-135v-188h73l27 74h23v-184h-23l-27 74h-73v-210h145l50 116h25l-7 -151h-400zM146 736q29 0 50.5 -21t21.5 -49q0 -30 -21.5 -50.5t-50.5 -20.5q-30 0 -50 20.5t-20 50.5q0 28 20.5 49t49.5 21zM359 736
q29 0 50.5 -21t21.5 -49q0 -30 -21.5 -50.5t-50.5 -20.5t-49.5 20.5t-20.5 50.5q0 28 20.5 49t49.5 21z" />
    <glyph glyph-name="iacute.smcp" horiz-adv-x="331" 
d="M233 462v-421l52 -15v-26h-239v26l52 15v421l-52 15v26h239v-26zM128 578l-30 18q60 95 81 166q99 0 99 -35q0 -20 -52.5 -69.5t-97.5 -79.5z" />
    <glyph glyph-name="igrave.smcp" horiz-adv-x="331" 
d="M233 462v-421l52 -15v-26h-239v26l52 15v421l-52 15v26h239v-26zM232 596l-30 -18q-45 30 -97.5 79.5t-52.5 69.5q0 35 99 35q21 -71 81 -166z" />
    <glyph glyph-name="icircumflex.smcp" horiz-adv-x="331" 
d="M233 462v-421l52 -15v-26h-239v26l52 15v421l-52 15v26h239v-26zM141 760h50q50 -93 101 -162l-32 -20l-94 80l-94 -80l-32 20q51 69 101 162z" />
    <glyph glyph-name="idieresis.smcp" horiz-adv-x="331" 
d="M233 462v-421l52 -15v-26h-239v26l52 15v421l-52 15v26h239v-26zM59 736q29 0 50.5 -21t21.5 -49q0 -30 -21.5 -50.5t-50.5 -20.5t-49.5 20.5t-20.5 50.5q0 28 20.5 49t49.5 21zM272 736q29 0 50.5 -21t21.5 -49q0 -30 -21.5 -50.5t-50.5 -20.5q-30 0 -50 20.5t-20 50.5
q0 28 20.5 49t49.5 21z" />
    <glyph glyph-name="dotlessi.smcp" horiz-adv-x="331" 
d="M233 462v-421l52 -15v-26h-239v26l52 15v421l-52 15v26h239v-26z" />
    <glyph glyph-name="lslash.smcp" horiz-adv-x="509" 
d="M237 462v-171l101 26v-57l-101 -26v-199h150l50 123h25l-7 -158h-405v26l52 15v159l-50 -13v57l50 13v205l-52 15v26h234v-26z" />
    <glyph glyph-name="ntilde.smcp" horiz-adv-x="604" 
d="M511 -7h-40l-329 416v-367l51 -16v-26h-151v26l52 16v420l-52 15v26h187l234 -294v252l-48 16v26h146v-26l-50 -16v-468zM420 741l37 -9q-12 -65 -32 -95.5t-55 -30.5q-20 0 -68 21t-63 21q-16 0 -25 -11t-20 -39l-37 9q12 65 32 95.5t55 30.5q20 0 68 -21t63 -21
q16 0 25 11t20 39z" />
    <glyph glyph-name="oacute.smcp" horiz-adv-x="659" 
d="M335 18q35 0 61 21t40 56t20.5 73.5t6.5 81.5q0 116 -35.5 176t-101.5 60q-64 0 -97 -64t-33 -169q0 -235 139 -235zM330 -14q-131 0 -201.5 71t-70.5 193q0 117 75.5 192t202.5 75q130 0 197.5 -74t67.5 -193q0 -113 -73 -188.5t-198 -75.5zM267 578l-30 18
q60 95 81 166q99 0 99 -35q0 -20 -52.5 -69.5t-97.5 -79.5z" />
    <glyph glyph-name="ograve.smcp" horiz-adv-x="659" 
d="M335 18q35 0 61 21t40 56t20.5 73.5t6.5 81.5q0 116 -35.5 176t-101.5 60q-64 0 -97 -64t-33 -169q0 -235 139 -235zM330 -14q-131 0 -201.5 71t-70.5 193q0 117 75.5 192t202.5 75q130 0 197.5 -74t67.5 -193q0 -113 -73 -188.5t-198 -75.5zM422 596l-30 -18
q-45 30 -97.5 79.5t-52.5 69.5q0 35 99 35q21 -71 81 -166z" />
    <glyph glyph-name="ocircumflex.smcp" horiz-adv-x="659" 
d="M335 18q35 0 61 21t40 56t20.5 73.5t6.5 81.5q0 116 -35.5 176t-101.5 60q-64 0 -97 -64t-33 -169q0 -235 139 -235zM330 -14q-131 0 -201.5 71t-70.5 193q0 117 75.5 192t202.5 75q130 0 197.5 -74t67.5 -193q0 -113 -73 -188.5t-198 -75.5zM304 760h50q50 -93 101 -162
l-32 -20l-94 80l-94 -80l-32 20q51 69 101 162z" />
    <glyph glyph-name="otilde.smcp" horiz-adv-x="659" 
d="M335 18q35 0 61 21t40 56t20.5 73.5t6.5 81.5q0 116 -35.5 176t-101.5 60q-64 0 -97 -64t-33 -169q0 -235 139 -235zM330 -14q-131 0 -201.5 71t-70.5 193q0 117 75.5 192t202.5 75q130 0 197.5 -74t67.5 -193q0 -113 -73 -188.5t-198 -75.5zM448 741l37 -9
q-12 -65 -32 -95.5t-55 -30.5q-20 0 -68 21t-63 21q-16 0 -25 -11t-20 -39l-37 9q12 65 32 95.5t55 30.5q20 0 68 -21t63 -21q16 0 25 11t20 39z" />
    <glyph glyph-name="odieresis.smcp" horiz-adv-x="659" 
d="M335 18q35 0 61 21t40 56t20.5 73.5t6.5 81.5q0 116 -35.5 176t-101.5 60q-64 0 -97 -64t-33 -169q0 -235 139 -235zM330 -14q-131 0 -201.5 71t-70.5 193q0 117 75.5 192t202.5 75q130 0 197.5 -74t67.5 -193q0 -113 -73 -188.5t-198 -75.5zM226 736q29 0 50.5 -21
t21.5 -49q0 -30 -21.5 -50.5t-50.5 -20.5q-30 0 -50 20.5t-20 50.5q0 28 20.5 49t49.5 21zM439 736q29 0 50.5 -21t21.5 -49q0 -30 -21.5 -50.5t-50.5 -20.5t-49.5 20.5t-20.5 50.5q0 28 20.5 49t49.5 21z" />
    <glyph glyph-name="oslash.smcp" horiz-adv-x="659" 
d="M330 -14q-79 0 -140 28l-28 -39h-63l47 66q-88 70 -88 209q0 117 75.5 192t202.5 75q76 0 132 -28l29 40h64l-49 -67q89 -73 89 -212q0 -113 -73 -188.5t-198 -75.5zM196 253q0 -75 14 -124l215 300q-35 57 -99 57t-97 -64t-33 -169zM335 18q35 0 61 21t40 56t20.5 73.5
t6.5 81.5q0 72 -14 123l-216 -299q36 -56 102 -56z" />
    <glyph glyph-name="scaron.smcp" horiz-adv-x="442" 
d="M397 150q0 -72 -49.5 -118t-129.5 -46q-42 0 -88.5 10.5t-73.5 27.5l-7 128h33q8 -60 43 -97t91 -37q39 0 65 20t26 56q0 32 -26 55t-63.5 38.5t-75 33.5t-63.5 53t-26 86q0 73 52.5 115t129.5 42t135 -22l-3 -118h-29q-12 49 -40.5 78t-69.5 29q-33 0 -55 -19.5
t-22 -56.5q0 -32 25.5 -54t61.5 -37.5t72 -33.5t61.5 -51.5t25.5 -81.5zM248 583h-50q-50 93 -101 162l32 20l94 -80l94 80l32 -20q-51 -69 -101 -162z" />
    <glyph glyph-name="uacute.smcp" horiz-adv-x="609" 
d="M574 477l-51 -15v-281q0 -96 -54 -145.5t-147 -49.5q-35 0 -62 2.5t-61 13.5t-56 29t-37.5 52.5t-15.5 81.5v297l-52 15v26h238v-26l-51 -15v-303q0 -129 114 -129q62 0 100 37.5t38 110.5v284l-52 15v26h149v-26zM304 578l-30 18q60 95 81 166q99 0 99 -35
q0 -20 -52.5 -69.5t-97.5 -79.5z" />
    <glyph glyph-name="ugrave.smcp" horiz-adv-x="609" 
d="M574 477l-51 -15v-281q0 -96 -54 -145.5t-147 -49.5q-35 0 -62 2.5t-61 13.5t-56 29t-37.5 52.5t-15.5 81.5v297l-52 15v26h238v-26l-51 -15v-303q0 -129 114 -129q62 0 100 37.5t38 110.5v284l-52 15v26h149v-26zM384 596l-30 -18q-45 30 -97.5 79.5t-52.5 69.5
q0 35 99 35q21 -71 81 -166z" />
    <glyph glyph-name="ucircumflex.smcp" horiz-adv-x="609" 
d="M574 477l-51 -15v-281q0 -96 -54 -145.5t-147 -49.5q-35 0 -62 2.5t-61 13.5t-56 29t-37.5 52.5t-15.5 81.5v297l-52 15v26h238v-26l-51 -15v-303q0 -129 114 -129q62 0 100 37.5t38 110.5v284l-52 15v26h149v-26zM299 760h50q50 -93 101 -162l-32 -20l-94 80l-94 -80
l-32 20q51 69 101 162z" />
    <glyph glyph-name="udieresis.smcp" horiz-adv-x="609" 
d="M574 477l-51 -15v-281q0 -96 -54 -145.5t-147 -49.5q-35 0 -62 2.5t-61 13.5t-56 29t-37.5 52.5t-15.5 81.5v297l-52 15v26h238v-26l-51 -15v-303q0 -129 114 -129q62 0 100 37.5t38 110.5v284l-52 15v26h149v-26zM219 736q29 0 50.5 -21t21.5 -49q0 -30 -21.5 -50.5
t-50.5 -20.5t-49.5 20.5t-20.5 50.5q0 28 20.5 49t49.5 21zM432 736q29 0 50.5 -21t21.5 -49q0 -30 -21.5 -50.5t-50.5 -20.5q-30 0 -50 20.5t-20 50.5q0 28 20.5 49t49.5 21z" />
    <glyph glyph-name="yacute.smcp" horiz-adv-x="593" 
d="M235 221l-149 241l-55 15v26h254v-27l-49 -15l114 -189l107 190l-51 14v27h156v-27l-58 -15l-136 -241v-179l53 -15v-26h-240v26l54 15v180zM309 578l-30 18q60 95 81 166q99 0 99 -35q0 -20 -52.5 -69.5t-97.5 -79.5z" />
    <glyph glyph-name="ydieresis.smcp" horiz-adv-x="593" 
d="M235 221l-149 241l-55 15v26h254v-27l-49 -15l114 -189l107 190l-51 14v27h156v-27l-58 -15l-136 -241v-179l53 -15v-26h-240v26l54 15v180zM217 736q29 0 50.5 -21t21.5 -49q0 -30 -21.5 -50.5t-50.5 -20.5t-49.5 20.5t-20.5 50.5q0 28 20.5 49t49.5 21zM430 736
q29 0 50.5 -21t21.5 -49q0 -30 -21.5 -50.5t-50.5 -20.5q-30 0 -50 20.5t-20 50.5q0 28 20.5 49t49.5 21z" />
    <glyph glyph-name="zcaron.smcp" horiz-adv-x="568" 
d="M514 158l-7 -158h-465v24l292 445h-191l-47 -104h-23v138h425v-25l-292 -442h234l49 122h25zM302 583h-50q-50 93 -101 162l32 20l94 -80l94 80l32 -20q-51 -69 -101 -162z" />
    <glyph glyph-name="eth.smcp" horiz-adv-x="659" 
d="M51 0v26l52 15v193h-57v53h57v175l-52 15v26h269q140 0 210.5 -57.5t70.5 -181.5q0 -264 -291 -264h-259zM464 257q0 43 -6.5 77t-24 66.5t-53 50.5t-87.5 18h-55v-182h86v-53h-86v-198h54q87 0 129.5 58.5t42.5 162.5z" />
    <glyph glyph-name="thorn.smcp" horiz-adv-x="527" 
d="M233 462v-61h31q110 0 163.5 -26.5t53.5 -97.5q0 -44 -19.5 -76t-52.5 -48t-69.5 -23.5t-77.5 -7.5h-8v25q92 19 92 123q0 101 -79 101q-16 0 -34 -5v-326l51 -14v-26h-238v26l52 15v421l-52 15v26h239v-26z" />
    <glyph glyph-name="ae.smcp" horiz-adv-x="785" 
d="M320 0v26l52 15v111h-168l-70 -110l48 -15v-27h-157v27l60 16l272 422l-55 12v26h412v-139h-23l-49 105h-135v-188h73l27 74h23v-184h-23l-27 74h-73v-210h145l50 116h25l-7 -151h-400zM230 192h142v222z" />
    <glyph glyph-name="oe.smcp" horiz-adv-x="794" 
d="M729 0h-399q-133 0 -202.5 64.5t-69.5 185.5q0 116 74.5 184.5t203.5 68.5h387v-139h-23l-49 105h-135v-188h73l27 74h23v-184h-23l-27 74h-73v-210h145l50 116h25zM346 32h35v437h-56q-64 0 -96.5 -57t-32.5 -159q0 -109 34.5 -163.5t115.5 -57.5z" />
    <glyph glyph-name="germandbls.smcp" horiz-adv-x="884" 
d="M397 150q0 -72 -49.5 -118t-129.5 -46q-42 0 -88.5 10.5t-73.5 27.5l-7 128h33q8 -60 43 -97t91 -37q39 0 65 20t26 56q0 32 -26 55t-63.5 38.5t-75 33.5t-63.5 53t-26 86q0 73 52.5 115t129.5 42t135 -22l-3 -118h-29q-12 49 -40.5 78t-69.5 29q-33 0 -55 -19.5
t-22 -56.5q0 -32 25.5 -54t61.5 -37.5t72 -33.5t61.5 -51.5t25.5 -81.5zM839 150q0 -72 -49.5 -118t-129.5 -46q-42 0 -88.5 10.5t-73.5 27.5l-7 128h33q8 -60 43 -97t91 -37q39 0 65 20t26 56q0 32 -26 55t-63.5 38.5t-75 33.5t-63.5 53t-26 86q0 73 52.5 115t129.5 42
t135 -22l-3 -118h-29q-12 49 -40.5 78t-69.5 29q-33 0 -55 -19.5t-22 -56.5q0 -32 25.5 -54t61.5 -37.5t72 -33.5t61.5 -51.5t25.5 -81.5z" />
    <glyph glyph-name="fi.smcp" horiz-adv-x="821" 
d="M233 41l50 -16v-25h-237v26l52 15v421l-52 15v26h397v-141h-23l-49 107h-138v-188h72l27 74h23v-184h-23l-27 74h-72v-204zM723 462v-421l52 -15v-26h-239v26l52 15v421l-52 15v26h239v-26z" />
    <glyph glyph-name="fl.smcp" horiz-adv-x="995" 
d="M233 41l50 -16v-25h-237v26l52 15v421l-52 15v26h397v-141h-23l-49 107h-138v-188h72l27 74h23v-184h-23l-27 74h-72v-204zM723 462v-427h150l50 123h25l-7 -158h-405v26l52 15v421l-52 15v26h234v-26z" />
    <glyph glyph-name="ampersand.c2sc" horiz-adv-x="663" 
d="M565 243l-115 -120l11 -14q34 -44 59 -59.5t58 -15.5h37v-33q-44 -15 -133 -15q-63 0 -112 49q-59 -49 -165 -49q-73 0 -119.5 36t-46.5 102q0 57 39.5 99t102.5 59q-55 73 -55 119q0 56 43 86.5t127 30.5q145 0 145 -108q0 -90 -119 -121l106 -138l81 93l-57 10v29h179
v-29zM257 33q44 0 88 31l-144 191q-40 -47 -40 -107q0 -49 24 -82t72 -33zM246 431q0 -41 43 -97l15 -20q34 46 34 104q0 31 -12.5 51t-31.5 20q-48 0 -48 -58z" />
    <glyph glyph-name="zero.tosf" 
d="M276 22q99 0 99 233q0 221 -100 221q-99 0 -99 -233q0 -221 100 -221zM275 -14q-112 0 -173.5 74.5t-61.5 182.5q0 123 62.5 196t172.5 73q112 0 173.5 -74.5t61.5 -182.5q0 -123 -62.5 -196t-172.5 -73z" />
    <glyph glyph-name="one.tosf" 
d="M374 54l130 -25v-29h-399v29l132 25v360l-142 -10v33l247 71h32v-454z" />
    <glyph glyph-name="two.tosf" 
d="M220 125h217l27 84h33l-9 -209h-464v30l91.5 61.5t80.5 62t69.5 68t43.5 70.5t18 78q0 47 -21.5 79t-67.5 32q-93 0 -93 -152q-101 0 -101 53q0 60 61.5 95t136.5 35q99 0 159.5 -37.5t60.5 -108.5q0 -73 -64 -130t-178 -111z" />
    <glyph glyph-name="three.tosf" 
d="M309 217q177 -40 177 -185q0 -83 -66 -138.5t-166 -55.5q-95 0 -157 32t-62 80q0 41 29 60.5t67 20.5q0 -68 33.5 -111.5t91.5 -43.5q50 0 80 32.5t30 86.5q0 151 -222 160v37q94 15 138.5 60t44.5 103q0 42 -25 66.5t-65 24.5q-71 0 -129 -75l-31 24q34 54 88 85.5
t120 31.5q72 0 123 -36.5t51 -103.5q0 -61 -42.5 -100.5t-107.5 -54.5z" />
    <glyph glyph-name="four.tosf" 
d="M509 44h-88v-139l81 -20v-29h-311v29l95 20v139h-259v32l351 432h43v-395h88v-69zM286 332l-175 -219h175v219z" />
    <glyph glyph-name="five.tosf" 
d="M490 50q0 -98 -67 -155t-165 -57q-91 0 -149.5 33t-58.5 79q0 42 31.5 61.5t64.5 19.5q0 -66 28.5 -110.5t89.5 -44.5q49 0 79.5 32t30.5 86q0 41 -18.5 71.5t-51 47t-70 24t-81.5 7.5h-69l32 351h284l20 55h31l-7 -181h-296l-9 -115h56q79 0 144 -21t108 -68.5
t43 -114.5z" />
    <glyph glyph-name="six.tosf" 
d="M232 351l-7 34q50 27 104 27q88 0 133 -55.5t45 -143.5q0 -101 -66 -164t-165 -63q-98 0 -159.5 63.5t-61.5 189.5q0 170 106 281.5t277 154.5l10 -36q-258 -97 -258 -386q0 -228 100 -228q35 0 56.5 28.5t28 62t6.5 71.5q0 25 -3.5 49.5t-12.5 55t-30 49.5t-52 19
q-24 0 -51 -9z" />
    <glyph glyph-name="seven.tosf" 
d="M441 370h-330l-24 -78h-34l17 238h32l11 -35h403v-35q-11 -38 -70 -190l-112 -285l-53 -133h-177z" />
    <glyph glyph-name="eight.tosf" 
d="M50 152q0 57 36 99t104 62q-55 35 -86.5 76.5t-31.5 100.5q0 74 59 122t147 48q99 0 155.5 -40t56.5 -112q0 -103 -129 -148q68 -40 105.5 -82.5t37.5 -106.5q0 -78 -62 -131.5t-163 -53.5q-107 0 -168 44.5t-61 121.5zM389 129q0 13 -2.5 25t-9 23t-12.5 19.5t-18.5 19
l-19.5 16.5t-24 16l-24.5 14.5l-27 15.5l-26.5 15q-51 -51 -51 -136q0 -59 28 -97.5t83 -38.5q44 0 74 29t30 79zM179 535q0 -26 10.5 -47.5t34 -41.5t42.5 -32t54 -32q53 47 53 131q0 46 -24.5 78.5t-74.5 32.5q-42 0 -68.5 -24t-26.5 -65z" />
    <glyph glyph-name="nine.tosf" 
d="M320 147l7 -34q-50 -27 -104 -27q-88 0 -133 55.5t-45 143.5q0 101 66 164t165 63q98 0 159.5 -63.5t61.5 -189.5q0 -170 -106 -281.5t-277 -154.5l-10 36q258 97 258 386q0 228 -100 228q-35 0 -56.5 -28.5t-28 -62t-6.5 -71.5q0 -25 3.5 -49.5t12.5 -55t30 -49.5
t52 -19q24 0 51 9z" />
    <glyph glyph-name="zero.lf" horiz-adv-x="555" 
d="M512 323q0 -144 -63.5 -240.5t-171.5 -96.5q-112 0 -173 96.5t-61 240.5q0 145 63 241t171 96q107 0 171 -92t64 -245zM376 323q0 160 -24.5 229t-73.5 69q-99 0 -99 -298q0 -146 22.5 -222t76.5 -76q98 0 98 298z" />
    <glyph glyph-name="one.lf" horiz-adv-x="419" 
d="M294 54l110 -25v-29h-359v29l112 25v504l-122 -10v33l227 71h32v-598z" />
    <glyph glyph-name="two.lf" horiz-adv-x="535" 
d="M226 629q-87 0 -87 -160q-21 0 -34 1t-33 5t-30 15.5t-10 29.5q0 64 61.5 102t148.5 38q96 0 152 -46.5t56 -129.5q0 -162 -271 -359h246l27 84h33l-9 -209h-464v30q149 120 226 225.5t77 214.5q0 159 -89 159z" />
    <glyph glyph-name="three.lf" horiz-adv-x="526" 
d="M299 365q177 -40 177 -185q0 -83 -66 -138.5t-166 -55.5q-95 0 -157 32t-62 80q0 41 29 60.5t67 20.5q0 -68 33.5 -111.5t91.5 -43.5q50 0 80 32.5t30 86.5q0 151 -222 160v37q94 15 138.5 60t44.5 103q0 42 -25 66.5t-65 24.5q-71 0 -129 -75l-31 24q34 54 88 85.5
t120 31.5q72 0 123 -36.5t51 -103.5q0 -61 -42.5 -100.5t-107.5 -54.5z" />
    <glyph glyph-name="four.lf" horiz-adv-x="540" 
d="M509 188h-88v-139l81 -20v-29h-311v29l95 20v139h-259v32l351 432h43v-395h88v-69zM286 476l-175 -219h175v219z" />
    <glyph glyph-name="five.lf" horiz-adv-x="520" 
d="M480 198q0 -98 -67 -155t-165 -57q-91 0 -149.5 33t-58.5 79q0 42 31.5 61.5t64.5 19.5q0 -66 28.5 -110.5t89.5 -44.5q49 0 79.5 32t30.5 86q0 41 -18.5 71.5t-51 47t-70 24t-81.5 7.5h-69l32 351h284l20 55h31l-7 -181h-296l-9 -115h56q79 0 144 -21t108 -68.5
t43 -114.5z" />
    <glyph glyph-name="six.lf" horiz-adv-x="542" 
d="M224 351l-7 34q50 27 104 27q88 0 133 -55.5t45 -143.5q0 -101 -66 -164t-165 -63q-98 0 -159.5 63.5t-61.5 189.5q0 170 106 281.5t277 154.5l10 -36q-258 -97 -258 -386q0 -228 100 -228q35 0 56.5 28.5t28 62t6.5 71.5q0 25 -3.5 49.5t-12.5 55t-30 49.5t-52 19
q-24 0 -51 -9z" />
    <glyph glyph-name="seven.lf" horiz-adv-x="530" 
d="M434 518h-330l-24 -78h-34l17 238h32l11 -35h403v-35q-11 -38 -70 -190l-112 -285l-53 -133h-177z" />
    <glyph glyph-name="eight.lf" horiz-adv-x="534" 
d="M41 152q0 57 36 99t104 62q-56 35 -87 75.5t-31 101.5q0 74 59 122t147 48q99 0 155.5 -40t56.5 -112q0 -103 -129 -148q68 -40 105.5 -82.5t37.5 -106.5q0 -78 -62 -131.5t-163 -53.5q-107 0 -168 44.5t-61 121.5zM238 281l-22 12q-51 -51 -51 -136q0 -59 28 -97.5
t83 -38.5q44 0 74 29t30 79q0 44 -33.5 77.5t-108.5 74.5zM170 535q0 -26 10.5 -47.5t34 -41.5t42.5 -32t54 -32q53 47 53 131q0 46 -24.5 78.5t-74.5 32.5q-42 0 -68.5 -24t-26.5 -65z" />
    <glyph glyph-name="nine.lf" horiz-adv-x="542" 
d="M319 295l7 -34q-50 -27 -104 -27q-88 0 -133 55.5t-45 143.5q0 101 66 164t165 63q98 0 159.5 -63.5t61.5 -189.5q0 -170 -106 -281.5t-277 -154.5l-10 36q258 97 258 386q0 228 -100 228q-35 0 -56.5 -28.5t-28 -62t-6.5 -71.5q0 -25 3.5 -49.5t12.5 -55t30 -49.5
t52 -19q24 0 51 9z" />
    <glyph glyph-name="zero.osf" horiz-adv-x="556" 
d="M279 22q99 0 99 233q0 221 -100 221q-99 0 -99 -233q0 -221 100 -221zM278 -14q-112 0 -173.5 74.5t-61.5 182.5q0 123 62.5 196t172.5 73q112 0 173.5 -74.5t61.5 -182.5q0 -123 -62.5 -196t-172.5 -73z" />
    <glyph glyph-name="one.osf" horiz-adv-x="424" 
d="M304 54l110 -25v-29h-359v29l112 25v360l-122 -10v33l227 71h32v-454z" />
    <glyph glyph-name="two.osf" horiz-adv-x="535" 
d="M212 125h217l27 84h33l-9 -209h-464v30l91.5 61.5t80.5 62t69.5 68t43.5 70.5t18 78q0 47 -21.5 79t-67.5 32q-93 0 -93 -152q-101 0 -101 53q0 60 61.5 95t136.5 35q99 0 159.5 -37.5t60.5 -108.5q0 -73 -64 -130t-178 -111z" />
    <glyph glyph-name="three.osf" horiz-adv-x="526" 
d="M292 217q177 -40 177 -185q0 -83 -66 -138.5t-166 -55.5q-95 0 -157 32t-62 80q0 41 29 60.5t67 20.5q0 -68 33.5 -111.5t91.5 -43.5q50 0 80 32.5t30 86.5q0 151 -222 160v37q94 15 138.5 60t44.5 103q0 42 -25 66.5t-65 24.5q-71 0 -129 -75l-31 24q34 54 88 85.5
t120 31.5q72 0 123 -36.5t51 -103.5q0 -61 -42.5 -100.5t-107.5 -54.5z" />
    <glyph glyph-name="four.osf" horiz-adv-x="540" 
d="M504 44h-88v-139l81 -20v-29h-311v29l95 20v139h-259v32l351 432h43v-395h88v-69zM281 332l-175 -219h175v219z" />
    <glyph glyph-name="five.osf" horiz-adv-x="510" 
d="M470 50q0 -98 -67 -155t-165 -57q-91 0 -149.5 33t-58.5 79q0 42 31.5 61.5t64.5 19.5q0 -66 28.5 -110.5t89.5 -44.5q49 0 79.5 32t30.5 86q0 41 -18.5 71.5t-51 47t-70 24t-81.5 7.5h-69l32 351h284l20 55h31l-7 -181h-296l-9 -115h56q79 0 144 -21t108 -68.5
t43 -114.5z" />
    <glyph glyph-name="six.osf" horiz-adv-x="542" 
d="M223 351l-7 34q50 27 104 27q88 0 133 -55.5t45 -143.5q0 -101 -66 -164t-165 -63q-98 0 -159.5 63.5t-61.5 189.5q0 170 106 281.5t277 154.5l10 -36q-258 -97 -258 -386q0 -228 100 -228q35 0 56.5 28.5t28 62t6.5 71.5q0 25 -3.5 49.5t-12.5 55t-30 49.5t-52 19
q-24 0 -51 -9z" />
    <glyph glyph-name="seven.osf" horiz-adv-x="540" 
d="M428 370h-330l-24 -78h-34l17 238h32l11 -35h403v-35q-11 -38 -70 -190l-112 -285l-53 -133h-177z" />
    <glyph glyph-name="eight.osf" horiz-adv-x="534" 
d="M36 152q0 57 36 99t104 62q-56 35 -87 75.5t-31 101.5q0 74 59 122t147 48q99 0 155.5 -40t56.5 -112q0 -103 -129 -148q68 -40 105.5 -82.5t37.5 -106.5q0 -78 -62 -131.5t-163 -53.5q-107 0 -168 44.5t-61 121.5zM233 281l-22 12q-51 -51 -51 -136q0 -59 28 -97.5
t83 -38.5q44 0 74 29t30 79q0 44 -33.5 77.5t-108.5 74.5zM165 535q0 -26 10.5 -47.5t34 -41.5t42.5 -32t54 -32q53 47 53 131q0 46 -24.5 78.5t-74.5 32.5q-42 0 -68.5 -24t-26.5 -65z" />
    <glyph glyph-name="nine.osf" horiz-adv-x="542" 
d="M311 147l7 -34q-50 -27 -104 -27q-88 0 -133 55.5t-45 143.5q0 101 66 164t165 63q98 0 159.5 -63.5t61.5 -189.5q0 -170 -106 -281.5t-277 -154.5l-10 36q258 97 258 386q0 228 -100 228q-35 0 -56.5 -28.5t-28 -62t-6.5 -71.5q0 -25 3.5 -49.5t12.5 -55t30 -49.5
t52 -19q24 0 51 9z" />
    <glyph glyph-name="acute.case" horiz-adv-x="400" 
d="M116 721l-23 27q85 71 129 132q32 -7 58 -24t26 -34q0 -21 -66.5 -52.5t-123.5 -48.5z" />
    <glyph glyph-name="grave.case" horiz-adv-x="400" 
d="M306 748l-23 -27q-57 17 -123.5 48.5t-66.5 52.5q0 17 26 34t58 24q44 -61 129 -132z" />
    <glyph glyph-name="circumflex.case" horiz-adv-x="400" 
d="M174 884h51q33 -54 101 -133l-32 -25l-95 66l-94 -66l-32 25q68 79 101 133z" />
    <glyph glyph-name="tilde.case" horiz-adv-x="400" 
d="M313 881l37 -9q-12 -65 -32 -95.5t-55 -30.5q-20 0 -68 21t-63 21q-16 0 -25 -11t-20 -39l-37 9q12 65 32 95.5t55 30.5q20 0 68 -21t63 -21q16 0 25 11t20 39z" />
    <glyph glyph-name="dieresis.case" horiz-adv-x="400" 
d="M92 873q29 0 50.5 -21t21.5 -49q0 -30 -21.5 -50.5t-50.5 -20.5q-30 0 -50 20t-20 51q0 28 20.5 49t49.5 21zM305 873q29 0 50.5 -21t21.5 -49q0 -30 -21.5 -50.5t-50.5 -20.5t-49.5 20t-20.5 51q0 28 20.5 49t49.5 21z" />
    <glyph glyph-name="ring.case" horiz-adv-x="400" 
d="M103 809q0 41 27.5 66t69.5 25q41 0 69 -25t28 -66t-28 -65.5t-69 -24.5q-42 0 -69.5 24.5t-27.5 65.5zM162 809q0 -27 11 -42t28 -15t28 15t11 42t-11 41.5t-28 14.5t-28 -14.5t-11 -41.5z" />
    <glyph glyph-name="caron.case" horiz-adv-x="400" 
d="M225 733h-51q-33 54 -101 133l32 25l94 -66l95 66l32 -25q-68 -79 -101 -133z" />
    <glyph glyph-name="macron.case" horiz-adv-x="400" 
d="M335 824v-75h-270v75h270z" />
    <glyph glyph-name="breve.case" horiz-adv-x="400" 
d="M200 804q77 0 101 85l34 -10q0 -69 -36.5 -110.5t-98.5 -41.5t-98.5 41.5t-36.5 110.5l34 10q24 -85 101 -85z" />
    <glyph glyph-name="hungarumlaut.case" horiz-adv-x="400" 
d="M53 726l-25 21q22 23 52.5 74t43.5 85q33 -6 61.5 -19t28.5 -32q0 -20 -56.5 -63t-104.5 -66zM210 726l-25 21q22 23 52.5 74t43.5 85q33 -6 61.5 -19t28.5 -32q0 -20 -56.5 -63t-104.5 -66z" />
    <glyph glyph-name="dotaccent.case" horiz-adv-x="400" 
d="M200 729q-32 0 -53.5 21t-21.5 53q0 30 22 51.5t53 21.5q32 0 53.5 -21t21.5 -53q0 -30 -22 -51.5t-53 -21.5z" />
    <glyph glyph-name="acute.smcp" horiz-adv-x="400" 
d="M140 578l-30 18q60 95 81 166q99 0 99 -35q0 -20 -52.5 -69.5t-97.5 -79.5z" />
    <glyph glyph-name="grave.smcp" horiz-adv-x="400" 
d="M290 596l-30 -18q-45 30 -97.5 79.5t-52.5 69.5q0 35 99 35q21 -71 81 -166z" />
    <glyph glyph-name="circumflex.smcp" horiz-adv-x="400" 
d="M175 760h50q50 -93 101 -162l-32 -20l-94 80l-94 -80l-32 20q51 69 101 162z" />
    <glyph glyph-name="tilde.smcp" horiz-adv-x="400" 
d="M313 741l37 -9q-12 -65 -32 -95.5t-55 -30.5q-20 0 -68 21t-63 21q-16 0 -25 -11t-20 -39l-37 9q12 65 32 95.5t55 30.5q20 0 68 -21t63 -21q16 0 25 11t20 39z" />
    <glyph glyph-name="dieresis.smcp" horiz-adv-x="400" 
d="M92 736q29 0 50.5 -21t21.5 -49q0 -30 -21.5 -50.5t-50.5 -20.5q-30 0 -50 20.5t-20 50.5q0 28 20.5 49t49.5 21zM305 736q29 0 50.5 -21t21.5 -49q0 -30 -21.5 -50.5t-50.5 -20.5t-49.5 20.5t-20.5 50.5q0 28 20.5 49t49.5 21z" />
    <glyph glyph-name="ring.smcp" horiz-adv-x="400" 
d="M103 669q0 41 27.5 66t69.5 25q41 0 69 -25t28 -66t-28 -65.5t-69 -24.5q-42 0 -69.5 24.5t-27.5 65.5zM162 669q0 -27 11 -42t28 -15t28 15t11 42t-11 41.5t-28 14.5t-28 -14.5t-11 -41.5z" />
    <glyph glyph-name="caron.smcp" horiz-adv-x="400" 
d="M225 583h-50q-50 93 -101 162l32 20l94 -80l94 80l32 -20q-51 -69 -101 -162z" />
    <glyph glyph-name="macron.smcp" horiz-adv-x="400" 
d="M335 685v-75h-270v75h270z" />
    <glyph glyph-name="breve.smcp" horiz-adv-x="400" 
d="M200 664q77 0 101 85l34 -10q0 -69 -36.5 -110.5t-98.5 -41.5t-98.5 41.5t-36.5 110.5l34 10q24 -85 101 -85z" />
    <glyph glyph-name="hungarumlaut.smcp" horiz-adv-x="400" 
d="M220 574l-29 17q19 31 39.5 85.5t25.5 85.5q39 0 69.5 -9t30.5 -26q0 -25 -41.5 -68.5t-94.5 -84.5zM73 574l-29 17q19 31 39.5 85.5t25.5 85.5q39 0 69.5 -9t30.5 -26q0 -25 -41.5 -68.5t-94.5 -84.5z" />
    <glyph glyph-name="dotaccent.smcp" horiz-adv-x="400" 
d="M200 590q-32 0 -53.5 21t-21.5 53q0 30 22 51.5t53 21.5q32 0 53.5 -21t21.5 -53q0 -30 -22 -51.5t-53 -21.5z" />
    </font>
</defs>
</svg>
