<svg version="1" xmlns="http://www.w3.org/2000/svg" width="666.667" height="666.667" viewBox="0 0 500.000000 500.000000"><path d="M252.8 7.5c-.1.1-6.8.5-14.8.9-8 .3-15.5.8-16.7 1-1.2.3-4.8.7-8 1.1-7.1.7-12.3 1.5-14.3 2-.8.2-3.1.7-5 1-9.8 1.7-29.7 7.4-42 12C88 49.9 41.2 99.2 19.7 165c-1.4 4.1-2.8 8.8-3.2 10.5-.5 1.6-.9 3.4-1.1 4-1.5 5.8-3.5 14.8-3.9 18-.4 2.2-.8 4.7-1 5.5-.2.8-.7 3.7-1 6.5-.4 2.7-.8 6.1-1.1 7.5-.9 5.7-1.8 23.3-1.7 36 .1 21 1.3 34.4 4.8 53.5.3 1.6.8 4.5 1.1 6.4 1.1 6.4 6.5 24.7 10.6 35.6C43.7 403.7 86 447.6 140 470c4.1 1.7 8.4 3.5 9.5 4 7.7 3.3 38.6 11.7 49.5 13.4 25.2 3.8 33 4.5 57 4.5 26.8.1 37.2-.8 70.5-6.5 5.3-.9 18.4-4.4 26.8-7.1 4.5-1.5 8.4-2.7 8.7-2.8 5.6-1.7 25.5-10.3 34-14.8 12.6-6.6 33.7-20.1 37-23.7.3-.3 2.8-2.3 5.5-4.4 6.6-5.2 24.5-23 24.5-24.4 0-1.3-80-81.4-81-81-.4.2-3.8 3-7.5 6.3-21.2 18.9-48.2 32.7-74.1 38-21.7 4.4-42.2 4-61.3-1-29.5-7.9-52.2-26.6-66.1-54.5-3.8-7.5-9-21.1-9-23.3 0-.9 37.8-1.2 164-1.1 93.8 0 164.3-.3 164.6-.8.3-.5.6-11.1.6-23.6.1-30.1-1-43.5-5.8-73.2-1.1-6.7-6.6-27.6-9.9-37.6-21.1-64.1-64.6-110-125-132.2-10.8-3.9-26.7-8.6-33.4-9.7-1.9-.3-3.7-.7-4-.9-.3-.2-2.6-.7-5.1-1-2.5-.3-5.4-.8-6.5-1-1.1-.2-4.7-.7-8-1.1-3.2-.4-6.8-.9-8-1.1-1.1-.2-8.7-.6-17-1-8.2-.3-15.5-.7-16.2-.9-.6-.2-1.3-.2-1.5 0zm15.4 110.9c3.2.3 6.9 1.1 8.3 1.6 1.4.5 2.5.8 2.5.6 0-.8 11.4 3.5 17.5 6.6 21 10.4 35.9 29.8 42.4 55.3 1.3 5.2 2 10.5 2.6 18.8.4 5.8.2 6.7-1.3 6.8-7.1.3-179.3.1-179.7-.2-.5-.6 1.8-10.6 4-17.4 10.8-33.2 29.3-55.3 55.5-66.4 3-1.3 5.9-2.4 6.5-2.6.5-.1 2.3-.5 3.9-1 9.9-2.7 24.4-3.5 37.8-2.1z"/></svg>