<?xml version="1.0" encoding="UTF-8"?>
<svg width="126px" height="114px" viewBox="0 0 126 114" version="1.1" xmlns="http://www.w3.org/2000/svg" xmlns:xlink="http://www.w3.org/1999/xlink">
    <!-- Generator: Sketch 46.2 (44496) - http://www.bohemiancoding.com/sketch -->
    <title>Fill 1</title>
    <desc>Created with Sketch.</desc>
    <defs></defs>
    <g id="Page-1" stroke="none" stroke-width="1" fill="none" fill-rule="evenodd">
        <g id="1.-Homepage_v3-|-Evoke-my-genius-" transform="translate(-435.000000, -3357.000000)" fill="#EAEAEA">
            <g id="Page-1" transform="translate(498.000000, 3414.000000) scale(1, -1) translate(-498.000000, -3414.000000) translate(435.000000, 3357.000000)">
                <path d="M85.0575849,0 L40.7855783,0 C34.1224993,0 27.9659072,3.55514182 24.6347822,9.32644364 L2.49857171,47.6735564 C-0.832967763,53.4448582 -0.832967763,60.5551418 2.49857171,66.3264436 L24.6347822,104.673556 C27.9659072,110.444858 34.1224993,114 40.7855783,114 L85.0575849,114 C91.7202493,114 97.8768414,110.444858 101.208381,104.673556 L123.344177,66.3264436 C126.675716,60.5551418 126.675716,53.4448582 123.344177,47.6735564 L101.208381,9.32644364 C97.8768414,3.55514182 91.7202493,0 85.0575849,0" id="Fill-1"></path>
            </g>
        </g>
    </g>
</svg>