<?xml version="1.0" encoding="UTF-8"?>
<svg width="25px" height="24px" viewBox="0 0 25 24" version="1.1" xmlns="http://www.w3.org/2000/svg" xmlns:xlink="http://www.w3.org/1999/xlink">
    <!-- Generator: Sketch 46.2 (44496) - http://www.bohemiancoding.com/sketch -->
    <title>Shape</title>
    <desc>Created with Sketch.</desc>
    <defs></defs>
    <g id="Page-1" stroke="none" stroke-width="1" fill="none" fill-rule="evenodd">
        <g id="3.-Change-management_v3-|-Evoke-my-genius-" transform="translate(-395.000000, -1786.000000)" fill-rule="nonzero" fill="#CCCCCC">
            <g id="Group-11" transform="translate(-204.000000, 1502.000000)">
                <g id="Group-2" transform="translate(558.000000, 258.000000)">
                    <g id="Group-14" transform="translate(0.000000, 26.000000)">
                        <path d="M53.8420698,0 C47.1563234,0 41.7169811,5.38322726 41.7169811,12 C41.7169811,18.6162894 47.1563234,24 53.8420698,24 C60.5273277,24 65.9671584,18.6162894 65.9671584,12 C65.9671584,5.38322726 60.5283045,0 53.8420698,0 Z M56.8574689,12.4224603 L54.8848098,12.4224603 L54.8848098,19.3809716 L51.9617189,19.3809716 L51.9617189,12.4224603 L50.5722128,12.4224603 L50.5722128,9.9631032 L51.9617189,9.9631032 L51.9617189,8.37235157 C51.9617189,7.23306211 52.5087301,5.45283171 54.911672,5.45283171 L57.0777385,5.4610489 L57.0777385,7.84838476 L55.5055698,7.84838476 C55.2496467,7.84838476 54.8857866,7.97502618 54.8857866,8.51832756 L54.8857866,9.96358656 L57.1129035,9.96358656 L56.8574689,12.4224603 Z" id="Shape"></path>
                    </g>
                </g>
            </g>
        </g>
    </g>
</svg>