<?xml version="1.0" encoding="UTF-8"?>
<svg width="13px" height="24px" viewBox="0 0 13 24" version="1.1" xmlns="http://www.w3.org/2000/svg" xmlns:xlink="http://www.w3.org/1999/xlink">
    <!-- Generator: Sketch 46.2 (44496) - http://www.bohemiancoding.com/sketch -->
    <title>right-arrow copy</title>
    <desc>Created with Sketch.</desc>
    <defs></defs>
    <g id="Page-1" stroke="none" stroke-width="1" fill="none" fill-rule="evenodd">
        <g id="8.-Quiénes-somos_v3-|-Evoke-my-genius" transform="translate(-114.000000, -2859.000000)" fill-rule="nonzero" fill="#29313F">
            <g id="right-arrow-copy" transform="translate(120.500000, 2871.000000) rotate(180.000000) translate(-120.500000, -2871.000000) translate(114.000000, 2859.000000)">
                <path d="M1.52698413,23.6512821 C1.36190476,23.8153846 1.15555556,23.8974359 0.928571429,23.8974359 C0.701587302,23.8974359 0.495238095,23.8153846 0.33015873,23.6512821 C1.44328993e-15,23.3230769 1.44328993e-15,22.7897436 0.33015873,22.4615385 L10.8539683,12 L0.33015873,1.53846154 C-1.38777878e-17,1.21025641 -1.38777878e-17,0.676923077 0.33015873,0.348717949 C0.66031746,0.0205128205 1.1968254,0.0205128205 1.52698413,0.348717949 L12.6492063,11.4051282 C12.9793651,11.7333333 12.9793651,12.2666667 12.6492063,12.5948718 L1.52698413,23.6512821 L1.52698413,23.6512821 Z" id="Shape"></path>
            </g>
        </g>
    </g>
</svg>