<?xml version="1.0" encoding="UTF-8"?>
<svg width="209px" height="189px" viewBox="0 0 209 189" version="1.1" xmlns="http://www.w3.org/2000/svg" xmlns:xlink="http://www.w3.org/1999/xlink">
    <!-- Generator: Sketch 46.2 (44496) - http://www.bohemiancoding.com/sketch -->
    <title>Fill 1</title>
    <desc>Created with Sketch.</desc>
    <defs></defs>
    <g id="Page-1" stroke="none" stroke-width="1" fill="none" fill-rule="evenodd">
        <g id="1.-Homepage_v3-|-Evoke-my-genius-" transform="translate(-616.000000, -1329.000000)" fill="#EAEAEA">
            <g id="Page-1" transform="translate(720.500000, 1423.500000) scale(1, -1) translate(-720.500000, -1423.500000) translate(616.000000, 1329.000000)">
                <path d="M141.087581,0 L67.6522688,0 C56.6000188,0 46.3878938,5.89405091 40.8624563,15.4622618 L4.14445625,79.0377382 C-1.38166875,88.6059491 -1.38166875,100.394051 4.14445625,109.962262 L40.8624563,173.537738 C46.3878938,183.105949 56.6000188,189 67.6522688,189 L141.087581,189 C152.139144,189 162.351269,183.105949 167.877394,173.537738 L204.594706,109.962262 C210.120831,100.394051 210.120831,88.6059491 204.594706,79.0377382 L167.877394,15.4622618 C162.351269,5.89405091 152.139144,0 141.087581,0" id="Fill-1"></path>
            </g>
        </g>
    </g>
</svg>