<?xml version="1.0" encoding="UTF-8"?>
<svg width="24px" height="24px" viewBox="0 0 24 24" version="1.1" xmlns="http://www.w3.org/2000/svg" xmlns:xlink="http://www.w3.org/1999/xlink">
    <!-- Generator: Sketch 46.2 (44496) - http://www.bohemiancoding.com/sketch -->
    <title>Shape</title>
    <desc>Created with Sketch.</desc>
    <defs></defs>
    <g id="Page-1" stroke="none" stroke-width="1" fill="none" fill-rule="evenodd">
        <g id="3.-Change-management_v3-|-Evoke-my-genius-" transform="translate(-354.000000, -1786.000000)" fill-rule="nonzero" fill="#CCCCCC">
            <g id="Group-11" transform="translate(-204.000000, 1502.000000)">
                <g id="Group-2" transform="translate(558.000000, 258.000000)">
                    <g id="Group-14" transform="translate(0.000000, 26.000000)">
                        <g id="twitter-logo-button">
                            <g id="Capa_1">
                                <path d="M12.0035354,0 C5.38481325,0 0,5.34576 0,11.91648 C0,18.48672 5.38481325,23.83296 12.0035354,23.83296 C18.621774,23.83296 24.0070708,18.48672 24.0070708,11.91648 C24.0070708,5.34576 18.622741,0 12.0035354,0 Z M17.3583712,9.18912 C17.3636898,9.3072 17.3665908,9.42624 17.3665908,9.54528 C17.3665908,13.16976 14.5883618,17.34768 9.50525667,17.34768 C7.94498081,17.34768 6.49252692,16.89504 5.27022218,16.11648 C5.48634964,16.14192 5.70634515,16.15488 5.9292417,16.15488 C7.22407243,16.15488 8.41494924,15.71616 9.36068819,14.9808 C8.15192164,14.95872 7.13123916,14.16576 6.77972985,13.07568 C6.94799015,13.10736 7.12156903,13.12512 7.29901596,13.12512 C7.55092291,13.12512 7.79557726,13.09248 8.02717693,13.0296 C6.76329062,12.77808 5.81126609,11.66976 5.81126609,10.34016 C5.81126609,10.32864 5.81126609,10.31664 5.81174959,10.3056 C6.18404969,10.51056 6.61001902,10.6344 7.06258122,10.64832 C6.32184908,10.15728 5.8339909,9.31728 5.8339909,8.36592 C5.8339909,7.86288 5.96985626,7.39152 6.20774152,6.9864 C7.56977967,8.64624 9.60630956,9.73776 11.901999,9.85296 C11.8546153,9.65184 11.8309235,9.44304 11.8309235,9.22752 C11.8309235,7.71312 13.0677335,6.4848 14.5931969,6.4848 C15.3880817,6.4848 16.1051221,6.81792 16.609903,7.35072 C17.2399121,7.22784 17.8297902,7.00032 18.365032,6.68496 C18.1571242,7.32576 17.7205177,7.86288 17.1485293,8.20272 C17.7079465,8.13648 18.2417378,7.9896 18.7353981,7.7712 C18.366966,8.32032 17.8984481,8.80368 17.3583712,9.18912 Z" id="Shape"></path>
                            </g>
                        </g>
                    </g>
                </g>
            </g>
        </g>
    </g>
</svg>