<?xml version="1.0" standalone="no"?>
<!DOCTYPE svg PUBLIC "-//W3C//DTD SVG 20010904//EN"
 "http://www.w3.org/TR/2001/REC-SVG-20010904/DTD/svg10.dtd">
<svg version="1.0" xmlns="http://www.w3.org/2000/svg"
 width="500.000000pt" height="500.000000pt" viewBox="0 0 500.000000 500.000000"
 preserveAspectRatio="xMidYMid meet">
<metadata>
Created by potrace 1.11, written by Peter Selinger 2001-2013
</metadata>
<g transform="translate(0.000000,500.000000) scale(0.100000,-0.100000)"
fill="#000000" stroke="none">
<path d="M2528 4925 c-1 -1 -68 -5 -148 -9 -80 -3 -155 -8 -167 -10 -12 -3
-48 -7 -80 -11 -71 -7 -123 -15 -143 -20 -8 -2 -31 -7 -50 -10 -98 -17 -297
-74 -420 -120 -640 -244 -1108 -737 -1323 -1395 -14 -41 -28 -88 -32 -105 -5
-16 -9 -34 -11 -40 -15 -58 -35 -148 -39 -180 -4 -22 -8 -47 -10 -55 -2 -8 -7
-37 -10 -65 -4 -27 -8 -61 -11 -75 -9 -57 -18 -233 -17 -360 1 -210 13 -344
48 -535 3 -16 8 -45 11 -64 11 -64 65 -247 106 -356 205 -552 628 -991 1168
-1215 41 -17 84 -35 95 -40 77 -33 386 -117 495 -134 252 -38 330 -45 570 -45
268 -1 372 8 705 65 53 9 184 44 268 71 45 15 84 27 87 28 56 17 255 103 340
148 126 66 337 201 370 237 3 3 28 23 55 44 66 52 245 230 245 244 0 13 -800
814 -810 810 -4 -2 -38 -30 -75 -63 -212 -189 -482 -327 -741 -380 -217 -44
-422 -40 -613 10 -295 79 -522 266 -661 545 -38 75 -90 211 -90 233 0 9 378
12 1640 11 938 0 1643 3 1646 8 3 5 6 111 6 236 1 301 -10 435 -58 732 -11 67
-66 276 -99 376 -211 641 -646 1100 -1250 1322 -108 39 -267 86 -334 97 -19 3
-37 7 -40 9 -3 2 -26 7 -51 10 -25 3 -54 8 -65 10 -11 2 -47 7 -80 11 -32 4
-68 9 -80 11 -11 2 -87 6 -170 10 -82 3 -155 7 -162 9 -6 2 -13 2 -15 0z m154
-1109 c32 -3 69 -11 83 -16 14 -5 25 -8 25 -6 0 8 114 -35 175 -66 210 -104
359 -298 424 -553 13 -52 20 -105 26 -188 4 -58 2 -67 -13 -68 -71 -3 -1793
-1 -1797 2 -5 6 18 106 40 174 108 332 293 553 555 664 30 13 59 24 65 26 5 1
23 5 39 10 99 27 244 35 378 21z"/>
</g>
</svg>
