<?xml version="1.0" standalone="no"?>
<!DOCTYPE svg PUBLIC "-//W3C//DTD SVG 1.1//EN" "http://www.w3.org/Graphics/SVG/1.1/DTD/svg11.dtd" >
<svg>
<metadata>
Created by FontForge 20090622 at Tue Aug 15 16:47:19 2017
 By deploy user
Copyright &#194;&#169; 2012 by Librerias Gandhi S.A. de C.V. All rights reserved.
</metadata>
<defs>
<font id="GandhiSerif-Italic" horiz-adv-x="550" >
  <font-face 
    font-family="Gandhi Serif"
    font-weight="400"
    font-style="italic"
    font-stretch="normal"
    units-per-em="1000"
    panose-1="2 0 0 0 0 0 0 0 0 0"
    ascent="765"
    descent="-235"
    x-height="474"
    cap-height="670"
    bbox="-194 -235 3525 900"
    underline-thickness="50"
    underline-position="-50"
    slope="-10"
    unicode-range="U+0020-U+FB02"
  />
<missing-glyph 
d="M95 -235v1000h390v-1000h-390z" />
    <glyph glyph-name=".notdef" 
d="M95 -235v1000h390v-1000h-390z" />
    <glyph glyph-name=".null" horiz-adv-x="0" 
 />
    <glyph glyph-name="nonmarkingreturn" horiz-adv-x="333" 
 />
    <glyph glyph-name="space" unicode=" " horiz-adv-x="240" 
 />
    <glyph glyph-name="exclam" unicode="!" horiz-adv-x="319" 
d="M165 196h-28q25 353 36 429q9 59 61 59q50 0 50 -51q0 -15 -10 -57t-26 -99.5l-31 -107.5l-31.5 -105zM70 42q0 27 17.5 46.5t45.5 19.5q26 0 41.5 -17t15.5 -41q0 -29 -19.5 -46.5t-44.5 -17.5t-40.5 16.5t-15.5 39.5z" />
    <glyph glyph-name="quotedbl" unicode="&#x22;" horiz-adv-x="378" 
d="M153 422h-28l8 224h90zM303 422h-28l8 224h90z" />
    <glyph glyph-name="numbersign" unicode="#" 
d="M63 373l9 51h128l53 162h53l-53 -162h138l53 162h53l-53 -162h110l-9 -51h-117l-44 -135h124l-9 -51h-132l-52 -162h-53l52 162h-138l-52 -162h-53l52 162h-106l9 51h114l44 135h-121zM237 373l-44 -135h138l44 135h-138z" />
    <glyph glyph-name="dollar" unicode="$" 
d="M198 -114l18 100q-107 5 -180 47l21 158h35q3 -164 130 -172l48 274q-81 46 -106 71q-43 42 -43 98q0 84 61 139t154 59l19 105h39l-19 -106q87 -6 151 -31l-30 -145h-34q0 129 -92 144l-44 -251q34 -19 47 -27t40 -28t39 -35t22.5 -39.5t10.5 -50.5q0 -91 -66 -146.5
t-164 -62.5l-18 -101h-39zM396 153q0 38 -22 64t-69 55l-44 -252q55 7 95 42t40 91zM201 509q0 -37 22 -61.5t67 -50.5l41 231q-56 -4 -93 -36.5t-37 -82.5z" />
    <glyph glyph-name="percent" unicode="%" horiz-adv-x="782" 
d="M130 -14l-35 28l580 646l35 -28zM270 660q61 0 93 -35.5t32 -90.5q0 -76 -53 -133.5t-131 -57.5q-61 0 -93 35.5t-32 90.5q0 76 53 133.5t131 57.5zM219 368q52 0 79.5 51.5t27.5 117.5q0 98 -64 98q-52 0 -79.5 -51.5t-27.5 -117.5q0 -98 64 -98zM535 -14
q-61 0 -93 35.5t-32 90.5q0 76 53 133.5t131 57.5q61 0 93 -35.5t32 -90.5q0 -76 -53 -133.5t-131 -57.5zM586 278q-52 0 -79.5 -51.5t-27.5 -117.5q0 -98 64 -98q52 0 79.5 51.5t27.5 117.5q0 98 -64 98z" />
    <glyph glyph-name="ampersand" unicode="&#x26;" horiz-adv-x="693" 
d="M664 341l-86 -30q-58 -117 -104 -179q33 -58 57 -81.5t61 -23.5h38v-22q-50 -19 -102 -19q-74 0 -122 74q-88 -74 -188 -74q-76 0 -132 39.5t-56 113.5q0 157 204 228q-43 78 -43 132q0 72 46.5 116.5t127.5 44.5q65 0 106.5 -32.5t41.5 -88.5q0 -61 -53.5 -104.5
t-119.5 -61.5l117 -210q50 75 70 149l-66 29l4 20h203zM246 30q75 0 143 60l-141 252q-59 -26 -93 -75.5t-34 -112.5q0 -54 33.5 -89t91.5 -35zM272 545q0 -52 46 -133l9 -17q50 19 80.5 56.5t30.5 84.5q0 41 -21 67.5t-62 26.5q-37 0 -60 -24t-23 -61z" />
    <glyph glyph-name="quotesingle" unicode="'" horiz-adv-x="228" 
d="M153 422h-28l8 224h90z" />
    <glyph glyph-name="parenleft" unicode="(" horiz-adv-x="450" 
d="M295 -153q-114 48 -177 143.5t-63 217.5q0 188 119.5 356t280.5 221l10 -23q-148 -78 -232.5 -236.5t-84.5 -327.5q0 -228 159 -328z" />
    <glyph glyph-name="parenright" unicode=")" horiz-adv-x="450" 
d="M164 785q114 -48 177 -143.5t63 -217.5q0 -188 -119.5 -356t-280.5 -221l-10 23q148 78 232.5 236.5t84.5 327.5q0 228 -159 328z" />
    <glyph glyph-name="asterisk" unicode="*" horiz-adv-x="430" 
d="M264 470l-5 -166h-67l53 166l-137 -103l-36 58l167 62l-145 62l44 59l113 -104l6 166h67l-54 -166l145 102l28 -57l-167 -62l145 -62l-38 -59z" />
    <glyph glyph-name="plus" unicode="+" 
d="M515 278h-198v-197h-54v197h-198v52h198v196h54v-196h198v-52z" />
    <glyph glyph-name="comma" unicode="," horiz-adv-x="250" 
d="M104 105q26 0 42 -17.5t16 -47.5q0 -44 -33 -98t-97 -94l-17 23q32 21 61 55t35 60h-12q-26 0 -41.5 15.5t-15.5 39.5q0 30 18.5 47t43.5 17z" />
    <glyph glyph-name="hyphen" unicode="-" horiz-adv-x="350" 
d="M315 223h-280l10 56h280z" />
    <glyph glyph-name="period" unicode="." horiz-adv-x="250" 
d="M165 52q0 -27 -17.5 -46.5t-45.5 -19.5q-26 0 -41.5 17t-15.5 41q0 29 19.5 46.5t44.5 17.5t40.5 -16.5t15.5 -39.5z" />
    <glyph glyph-name="slash" unicode="/" horiz-adv-x="536" 
d="M574 775l-576 -1010h-56l575 1010h57z" />
    <glyph glyph-name="zero" unicode="0" 
d="M246 -14q-100 0 -147 69.5t-47 184.5q0 102 36 198t101 159t142 63q93 0 143 -63.5t50 -188.5q0 -102 -35.5 -198.5t-101 -160t-141.5 -63.5zM150 183q0 -164 95 -164q72 0 127 124.5t55 317.5q0 165 -95 165q-72 0 -127 -124.5t-55 -318.5z" />
    <glyph glyph-name="one" unicode="1" 
d="M301 51l147 -29l-4 -22h-399l4 22l159 29l92 517l-166 -10l4 23l243 71h27z" />
    <glyph glyph-name="two" unicode="2" 
d="M292 626q-47 0 -80.5 -36t-46.5 -100q-15 0 -29.5 2.5t-28.5 13t-14 26.5q0 60 69.5 94t147.5 34q85 0 133.5 -37t48.5 -103q0 -42 -17 -85.5t-51.5 -86t-68 -77.5t-84.5 -74.5l-82.5 -62.5l-78.5 -56h288l54 110h23l-41 -188h-447v20l62 45.5t69 54.5t78.5 67.5t69 71
t63.5 81t39 82t17 87.5q0 117 -93 117z" />
    <glyph glyph-name="three" unicode="3" 
d="M473 203q0 -97 -70.5 -157t-179.5 -60q-82 0 -142.5 31t-60.5 72q0 31 25.5 51.5t58.5 22.5v-29q0 -54 33.5 -84.5t93.5 -30.5q66 0 109.5 37.5t43.5 100.5q0 68 -54 104.5t-172 40.5l3 27q85 15 157.5 62.5t72.5 118.5q0 42 -29 66t-77 24q-69 0 -137 -68l-19 22
q86 106 203 106q70 0 113 -33t43 -89q0 -67 -52 -114.5t-127 -70.5q70 -7 117 -45t47 -105z" />
    <glyph glyph-name="four" unicode="4" 
d="M470 652l-71 -400h112l-10 -56h-112l-26 -147l100 -27l-4 -22h-311l4 22l119 27l26 147h-273v19l403 437h43zM358 529l-257 -277h206z" />
    <glyph glyph-name="five" unicode="5" 
d="M159 394q311 0 311 -187q0 -97 -74.5 -159t-186.5 -62q-67 0 -120.5 25t-53.5 64q0 29 24 49t56 22v-20q0 -49 26.5 -78.5t85.5 -29.5q64 0 114 40t50 110q0 75 -69.5 110.5t-220.5 35.5l91 329h272l29 56h23l-33 -142h-281z" />
    <glyph glyph-name="six" unicode="6" 
d="M234 357l-8 24q52 31 116 31q75 0 118.5 -44t43.5 -123q0 -98 -72 -178.5t-175 -80.5q-93 0 -148 58t-55 166q0 93 38.5 174t104 138.5t144.5 96t166 56.5l6 -29q-360 -110 -360 -442q0 -184 116 -184q57 0 98.5 63.5t41.5 153.5q0 61 -28 96.5t-83 35.5q-32 0 -64 -12z
" />
    <glyph glyph-name="seven" unicode="7" 
d="M492 555h-337l-38 -78h-25l46 201h23l7 -35h407v-21l-410 -622h-106z" />
    <glyph glyph-name="eight" unicode="8" 
d="M40 139q0 70 48 118.5t124 70.5q-100 67 -100 152q0 80 62.5 130t156.5 50q73 0 131 -34.5t58 -101.5q0 -68 -44.5 -112t-104.5 -64q59 -37 90.5 -72t31.5 -84q0 -95 -72.5 -150.5t-169.5 -55.5q-86 0 -148.5 41t-62.5 112zM404 143q0 19 -8 37t-18 31t-30.5 29t-33.5 24
l-41 25l-40 24q-103 -60 -103 -171q0 -54 37.5 -88t95.5 -34t99.5 35t41.5 88zM200 520q0 -26 11 -47.5t37 -43t43.5 -33t55.5 -34.5q91 62 91 159q0 48 -30.5 77.5t-83.5 29.5q-52 0 -88 -27t-36 -81z" />
    <glyph glyph-name="nine" unicode="9" 
d="M344 289l8 -24q-52 -31 -116 -31q-75 0 -118.5 44t-43.5 123q0 98 72 178.5t175 80.5q93 0 148 -58t55 -166q0 -93 -38.5 -174t-104 -138.5t-144.5 -96t-166 -56.5l-6 29q360 110 360 442q0 184 -116 184q-57 0 -98.5 -63.5t-41.5 -153.5q0 -61 28 -96.5t83 -35.5
q32 0 64 12z" />
    <glyph glyph-name="colon" unicode=":" horiz-adv-x="250" 
d="M165 52q0 -27 -17.5 -46.5t-45.5 -19.5q-26 0 -41.5 17t-15.5 41q0 29 19.5 46.5t44.5 17.5t40.5 -16.5t15.5 -39.5zM219 362q0 -27 -17.5 -46.5t-45.5 -19.5q-26 0 -41.5 17t-15.5 41q0 29 19.5 46.5t44.5 17.5t40.5 -16.5t15.5 -39.5z" />
    <glyph glyph-name="semicolon" unicode=";" horiz-adv-x="250" 
d="M217 362q0 -27 -17.5 -46.5t-45.5 -19.5q-26 0 -41.5 17t-15.5 41q0 29 19.5 46.5t44.5 17.5t40.5 -16.5t15.5 -39.5zM106 105q26 0 42 -17.5t16 -47.5q0 -44 -33 -98t-97 -94l-17 23q32 21 61 55t35 60h-12q-26 0 -41.5 15.5t-15.5 39.5q0 30 18.5 47t43.5 17z" />
    <glyph glyph-name="less" unicode="&#x3c;" 
d="M95 280v50l366 195l27 -49l-324 -171l324 -171l-27 -49z" />
    <glyph glyph-name="equal" unicode="=" 
d="M515 183h-450v52h450v-52zM515 373h-450v52h450v-52z" />
    <glyph glyph-name="greater" unicode="&#x3e;" 
d="M488 327v-50l-366 -195l-27 49l324 171l-324 171l27 49z" />
    <glyph glyph-name="question" unicode="?" horiz-adv-x="412" 
d="M103 563q0 46 59 83.5t124 37.5q67 0 107.5 -32.5t40.5 -84.5q0 -40 -19 -75.5t-47.5 -60t-62 -48.5t-62 -42t-47.5 -39.5t-19 -41.5q0 -36 43 -36q33 0 64 18l9 -27q-44 -25 -93 -25q-43 0 -71 18.5t-28 54.5q0 41 27 76.5t65.5 61.5l77.5 51.5t66 59.5t27 72
q0 33 -20.5 53t-55.5 20q-48 0 -75.5 -34t-37.5 -89q-72 0 -72 29zM106 42q0 27 17.5 46.5t45.5 19.5q26 0 41.5 -17t15.5 -41q0 -29 -19.5 -46.5t-44.5 -17.5t-40.5 16.5t-15.5 39.5z" />
    <glyph glyph-name="at" unicode="@" horiz-adv-x="968" 
d="M548 79q-69 -93 -152 -93q-62 0 -92 46t-30 124q0 81 30.5 155.5t92.5 125.5t141 51q81 0 149 -45l-62 -364q-2 -14 -2 -20q0 -21 22 -21q98 0 166.5 89t68.5 223q0 133 -88.5 205t-225.5 72q-114 0 -202.5 -40.5t-143 -111t-82 -158.5t-27.5 -188q0 -142 86.5 -225.5
t250.5 -84.5q81 0 167 26.5t152 66.5l19 -36q-68 -43 -165.5 -71.5t-182.5 -28.5q-186 1 -282 96.5t-96 261.5q0 111 32 207t94 170t161 116.5t224 42.5q149 0 254.5 -82.5t105.5 -230.5q0 -165 -90.5 -268t-244.5 -103q-52 0 -52 50q0 13 4 43zM557 128l50 291
q-34 40 -80 40q-51 0 -92.5 -47.5t-61 -109.5t-19.5 -117q0 -140 84 -140q54 0 119 83z" />
    <glyph glyph-name="A" unicode="A" horiz-adv-x="745" 
d="M505 46l-39 194h-230l-107 -195l94 -24l-3 -21h-230l3 21l87 25l360 638h29l130 -640l81 -22l-3 -22h-282l3 22zM405 546l-148 -269h202z" />
    <glyph glyph-name="B" unicode="B" horiz-adv-x="627" 
d="M-5 0l3 22l99 25l101 576l-90 25l4 22h287q46 0 84.5 -9.5t71 -41.5t32.5 -84q0 -72 -52.5 -118.5t-138.5 -66.5q75 -4 122.5 -45t47.5 -100q0 -71 -42 -118.5t-104 -67t-140 -19.5h-285zM246 366h73q81 0 124 48.5t43 120.5q0 102 -116 102q-38 0 -78 -7zM240 331
l-51 -291q38 -8 74 -8q94 0 146 43t52 133q0 123 -153 123h-68z" />
    <glyph glyph-name="C" unicode="C" horiz-adv-x="677" 
d="M615 185l-40 -152q-103 -47 -218 -47q-130 0 -211 73.5t-81 208.5q0 178 110.5 297t271.5 119q121 0 210 -43l-21 -153h-34q-20 163 -164 163q-122 0 -198.5 -111t-76.5 -279q0 -110 48.5 -176t157.5 -66q72 0 126 43.5t82 122.5h38z" />
    <glyph glyph-name="D" unicode="D" horiz-adv-x="756" 
d="M-5 0l3 22l99 25l101 576l-90 25l4 22h285q149 0 236.5 -67t87.5 -206q0 -80 -28 -151t-80.5 -126t-136.5 -87.5t-189 -32.5h-292zM188 36h112q86 0 151 32t102 86.5t54.5 119.5t17.5 140q0 111 -62.5 165.5t-175.5 54.5h-93z" />
    <glyph glyph-name="E" unicode="E" horiz-adv-x="610" 
d="M-5 0l4 22l98 25l101 576l-90 25l5 22h492l-31 -173h-24l-25 136h-232l-47 -264h145l50 99h22l-41 -234h-22l-16 99h-144l-52 -296h229l98 164h23l-43 -201h-500z" />
    <glyph glyph-name="F" unicode="F" horiz-adv-x="575" 
d="M190 47l101 -25l-3 -22h-293l4 22l98 25l101 576l-90 25l5 22h492l-30 -170h-25l-25 133h-232l-47 -264h135l50 99h22l-41 -234h-22l-16 99h-134z" />
    <glyph glyph-name="G" unicode="G" horiz-adv-x="751" 
d="M726 298l-4 -22l-88 -25l-37 -207q-88 -58 -240 -58q-136 0 -214 77.5t-78 201.5q0 111 49 206t142 154t211 59q55 0 116 -13t93 -30l-21 -153h-34q-19 163 -165 163q-95 0 -163 -59t-99 -146.5t-31 -190.5q0 -105 54 -170.5t162 -65.5q79 0 127 36l35 196l-100 25l5 22
h280z" />
    <glyph glyph-name="H" unicode="H" horiz-adv-x="819" 
d="M555 47l50 285h-365l-50 -285l95 -25l-4 -22h-286l4 22l98 25l101 576l-90 25l5 22h286l-5 -22l-103 -25l-45 -254h365l45 254l-93 25l5 22h286l-5 -22l-100 -25l-101 -576l92 -25l-4 -22h-286l4 22z" />
    <glyph glyph-name="I" unicode="I" horiz-adv-x="361" 
d="M291 623l-101 -576l92 -25l-4 -22h-283l4 22l98 25l101 576l-90 25l5 22h283l-5 -22z" />
    <glyph glyph-name="J" unicode="J" horiz-adv-x="366" 
d="M396 648l-99 -25l-77 -440q-20 -110 -74.5 -177.5t-162.5 -100.5l-8 26q71 36 99.5 76t44.5 131l85 485l-90 25l4 22h283z" />
    <glyph glyph-name="K" unicode="K" horiz-adv-x="713" 
d="M361 376l194 -298q21 -33 40.5 -43.5t51.5 -12.5v-22q-50 -14 -100 -14q-31 0 -49.5 12.5t-37.5 41.5l-192 303l313 280l-92 25l5 22h239l-5 -22l-89 -28zM291 623l-101 -576l95 -25l-4 -22h-286l4 22l98 25l101 576l-90 25l5 22h286l-5 -22z" />
    <glyph glyph-name="L" unicode="L" horiz-adv-x="594" 
d="M291 623l-103 -586h230l98 164h23l-43 -201h-501l3 22l99 25l101 576l-90 25l4 22h293l-4 -22z" />
    <glyph glyph-name="M" unicode="M" horiz-adv-x="893" 
d="M722 47l92 -25l-4 -22h-284l4 22l99 25l99 563l-331 -619h-35l-128 598l-95 -544l91 -23l-4 -22h-231l4 22l98 25l101 576l-90 25l5 22h192l117 -541l289 541h217l-5 -22l-100 -25z" />
    <glyph glyph-name="N" unicode="N" horiz-adv-x="772" 
d="M597 -9h-27l-335 600l-96 -546l96 -23l-4 -22h-236l4 22l98 26l101 575l-90 25l5 22h187l283 -513l82 466l-95 25l4 22h238l-4 -22l-100 -25z" />
    <glyph glyph-name="O" unicode="O" horiz-adv-x="741" 
d="M341 -14q-132 0 -204 72.5t-72 218.5q0 101 45.5 193.5t131 153t188.5 60.5q132 0 204 -72.5t72 -218.5q0 -101 -45.5 -193.5t-131 -153t-188.5 -60.5zM335 18q121 0 198 111t77 295q0 228 -174 228q-121 0 -198 -111t-77 -295q0 -228 174 -228z" />
    <glyph glyph-name="P" unicode="P" horiz-adv-x="613" 
d="M97 47l101 576l-90 25l4 22h258q228 0 228 -155q0 -91 -80 -153.5t-198 -62.5h-31l4 28q101 7 154.5 61t53.5 131q0 117 -140 117q-34 0 -69 -7l-102 -582l101 -25l-3 -22h-293l3 22z" />
    <glyph glyph-name="Q" unicode="Q" horiz-adv-x="741" 
d="M513 -234q-100 0 -203 221q-118 8 -181.5 80.5t-63.5 209.5q0 101 45.5 193.5t131 153t188.5 60.5q132 0 204 -72.5t72 -218.5q0 -138 -83.5 -254.5t-212.5 -144.5q33 -80 81.5 -132t104.5 -52h27v-23q-52 -21 -110 -21zM335 18q121 0 198 111t77 295q0 228 -174 228
q-121 0 -198 -111t-77 -295q0 -228 174 -228z" />
    <glyph glyph-name="R" unicode="R" horiz-adv-x="672" 
d="M97 47l101 576l-90 25l5 22h259q106 0 169.5 -35.5t63.5 -114.5q0 -85 -73.5 -138t-169.5 -58q44 -10 68.5 -33t43.5 -70l61 -150q11 -28 29 -38.5t53 -10.5v-22q-42 -14 -93 -14q-33 0 -51 12t-30 42l-87 219q-22 55 -83 55h-36l-47 -267l95 -25l-4 -22h-286l4 22z
M292 628l-48 -279h74q79 0 134 48t55 120q0 58 -39 89t-104 31q-29 0 -72 -9z" />
    <glyph glyph-name="S" unicode="S" horiz-adv-x="535" 
d="M474 197q0 -97 -74 -154t-180 -57q-50 0 -105.5 14t-89.5 33l21 164h35q3 -177 146 -177q62 0 110 36t48 98q0 41 -28.5 75t-68.5 59l-80.5 51t-69 63.5t-28.5 82.5q0 87 65 143t163 56q41 0 93 -10t84 -22l-30 -150h-34q0 150 -118 150q-60 0 -101.5 -33.5t-41.5 -86.5
q0 -38 29.5 -71t71 -58.5l83 -52.5t71 -66.5t29.5 -86.5z" />
    <glyph glyph-name="T" unicode="T" horiz-adv-x="652" 
d="M607 633h-168l-103 -586l98 -25l-4 -22h-297l4 22l106 25l103 586h-163l-73 -136h-25l31 173h571l-31 -173h-24z" />
    <glyph glyph-name="U" unicode="U" horiz-adv-x="740" 
d="M781 648l-96 -25l-66 -377q-24 -136 -93 -198t-180 -62q-59 0 -112.5 19.5t-90.5 63.5t-37 105q0 31 4 52l70 397l-90 25l5 22h286l-5 -22l-103 -25l-66 -378q-7 -44 -7 -61q0 -75 50 -111t123 -36q80 0 132.5 51.5t73.5 172.5l62 362l-99 25l4 22h239z" />
    <glyph glyph-name="V" unicode="V" horiz-adv-x="727" 
d="M363 130l273 493l-101 25l5 22h237l-5 -22l-87 -27l-358 -630h-29l-130 632l-83 25l5 22h286l-5 -22l-108 -25z" />
    <glyph glyph-name="W" unicode="W" horiz-adv-x="1066" 
d="M725 136l250 488l-99 24l5 22h235l-5 -22l-87 -27l-335 -630h-29l-82 492l-264 -492h-29l-120 632l-80 25l5 22h286l-5 -22l-111 -25l89 -489l217 421l-11 68l-80 25l5 22h286l-5 -22l-111 -25z" />
    <glyph glyph-name="X" unicode="X" horiz-adv-x="739" 
d="M665 621l-238 -260l161 -317l79 -22l-4 -22h-286l4 22l98 22l-126 259l-206 -254l90 -27l-4 -22h-243l4 22l87 24l253 296l-140 279l-77 27l5 22h283l-5 -22l-102 -24l111 -226l196 225l-89 25l5 22h238l-5 -22z" />
    <glyph glyph-name="Y" unicode="Y" horiz-adv-x="689" 
d="M307 281l-153 343l-69 24l5 22h283l-4 -21l-111 -26l126 -292l219 292l-101 25l5 22h237l-4 -22l-81 -25l-257 -330l-43 -246l98 -25l-4 -22h-297l4 22l106 25z" />
    <glyph glyph-name="Z" unicode="Z" horiz-adv-x="622" 
d="M569 201l-43 -201h-521v20l495 613h-295l-73 -136h-25l31 173h484v-20l-494 -614h324l94 165h23z" />
    <glyph glyph-name="bracketleft" unicode="[" horiz-adv-x="428" 
d="M110 -129h181l-5 -28h-268l167 948h268l-5 -28h-181z" />
    <glyph glyph-name="backslash" unicode="\" horiz-adv-x="536" 
d="M416 -235l-280 1010h52l281 -1010h-53z" />
    <glyph glyph-name="bracketright" unicode="]" horiz-adv-x="428" 
d="M329 763h-181l5 28h268l-167 -948h-268l5 28h181z" />
    <glyph glyph-name="asciicircum" unicode="^" 
d="M265 660h50l195 -366l-49 -27l-171 324l-171 -324l-49 27z" />
    <glyph glyph-name="underscore" unicode="_" 
d="M500 -107l-10 -52h-559l10 52h559z" />
    <glyph glyph-name="grave" unicode="`" horiz-adv-x="400" 
d="M350 573l-23 -15q-48 29 -102.5 79.5t-54.5 72.5q0 24 68 32q13 -28 48 -80.5t64 -88.5z" />
    <glyph glyph-name="a" unicode="a" horiz-adv-x="515" 
d="M164 -14q-62 0 -92 46t-30 124q0 81 30.5 155.5t92.5 125.5t141 51q81 0 149 -45l-53 -314q-10 -60 -10 -76q0 -12 11 -18t25 -7.5t42 -2.5v-23q-51 -16 -113 -16q-24 0 -34.5 12t-10.5 38q0 13 4 43q-69 -93 -152 -93zM325 128l50 291q-34 40 -80 40q-51 0 -92.5 -47.5
t-61 -109.5t-19.5 -117q0 -140 84 -140q54 0 119 83z" />
    <glyph glyph-name="b" unicode="b" horiz-adv-x="510" 
d="M224 611l-39 -223q73 100 160 100q62 0 92.5 -45.5t30.5 -124.5q0 -58 -17.5 -116t-49 -106.5t-83 -79t-113.5 -30.5q-88 0 -158 46l100 585q6 40 6 45q0 15 -16.5 20t-59.5 5l4 23q61 16 118 16q35 0 35 -37q0 -20 -10 -78zM305 427q-58 0 -129 -91l-48 -280
q37 -41 89 -41q49 0 89.5 46t60.5 108t20 120q0 71 -19 104.5t-63 33.5z" />
    <glyph glyph-name="c" unicode="c" horiz-adv-x="452" 
d="M295 488q60 0 93.5 -22t33.5 -55q0 -29 -23.5 -44.5t-58.5 -15.5v27q0 82 -56 82q-45 0 -83 -46t-58 -109t-20 -120q0 -69 26 -107t77 -38q56 0 135 50l13 -20q-92 -84 -189 -84q-143 0 -143 171q0 78 29.5 153t89 126.5t134.5 51.5z" />
    <glyph glyph-name="d" unicode="d" horiz-adv-x="531" 
d="M361 -14q-46 0 -46 37q0 25 6 56q-75 -93 -156 -93q-123 0 -123 170q0 81 29.5 155.5t90.5 125.5t140 51q44 0 87 -13l25 142q6 40 6 45q0 15 -16.5 20t-59.5 5l4 23q64 16 118 16q35 0 35 -37q0 -20 -10 -78l-89 -516q-6 -32 -6 -42q0 -17 17 -22.5t62 -5.5v-23
q-64 -16 -114 -16zM207 45q56 0 122 83l51 292q-41 39 -89 39q-51 0 -91.5 -49t-58.5 -110.5t-18 -114.5q0 -140 84 -140z" />
    <glyph glyph-name="e" unicode="e" horiz-adv-x="452" 
d="M188 -14q-66 0 -106 40t-40 131q0 59 17.5 117t50 106t85.5 78t117 30q59 0 89.5 -26t30.5 -68q0 -70 -77 -115.5t-229 -46.5q-3 -24 -3 -47q0 -145 108 -145q63 0 140 50l13 -20q-38 -35 -91.5 -59.5t-104.5 -24.5zM295 460q-60 0 -104 -59t-60 -141q35 1 71 9t70.5 24
t56 45t21.5 67q0 23 -14 39t-41 16z" />
    <glyph glyph-name="f" unicode="f" horiz-adv-x="339" 
d="M213 435l-76 -443q-9 -52 -32 -101t-68 -87.5t-101 -38.5q-19 0 -32.5 7t-13.5 20q0 29 36 63q38 -40 70 -40q33 0 47 78l92 542h-70l7 39h69l6 39q14 94 83 153.5t144 59.5q35 0 35 -27q0 -17 -11 -35t-25 -28q-44 30 -81 30q-28 0 -45.5 -43t-28.5 -149h114l-7 -39
h-112z" />
    <glyph glyph-name="g" unicode="g" horiz-adv-x="495" 
d="M298 -56l23 136q-75 -94 -157 -94q-122 0 -122 170q0 81 29.5 155.5t90.5 125.5t140 51q90 0 158 -46l-72 -427q-8 -45 -25 -87t-45.5 -79.5t-72.5 -60.5t-98 -23q-46 0 -79 10.5t-33 32.5q0 17 13.5 33t26.5 23q21 -17 62 -34t69 -17q42 0 61.5 29.5t30.5 101.5zM207 45
q54 0 123 84l50 292q-40 38 -89 38q-51 0 -91.5 -49t-58.5 -110.5t-18 -114.5q0 -140 84 -140z" />
    <glyph glyph-name="h" unicode="h" horiz-adv-x="542" 
d="M122 0h-77l106 617q6 40 6 45q0 15 -16.5 20t-59.5 5l4 23q76 16 118 16q35 0 35 -37q0 -20 -10 -78l-39 -222q77 99 163 99q55 0 86.5 -35t31.5 -85q0 -31 -10 -91l-31 -182q-6 -32 -6 -42q0 -17 17 -22.5t62 -5.5v-23q-61 -16 -114 -16q-46 0 -46 37q0 24 10 78l31 178
q9 60 9 78q0 31 -17.5 50.5t-49.5 19.5q-66 0 -144 -88z" />
    <glyph glyph-name="i" unicode="i" horiz-adv-x="272" 
d="M254 648q0 -25 -17 -44t-43 -19q-25 0 -40 16t-15 40q0 28 18.5 44.5t42.5 16.5t39 -16t15 -38zM197 373l-48 -278q-6 -32 -6 -42q0 -17 16.5 -22.5t62.5 -5.5v-23q-61 -16 -114 -16q-45 0 -45 39q0 20 9 76l48 278q6 40 6 45q0 15 -16.5 20t-59.5 5l4 23q64 16 118 16
q35 0 35 -37q0 -20 -10 -78z" />
    <glyph glyph-name="j" unicode="j" horiz-adv-x="258" 
d="M263 653q0 -25 -17 -44t-43 -19q-25 0 -40 16t-15 40q0 28 18.5 44.5t42.5 16.5t39 -16t15 -38zM206 373l-65 -370q-20 -118 -74 -178t-129 -60q-43 0 -43 25q0 32 35 61q41 -36 72 -36q19 0 28.5 20t16.5 59l82 485q6 40 6 45q0 15 -16 20t-60 5l4 23q76 16 118 16
q35 0 35 -37q0 -20 -10 -78z" />
    <glyph glyph-name="k" unicode="k" horiz-adv-x="514" 
d="M122 0h-77l106 617q6 40 6 45q0 15 -17 20t-59 5l4 23q14 4 57 10t61 6q35 0 35 -37q0 -20 -10 -78zM188 247q116 141 167 191t92 50q37 0 37 -37q0 -31 -24 -64q-18 12 -43 12q-54 0 -162 -117l136 -216q14 -23 32 -31.5t52 -9.5v-23q-45 -16 -91 -16q-23 0 -35 7.5
t-24 28.5z" />
    <glyph glyph-name="l" unicode="l" horiz-adv-x="268" 
d="M98 -14q-46 0 -46 37q0 24 10 78l89 516q6 40 6 45q0 15 -16.5 20t-59.5 5l4 23q64 16 118 16q35 0 35 -37q0 -20 -10 -78l-89 -516q-6 -32 -6 -42q0 -17 17 -22.5t62 -5.5v-23q-64 -16 -114 -16z" />
    <glyph glyph-name="m" unicode="m" horiz-adv-x="823" 
d="M741 277l-31 -182q-6 -32 -6 -42q0 -17 17 -22.5t62 -5.5v-23q-61 -16 -114 -16q-46 0 -46 37q0 24 10 78l31 178q9 60 9 78q0 31 -17.5 50.5t-49.5 19.5q-56 0 -130 -76l-60 -351h-77l54 316q5 30 5 48q0 28 -17.5 45.5t-46.5 17.5q-30 0 -71 -25.5t-72 -63.5l-59 -338
h-77l65 379q6 40 6 45q0 15 -16.5 20t-59.5 5l4 23q15 4 57.5 10t60.5 6q35 0 35 -37q0 -21 -7 -61q77 98 161 98q44 0 74.5 -25.5t39.5 -69.5q76 95 158 95q55 0 86.5 -35t31.5 -85q0 -31 -10 -91z" />
    <glyph glyph-name="n" unicode="n" horiz-adv-x="552" 
d="M132 0h-77l65 379q6 40 6 45q0 15 -16 20t-60 5l4 23q15 4 56.5 10t61.5 6q35 0 35 -37q0 -21 -7 -61q77 98 162 98q55 0 86.5 -35t31.5 -85q0 -31 -10 -91l-31 -182q-6 -32 -6 -42q0 -17 17 -22.5t62 -5.5v-23q-61 -16 -114 -16q-46 0 -46 37q0 24 10 78l31 178
q9 60 9 78q0 31 -17.5 50.5t-49.5 19.5q-66 0 -144 -87z" />
    <glyph glyph-name="o" unicode="o" horiz-adv-x="505" 
d="M463 314q0 -134 -72 -231t-182 -97q-79 0 -123 43t-44 131q0 134 72 231t182 97q79 0 123 -43t44 -131zM382 306q0 71 -25 112.5t-70 41.5q-72 0 -118 -87.5t-46 -204.5q0 -71 25 -112.5t70 -41.5q72 0 118 87.5t46 204.5z" />
    <glyph glyph-name="p" unicode="p" horiz-adv-x="524" 
d="M98 -188l85 -22v-20h-231v21l70 20l98 568q6 40 6 45q0 15 -16 20t-60 5l4 23q76 16 119 16q35 0 35 -37q0 -21 -7 -59q77 96 157 96q64 0 94 -46t30 -124q0 -83 -31 -158t-92.5 -124.5t-139.5 -49.5q-45 0 -88 13zM319 427q-54 0 -127 -89l-51 -282q36 -41 89 -41
q70 0 120.5 85.5t50.5 188.5q0 138 -82 138z" />
    <glyph glyph-name="q" unicode="q" horiz-adv-x="496" 
d="M461 442l-106 -630l61 -22v-20h-229l-1 20l91 22l45 268q-76 -94 -158 -94q-122 0 -122 170q0 81 29.5 155.5t90.5 125.5t140 51q91 0 159 -46zM207 45q55 0 124 85l49 288q-37 41 -89 41q-51 0 -91.5 -49t-58.5 -110t-18 -114q0 -141 84 -141z" />
    <glyph glyph-name="r" unicode="r" horiz-adv-x="395" 
d="M132 0h-77l65 379q6 40 6 45q0 15 -16 20t-60 5l4 23q15 4 57.5 10t60.5 6q35 0 35 -34q0 -19 -11 -78q32 44 76.5 78t76.5 34q16 0 26 -9.5t10 -27.5q0 -33 -24 -69q-36 17 -69 17q-45 0 -103 -63z" />
    <glyph glyph-name="s" unicode="s" horiz-adv-x="409" 
d="M160 -14q-65 0 -107.5 21.5t-42.5 56.5q0 26 21.5 45t53.5 22v-26q0 -92 93 -92q40 0 69 25.5t29 61.5q0 28 -21 50t-51 38.5l-60.5 34.5t-51.5 46t-21 65q0 67 50 110.5t123 43.5q59 0 97 -20t38 -54q0 -60 -78 -60v23q0 83 -73 83q-34 0 -62.5 -25.5t-28.5 -66.5
q0 -33 33.5 -60.5t73 -45t73 -49.5t33.5 -74q0 -73 -56.5 -113t-133.5 -40z" />
    <glyph glyph-name="t" unicode="t" horiz-adv-x="347" 
d="M149 -14q-81 0 -81 78q0 21 8 74l49 297h-70l7 39h71l55 116h40l-19 -116h123l-7 -39h-122l-52 -313q-5 -28 -5 -43q0 -44 43 -44q35 0 76 28l12 -22q-61 -55 -128 -55z" />
    <glyph glyph-name="u" unicode="u" horiz-adv-x="533" 
d="M479 474l-59 -345q-10 -60 -10 -76q0 -18 16 -22.5t62 -5.5v-23q-14 -4 -54.5 -10t-58.5 -6q-24 0 -34.5 12t-10.5 38q0 18 5 45q-72 -95 -157 -95q-55 0 -83.5 34t-28.5 84q0 29 11 91l31 184q6 40 6 45q0 15 -15.5 20t-58.5 5l4 23q16 4 57 10t59 6q35 0 35 -37
q0 -20 -10 -78l-30 -177q-11 -63 -11 -83q0 -29 16.5 -47.5t47.5 -18.5q67 0 135 82l59 345h77z" />
    <glyph glyph-name="v" unicode="v" horiz-adv-x="455" 
d="M218 96q144 210 144 279q0 42 -40 74q13 15 35 27t40 12q38 0 38 -46q0 -26 -8 -55.5t-25.5 -64l-33 -62.5t-45 -69.5l-46 -64l-50.5 -67l-45 -59.5h-24l-66 412q-3 20 -13 28.5t-31 8.5h-28l4 24q53 15 98 15q21 0 29.5 -8.5t11.5 -28.5z" />
    <glyph glyph-name="w" unicode="w" horiz-adv-x="714" 
d="M410 478l75 -382q53 77 94.5 156.5t41.5 122.5q0 42 -40 74q13 15 35 27t40 12q38 0 38 -46q0 -44 -21.5 -99t-65 -122.5t-73.5 -109.5l-83 -111h-24l-65 315q-18 -50 -70 -146t-99 -169h-25l-76 412q-4 20 -13.5 28.5t-30.5 8.5h-28l4 24q53 15 98 15q19 0 28 -9t13 -28
l63 -333q120 206 120 285q0 23 -7 58z" />
    <glyph glyph-name="x" unicode="x" horiz-adv-x="520" 
d="M242 427l45 -121q44 72 92.5 127t87.5 55q38 0 38 -33q0 -30 -25 -63q-20 11 -37 11q-49 0 -143 -131l75 -196q13 -33 29.5 -42t63.5 -9v-23q-58 -16 -94 -16q-49 0 -72 61l-57 151q-20 -37 -50.5 -81.5t-74 -87.5t-72.5 -43q-38 0 -38 36q0 29 27 62q27 -17 44 -17
q24 0 60 41.5t90 126.5l-61 163q-15 38 -37 38q-26 0 -64 -29l-15 24q22 20 57.5 38.5t61.5 18.5q28 0 42 -14t27 -47z" />
    <glyph glyph-name="y" unicode="y" horiz-adv-x="450" 
d="M134 488q31 0 38 -40l60 -345q125 212 125 272q0 42 -40 74q12 14 35 26.5t40 12.5q19 0 28.5 -13.5t9.5 -33.5q0 -49 -35.5 -120.5t-128.5 -225.5l-60 -100q-82 -137 -130 -183.5t-105 -46.5q-51 0 -51 37q0 23 28 54q45 -24 75 -24q22 0 55.5 36t94.5 136l-73 408
q-4 21 -13.5 29t-30.5 8h-29l5 24q54 15 102 15z" />
    <glyph glyph-name="z" unicode="z" horiz-adv-x="468" 
d="M382 0h-367v22l317 418h-134q-36 0 -59 -22t-42 -73l-23 4l21 125h338v-20l-318 -420h166q38 0 59.5 25.5t43.5 80.5l23 -3z" />
    <glyph glyph-name="braceleft" unicode="{" horiz-adv-x="464" 
d="M49 305l5 24q39 8 62.5 20t37 35.5t19 43.5t13.5 64l24 133q6 35 16 61t21 43.5t29.5 29.5t33.5 18.5t41 9.5t44 3.5t51 0.5h43l-5 -28h-43q-32 0 -49.5 -3t-36.5 -14t-30.5 -36t-18.5 -67l-21 -120q-18 -100 -52 -143.5t-112 -62.5q54 -14 77 -41.5t23 -78.5
q0 -32 -17.5 -126.5t-17.5 -128.5q0 -46 23 -58.5t75 -12.5h43l-5 -28h-43q-40 0 -60.5 1t-49 6.5t-41.5 16.5t-23 32t-10 52q0 32 19.5 135t19.5 134q0 35 -18 54.5t-67 30.5z" />
    <glyph glyph-name="bar" unicode="|" horiz-adv-x="300" 
d="M187 -235h-54v1010h54v-1010z" />
    <glyph glyph-name="braceright" unicode="}" horiz-adv-x="464" 
d="M432 329l-5 -24q-39 -8 -62.5 -20t-37 -35.5t-19 -43.5t-13.5 -64l-24 -133q-6 -35 -16 -61t-21 -43.5t-29.5 -29.5t-33.5 -18.5t-41 -9.5t-44 -3.5t-51 -0.5h-43l5 28h43q32 0 49.5 3t36.5 14t30.5 36t18.5 67l21 120q18 100 52 143.5t112 62.5q-54 14 -77 41.5
t-23 78.5q0 32 17.5 126.5t17.5 128.5q0 46 -23 58.5t-75 12.5h-43l5 28h43q40 0 60.5 -1t49 -6.5t41.5 -16.5t23 -32t10 -52q0 -32 -19.5 -135t-19.5 -134q0 -35 18 -54.5t67 -30.5z" />
    <glyph glyph-name="asciitilde" unicode="~" 
d="M466 368l49 -13q-28 -115 -114 -115q-35 0 -114 31t-107 31q-27 0 -42 -17.5t-24 -52.5l-49 13q28 115 114 115q35 0 114 -31t107 -31q27 0 42 17.5t24 52.5z" />
    <glyph glyph-name="uni00A0" unicode="&#xa0;" horiz-adv-x="240" 
 />
    <glyph glyph-name="exclamdown" unicode="&#xa1;" horiz-adv-x="284" 
d="M144 278h28q-25 -353 -36 -429q-9 -59 -61 -59q-50 0 -50 51q0 15 10 57t26 99.5l31 107.5l31.5 105zM239 432q0 -27 -17.5 -46.5t-45.5 -19.5q-26 0 -41.5 17t-15.5 41q0 29 19.5 46.5t44.5 17.5t40.5 -16.5t15.5 -39.5z" />
    <glyph glyph-name="cent" unicode="&#xa2;" 
d="M203 -114l18 101q-73 5 -113 52t-40 125q0 112 71 210.5t170 111.5l19 107h39l-19 -105q140 -4 140 -77q0 -29 -21.5 -45t-57.5 -18v27q0 33 -17.5 57t-48.5 28l-73 -417h14q73 0 158 58l14 -18q-39 -39 -92.5 -65t-103.5 -31l-18 -101h-39zM150 196q0 -118 82 -146
l72 407q-64 -16 -109 -95t-45 -166z" />
    <glyph glyph-name="sterling" unicode="&#xa3;" 
d="M82 308l6 35h102q-12 78 -12 102q0 94 58.5 154.5t157.5 60.5q55 0 95.5 -24.5t40.5 -62.5q0 -27 -21 -43t-58 -17q0 113 -75 113q-53 0 -81 -46t-28 -107q0 -30 14 -130h165l-6 -35h-156q1 -6 1 -16q0 -42 -25.5 -84t-53.5 -67.5t-76 -62.5h270l54 110h23l-41 -188h-425
v21q39 28 61.5 45.5t57 50.5t52 66.5t17.5 67.5q0 22 -5 57h-112z" />
    <glyph glyph-name="currency" unicode="&#xa4;" 
d="M259 125q-62 0 -99 29l-76 -67l-32 38l78 68q-15 31 -15 73q0 82 53 145l-62 71l40 32l59 -69q49 35 110 35q59 0 96 -28l75 66l32 -38l-75 -66q16 -32 16 -71q0 -88 -55 -151l60 -70l-40 -32l-58 68q-47 -33 -107 -33zM185 254q0 -40 17.5 -69.5t57.5 -29.5
q50 0 89.5 55t39.5 143q0 97 -75 97q-50 0 -89.5 -54.5t-39.5 -141.5z" />
    <glyph glyph-name="yen" unicode="&#xa5;" 
d="M107 295l6 35h116l-94 270l-69 24l5 22h258l-5 -21l-90 -26l84 -250l169 250l-75 26l6 21h190l-6 -21l-68 -26l-186 -269h123l-6 -35h-135l-12 -69h133l-6 -35h-133l-25 -144l90 -25l-5 -22h-283l5 22l100 25l25 144h-132l6 35h132l13 69h-131z" />
    <glyph glyph-name="brokenbar" unicode="&#xa6;" horiz-adv-x="300" 
d="M187 405h-54v370h54v-370zM187 -235h-54v370h54v-370z" />
    <glyph glyph-name="section" unicode="&#xa7;" horiz-adv-x="482" 
d="M344 52q0 -65 -51 -106.5t-124 -41.5q-53 0 -90 20.5t-37 55.5q0 30 21.5 44t51.5 14v-15q0 -90 65 -90q35 0 62 26.5t27 64.5q0 26 -20.5 49t-50.5 41.5l-59.5 38.5t-50 49.5t-20.5 65.5q0 58 43 96t111 55q-72 57 -72 117q0 65 51 106.5t124 41.5q53 0 90 -20.5
t37 -55.5q0 -30 -21.5 -44t-51.5 -14v15q0 90 -65 90q-35 0 -62 -26.5t-27 -64.5q0 -26 20.5 -49t50.5 -41.5l59.5 -38.5t50 -49.5t20.5 -65.5q0 -58 -43 -96t-112 -55q73 -57 73 -117zM138 303q0 -7 1.5 -14t5.5 -14t7.5 -12.5t11.5 -12.5l12.5 -11t15 -12l15 -11.5t17 -12
t16.5 -11.5q52 10 84 33.5t32 59.5q0 6 -1.5 12.5t-4 12t-7.5 12t-8 11t-11 11l-12 10t-14 11l-14 10.5t-15.5 10.5t-15.5 10.5q-115 -24 -115 -93z" />
    <glyph glyph-name="dieresis" unicode="&#xa8;" horiz-adv-x="400" 
d="M220 647q0 -24 -15.5 -41.5t-40.5 -17.5q-24 0 -37.5 15t-13.5 37q0 26 17.5 41.5t39.5 15.5t36 -15t14 -35zM420 647q0 -24 -15.5 -41.5t-40.5 -17.5q-24 0 -37.5 15t-13.5 37q0 26 17.5 41.5t39.5 15.5t36 -15t14 -35z" />
    <glyph glyph-name="copyright" unicode="&#xa9;" horiz-adv-x="810" 
d="M765 336q0 -146 -102.5 -248t-247.5 -102t-247.5 102t-102.5 248q0 145 102.5 246.5t247.5 101.5t247.5 -101.5t102.5 -246.5zM729 336q0 130 -92 222t-222 92q-129 0 -221.5 -92t-92.5 -222q0 -131 92.5 -223t221.5 -92q131 0 222.5 92t91.5 223zM555 263l-7 -98
q-67 -26 -121 -26q-86 0 -141 52t-55 138q0 96 54.5 147.5t134.5 51.5q59 0 131 -24l3 -99h-23q-29 95 -115 95q-52 0 -80.5 -46.5t-28.5 -119.5q0 -71 32 -118.5t91 -47.5q39 0 65 25.5t34 69.5h26z" />
    <glyph glyph-name="ordfeminine" unicode="&#xaa;" horiz-adv-x="412" 
d="M177 329q-43 0 -65 34t-22 86q0 53 22 106t66.5 91t100.5 38q76 0 126 -32l-38 -214q-7 -46 -7 -53q0 -13 12 -16.5t40 -3.5v-25q-38 -11 -90 -11q-32 0 -32 36q0 11 3 25q-24 -28 -55.5 -44.5t-60.5 -16.5zM301 435l32 193q-23 28 -62 28q-45 0 -78.5 -56.5
t-33.5 -127.5q0 -42 12.5 -71t40.5 -29q36 0 89 63z" />
    <glyph glyph-name="guillemotleft" unicode="&#xab;" horiz-adv-x="544" 
d="M139 242l103 -185l-23 -17l-174 208l246 204l18 -20zM339 242l103 -185l-23 -17l-174 208l246 204l18 -20z" />
    <glyph glyph-name="logicalnot" unicode="&#xac;" 
d="M515 425v-242h-54v190h-396v52h450z" />
    <glyph glyph-name="uni00AD" unicode="&#xad;" horiz-adv-x="350" 
d="M315 223h-280l10 56h280z" />
    <glyph glyph-name="registered" unicode="&#xae;" horiz-adv-x="810" 
d="M299 183v302l-58 16v19h169q145 0 145 -92q0 -43 -31.5 -68t-84.5 -32q40 -8 68 -50l58 -89q16 -23 41 -23v-17q-18 -8 -57 -8q-34 0 -52 30l-69 117q-10 18 -20 24t-30 6h-16v-135l58 -15v-19h-179v19zM362 490v-145h36q40 0 63.5 23.5t23.5 59.5q0 66 -81 66
q-16 0 -42 -4zM765 336q0 -146 -102.5 -248t-247.5 -102t-247.5 102t-102.5 248q0 145 102.5 246.5t247.5 101.5t247.5 -101.5t102.5 -246.5zM729 336q0 130 -92 222t-222 92q-129 0 -221.5 -92t-92.5 -222q0 -131 92.5 -223t221.5 -92q131 0 222.5 92t91.5 223z" />
    <glyph glyph-name="macron" unicode="&#xaf;" horiz-adv-x="400" 
d="M411 656l-10 -60h-280l10 60h280z" />
    <glyph glyph-name="degree" unicode="&#xb0;" 
d="M305 389q47 0 79 35.5t32 91.5q0 44 -26 69.5t-65 25.5q-47 0 -79 -35.5t-32 -91.5q0 -44 26 -69.5t65 -25.5zM300 341q-64 0 -105.5 40.5t-41.5 105.5q0 71 49.5 122t127.5 51q64 0 105.5 -40.5t41.5 -105.5q0 -71 -49.5 -122t-127.5 -51z" />
    <glyph glyph-name="plusminus" unicode="&#xb1;" 
d="M515 308h-198v-177h-54v177h-198v52h198v176h54v-176h198v-52zM515 0h-450v52h450v-52z" />
    <glyph glyph-name="twosuperior" unicode="&#xb2;" horiz-adv-x="400" 
d="M256 714q-33 0 -55.5 -25t-31.5 -68q-22 0 -41.5 8.5t-19.5 27.5q0 37 50 64t110 27q62 0 98.5 -27.5t36.5 -67.5q0 -37 -23.5 -75.5t-63 -70.5t-79.5 -57t-84 -46h181l39 60h17l-30 -126h-331v19q21 15 66.5 43t79 51t70 54t56.5 67.5t20 75.5q0 29 -17.5 47.5
t-47.5 18.5z" />
    <glyph glyph-name="threesuperior" unicode="&#xb3;" horiz-adv-x="400" 
d="M390 464q0 -65 -59 -99.5t-130 -34.5q-60 0 -104.5 23.5t-44.5 53.5q0 24 19.5 39.5t46.5 17.5v-23q0 -34 24 -56.5t66 -22.5q47 0 77.5 21.5t30.5 57.5q0 80 -162 86l2 22q65 10 115.5 35.5t50.5 68.5q0 53 -66 53q-56 0 -106 -45l-17 18q23 31 66 50t89 19
q51 0 80.5 -21t29.5 -60q0 -79 -109 -104q101 -17 101 -99z" />
    <glyph glyph-name="acute" unicode="&#xb4;" horiz-adv-x="400" 
d="M190 558l-23 15q29 36 64 88.5t48 80.5q68 -8 68 -32q0 -22 -54.5 -72.5t-102.5 -79.5z" />
    <glyph glyph-name="mu" unicode="&#xb5;" horiz-adv-x="533" 
d="M402 474h77l-59 -345q-10 -60 -10 -76q0 -18 16 -22.5t62 -5.5v-23q-14 -4 -54.5 -10t-58.5 -6q-24 0 -34.5 12t-10.5 38q0 22 5 45q-76 -95 -156 -95q-36 0 -60.5 14.5t-35.5 36.5q-18 -94 -18 -120q0 -37 20 -59.5t69 -30.5q-7 -26 -23 -44t-39 -18q-33 0 -48.5 29.5
t-15.5 67.5q0 50 15 135l65 382q6 40 6 45q0 15 -15.5 20t-58.5 5l4 23q16 4 57 10t59 6q35 0 35 -37q0 -20 -10 -78l-30 -177q-11 -69 -11 -83q0 -29 17 -47.5t48 -18.5q67 0 134 82z" />
    <glyph glyph-name="paragraph" unicode="&#xb6;" horiz-adv-x="658" 
d="M322 245q-105 2 -166 46.5t-61 128.5q0 119 87 184.5t217 65.5h275l-4 -22l-100 -25l-124 -707h-45l126 716h-92l-126 -716h-45zM328 281l62 351q-89 -1 -144.5 -58.5t-55.5 -150.5q0 -60 35 -97.5t103 -44.5z" />
    <glyph glyph-name="periodcentered" unicode="&#xb7;" horiz-adv-x="250" 
d="M192 309q0 -27 -17.5 -46.5t-45.5 -19.5q-26 0 -41.5 17t-15.5 41q0 29 19.5 46.5t44.5 17.5t40.5 -16.5t15.5 -39.5z" />
    <glyph glyph-name="cedilla" unicode="&#xb8;" horiz-adv-x="400" 
d="M226 -131q0 -43 -38.5 -73.5t-89.5 -30.5q-44 0 -79 19l14 30q29 -16 64 -16q24 0 41 12.5t17 31.5q0 39 -90 42l-4 18l95 98h44l-65 -64q43 -1 67 -18.5t24 -48.5z" />
    <glyph glyph-name="onesuperior" unicode="&#xb9;" horiz-adv-x="400" 
d="M264 378l104 -17l-2 -23h-293l2 23l114 17l68 303l-120 -7l3 25l181 45h21z" />
    <glyph glyph-name="ordmasculine" unicode="&#xba;" horiz-adv-x="407" 
d="M405 557q0 -93 -55 -160.5t-133 -67.5q-55 0 -91 34t-36 95q0 93 55 159.5t132 66.5q55 0 91.5 -33.5t36.5 -93.5zM335 555q0 99 -64 99q-50 0 -80.5 -57.5t-30.5 -138.5q0 -99 63 -99q50 0 81 57t31 139z" />
    <glyph glyph-name="guillemotright" unicode="&#xbb;" horiz-adv-x="544" 
d="M35 60l167 191l-101 182l24 19l174 -206l-246 -206zM235 60l167 191l-101 182l24 19l174 -206l-246 -206z" />
    <glyph glyph-name="onequarter" unicode="&#xbc;" horiz-adv-x="1000" 
d="M241 294l104 -17l-2 -23h-293l2 23l114 17l68 303l-120 -7l3 25l181 45h21zM267 -14l-35 28l579 646l35 -28zM942 118h-81l-17 -78l71 -13l-3 -27h-229l3 27l85 13l18 78h-198v19l300 269h33l-54 -246h80zM835 310l-169 -150h133z" />
    <glyph glyph-name="onehalf" unicode="&#xbd;" horiz-adv-x="1000" 
d="M241 294l104 -17l-2 -23h-293l2 23l114 17l68 303l-120 -7l3 25l181 45h21zM232 -14l-35 28l579 646l35 -28zM803 376q-33 0 -55.5 -25t-31.5 -68q-22 0 -41.5 8.5t-19.5 27.5q0 37 50 64t110 27q62 0 98.5 -27.5t36.5 -67.5q0 -37 -23.5 -75.5t-63 -70.5t-79.5 -57
t-84 -46h181l39 60h17l-30 -126h-331v19q21 15 66.5 43t79 51t70 54t56.5 67.5t20 75.5q0 29 -17.5 47.5t-47.5 18.5z" />
    <glyph glyph-name="threequarters" unicode="&#xbe;" horiz-adv-x="1000" 
d="M264 -14l-35 28l579 646l35 -28zM942 118h-81l-17 -78l71 -13l-3 -27h-229l3 27l85 13l18 78h-198v19l300 269h33l-54 -246h80zM835 310l-169 -150h133zM388 376q0 -65 -59 -99.5t-130 -34.5q-60 0 -104.5 23.5t-44.5 53.5q0 24 19.5 39.5t46.5 17.5v-23q0 -34 24 -56.5
t66 -22.5q47 0 77.5 21.5t30.5 57.5q0 80 -162 86l2 22q65 10 115.5 35.5t50.5 68.5q0 53 -66 53q-56 0 -106 -45l-17 18q23 31 66 50t89 19q51 0 80.5 -21t29.5 -60q0 -79 -109 -104q101 -17 101 -99z" />
    <glyph glyph-name="questiondown" unicode="&#xbf;" horiz-adv-x="397" 
d="M321 -89q0 -46 -59 -83.5t-124 -37.5q-67 0 -107.5 32.5t-40.5 84.5q0 40 19 75.5t47.5 60t62 48.5t62 42t47.5 39.5t19 41.5q0 36 -43 36q-33 0 -64 -18l-9 27q44 25 93 25q43 0 71 -18.5t28 -54.5q0 -41 -27 -76.5t-65.5 -61.5l-77.5 -51.5t-66 -59.5t-27 -72
q0 -33 20.5 -53t55.5 -20q48 0 75.5 34t37.5 89q72 0 72 -29zM318 432q0 -27 -17.5 -46.5t-45.5 -19.5q-26 0 -41.5 17t-15.5 41q0 29 19.5 46.5t44.5 17.5t40.5 -16.5t15.5 -39.5z" />
    <glyph glyph-name="Agrave" unicode="&#xc0;" horiz-adv-x="745" 
d="M505 46l-39 194h-230l-107 -195l94 -24l-3 -21h-230l3 21l87 25l360 638h29l130 -640l81 -22l-3 -22h-282l3 22zM405 546l-148 -269h202zM512 746l-18 -20q-59 14 -127.5 46.5t-68.5 52.5q0 22 55 47q20 -23 71.5 -63.5t87.5 -62.5z" />
    <glyph glyph-name="Aacute" unicode="&#xc1;" horiz-adv-x="745" 
d="M505 46l-39 194h-230l-107 -195l94 -24l-3 -21h-230l3 21l87 25l360 638h29l130 -640l81 -22l-3 -22h-282l3 22zM405 546l-148 -269h202zM391 726l-18 20q36 22 87.5 62.5t71.5 63.5q55 -25 55 -47q0 -20 -68.5 -52.5t-127.5 -46.5z" />
    <glyph glyph-name="Acircumflex" unicode="&#xc2;" horiz-adv-x="745" 
d="M505 46l-39 194h-230l-107 -195l94 -24l-3 -21h-230l3 21l87 25l360 638h29l130 -640l81 -22l-3 -22h-282l3 22zM405 546l-148 -269h202zM462 884h38q19 -43 80 -141l-21 -17l-89 72l-127 -72l-18 20q31 27 77.5 73t59.5 65z" />
    <glyph glyph-name="Atilde" unicode="&#xc3;" horiz-adv-x="745" 
d="M505 46l-39 194h-230l-107 -195l94 -24l-3 -21h-230l3 21l87 25l360 638h29l130 -640l81 -22l-3 -22h-282l3 22zM405 546l-148 -269h202zM336 738l-27 10q22 63 47 91.5t60 28.5q21 0 72.5 -23.5t67.5 -23.5q30 0 56 60l27 -10q-22 -63 -47 -91.5t-60 -28.5
q-21 0 -72.5 23.5t-67.5 23.5q-30 0 -56 -60z" />
    <glyph glyph-name="Adieresis" unicode="&#xc4;" horiz-adv-x="745" 
d="M505 46l-39 194h-230l-107 -195l94 -24l-3 -21h-230l3 21l87 25l360 638h29l130 -640l81 -22l-3 -22h-282l3 22zM405 546l-148 -269h202zM418 807q0 -24 -15.5 -41.5t-40.5 -17.5q-24 0 -37.5 15t-13.5 37q0 26 17.5 41.5t39.5 15.5t36 -15t14 -35zM618 807
q0 -24 -15.5 -41.5t-40.5 -17.5q-24 0 -37.5 15t-13.5 37q0 26 17.5 41.5t39.5 15.5t36 -15t14 -35z" />
    <glyph glyph-name="Aring" unicode="&#xc5;" horiz-adv-x="745" 
d="M505 46l-39 194h-230l-107 -195l94 -24l-3 -21h-230l3 21l87 25l360 638h29l130 -640l81 -22l-3 -22h-282l3 22zM405 546l-148 -269h202zM456 719q-37 0 -59.5 20t-22.5 53q0 44 29.5 76t75.5 32q37 0 59.5 -20t22.5 -53q0 -44 -29.5 -76t-75.5 -32zM460 752
q24 0 37.5 21.5t13.5 50.5q0 21 -10 32t-26 11q-24 0 -37.5 -21.5t-13.5 -50.5q0 -21 10 -32t26 -11z" />
    <glyph glyph-name="AE" unicode="&#xc6;" horiz-adv-x="980" 
d="M365 0l4 22l98 25l34 193h-221l-151 -195l92 -24l-3 -21h-233l3 21l86 25l454 577l-88 25l5 22h530l-31 -173h-24l-25 136h-232l-47 -264h145l50 99h22l-41 -234h-22l-16 99h-144l-52 -296h229l98 164h23l-43 -201h-500zM309 277h198l59 330z" />
    <glyph glyph-name="Ccedilla" unicode="&#xc7;" horiz-adv-x="677" 
d="M419 -131q0 -43 -38.5 -73.5t-89.5 -30.5q-44 0 -79 19l14 30q29 -16 64 -16q24 0 41 12.5t17 31.5q0 39 -90 42l-4 18l82 85q-122 6 -196.5 79t-74.5 202q0 178 110.5 297t271.5 119q121 0 210 -43l-21 -153h-34q-20 163 -164 163q-122 0 -198.5 -111t-76.5 -279
q0 -110 48.5 -176t157.5 -66q72 0 126 43.5t82 122.5h38l-40 -152q-90 -42 -196 -46l-51 -51q43 -1 67 -18.5t24 -48.5z" />
    <glyph glyph-name="Egrave" unicode="&#xc8;" horiz-adv-x="610" 
d="M-5 0l4 22l98 25l101 576l-90 25l5 22h492l-31 -173h-24l-25 136h-232l-47 -264h145l50 99h22l-41 -234h-22l-16 99h-144l-52 -296h229l98 164h23l-43 -201h-500zM457 746l-18 -20q-59 14 -127.5 46.5t-68.5 52.5q0 22 55 47q20 -23 71.5 -63.5t87.5 -62.5z" />
    <glyph glyph-name="Eacute" unicode="&#xc9;" horiz-adv-x="610" 
d="M-5 0l4 22l98 25l101 576l-90 25l5 22h492l-31 -173h-24l-25 136h-232l-47 -264h145l50 99h22l-41 -234h-22l-16 99h-144l-52 -296h229l98 164h23l-43 -201h-500zM303 726l-18 20q36 22 87.5 62.5t71.5 63.5q55 -25 55 -47q0 -20 -68.5 -52.5t-127.5 -46.5z" />
    <glyph glyph-name="Ecircumflex" unicode="&#xca;" horiz-adv-x="610" 
d="M-5 0l4 22l98 25l101 576l-90 25l5 22h492l-31 -173h-24l-25 136h-232l-47 -264h145l50 99h22l-41 -234h-22l-16 99h-144l-52 -296h229l98 164h23l-43 -201h-500zM394 884h38q19 -43 80 -141l-21 -17l-89 72l-127 -72l-18 20q31 27 77.5 73t59.5 65z" />
    <glyph glyph-name="Edieresis" unicode="&#xcb;" horiz-adv-x="610" 
d="M-5 0l4 22l98 25l101 576l-90 25l5 22h492l-31 -173h-24l-25 136h-232l-47 -264h145l50 99h22l-41 -234h-22l-16 99h-144l-52 -296h229l98 164h23l-43 -201h-500zM338 807q0 -24 -15.5 -41.5t-40.5 -17.5q-24 0 -37.5 15t-13.5 37q0 26 17.5 41.5t39.5 15.5t36 -15
t14 -35zM538 807q0 -24 -15.5 -41.5t-40.5 -17.5q-24 0 -37.5 15t-13.5 37q0 26 17.5 41.5t39.5 15.5t36 -15t14 -35z" />
    <glyph glyph-name="Igrave" unicode="&#xcc;" horiz-adv-x="361" 
d="M291 623l-101 -576l92 -25l-4 -22h-283l4 22l98 25l101 576l-90 25l5 22h283l-5 -22zM343 746l-18 -20q-59 14 -127.5 46.5t-68.5 52.5q0 22 55 47q20 -23 71.5 -63.5t87.5 -62.5z" />
    <glyph glyph-name="Iacute" unicode="&#xcd;" horiz-adv-x="361" 
d="M291 623l-101 -576l92 -25l-4 -22h-283l4 22l98 25l101 576l-90 25l5 22h283l-5 -22zM197 726l-18 20q36 22 87.5 62.5t71.5 63.5q55 -25 55 -47q0 -20 -68.5 -52.5t-127.5 -46.5z" />
    <glyph glyph-name="Icircumflex" unicode="&#xce;" horiz-adv-x="361" 
d="M291 623l-101 -576l92 -25l-4 -22h-283l4 22l98 25l101 576l-90 25l5 22h283l-5 -22zM266 884h38q19 -43 80 -141l-21 -17l-89 72l-127 -72l-18 20q31 27 77.5 73t59.5 65z" />
    <glyph glyph-name="Idieresis" unicode="&#xcf;" horiz-adv-x="361" 
d="M291 623l-101 -576l92 -25l-4 -22h-283l4 22l98 25l101 576l-90 25l5 22h283l-5 -22zM219 807q0 -24 -15.5 -41.5t-40.5 -17.5q-24 0 -37.5 15t-13.5 37q0 26 17.5 41.5t39.5 15.5t36 -15t14 -35zM419 807q0 -24 -15.5 -41.5t-40.5 -17.5q-24 0 -37.5 15t-13.5 37
q0 26 17.5 41.5t39.5 15.5t36 -15t14 -35z" />
    <glyph glyph-name="Eth" unicode="&#xd0;" horiz-adv-x="774" 
d="M10 0l3 22l99 25l48 278h-99l7 44h100l45 254l-90 25l4 22h285q149 0 236.5 -67t87.5 -206q0 -80 -28 -151t-80.5 -126t-136.5 -87.5t-189 -32.5h-292zM203 36h112q86 0 151 32t102 86.5t54.5 119.5t17.5 140q0 111 -62.5 165.5t-175.5 54.5h-93l-47 -265h133l-7 -44
h-134z" />
    <glyph glyph-name="Ntilde" unicode="&#xd1;" horiz-adv-x="772" 
d="M597 -9h-27l-335 600l-96 -546l96 -23l-4 -22h-236l4 22l98 26l101 575l-90 25l5 22h187l283 -513l82 466l-95 25l4 22h238l-4 -22l-100 -25zM346 738l-27 10q22 63 47 91.5t60 28.5q21 0 72.5 -23.5t67.5 -23.5q30 0 56 60l27 -10q-22 -63 -47 -91.5t-60 -28.5
q-21 0 -72.5 23.5t-67.5 23.5q-30 0 -56 -60z" />
    <glyph glyph-name="Ograve" unicode="&#xd2;" horiz-adv-x="741" 
d="M341 -14q-132 0 -204 72.5t-72 218.5q0 101 45.5 193.5t131 153t188.5 60.5q132 0 204 -72.5t72 -218.5q0 -101 -45.5 -193.5t-131 -153t-188.5 -60.5zM335 18q121 0 198 111t77 295q0 228 -174 228q-121 0 -198 -111t-77 -295q0 -228 174 -228zM547 746l-18 -20
q-59 14 -127.5 46.5t-68.5 52.5q0 22 55 47q20 -23 71.5 -63.5t87.5 -62.5z" />
    <glyph glyph-name="Oacute" unicode="&#xd3;" horiz-adv-x="741" 
d="M341 -14q-132 0 -204 72.5t-72 218.5q0 101 45.5 193.5t131 153t188.5 60.5q132 0 204 -72.5t72 -218.5q0 -101 -45.5 -193.5t-131 -153t-188.5 -60.5zM335 18q121 0 198 111t77 295q0 228 -174 228q-121 0 -198 -111t-77 -295q0 -228 174 -228zM364 726l-18 20
q36 22 87.5 62.5t71.5 63.5q55 -25 55 -47q0 -20 -68.5 -52.5t-127.5 -46.5z" />
    <glyph glyph-name="Ocircumflex" unicode="&#xd4;" horiz-adv-x="741" 
d="M341 -14q-132 0 -204 72.5t-72 218.5q0 101 45.5 193.5t131 153t188.5 60.5q132 0 204 -72.5t72 -218.5q0 -101 -45.5 -193.5t-131 -153t-188.5 -60.5zM335 18q121 0 198 111t77 295q0 228 -174 228q-121 0 -198 -111t-77 -295q0 -228 174 -228zM458 884h38
q19 -43 80 -141l-21 -17l-89 72l-127 -72l-18 20q31 27 77.5 73t59.5 65z" />
    <glyph glyph-name="Otilde" unicode="&#xd5;" horiz-adv-x="741" 
d="M341 -14q-132 0 -204 72.5t-72 218.5q0 101 45.5 193.5t131 153t188.5 60.5q132 0 204 -72.5t72 -218.5q0 -101 -45.5 -193.5t-131 -153t-188.5 -60.5zM335 18q121 0 198 111t77 295q0 228 -174 228q-121 0 -198 -111t-77 -295q0 -228 174 -228zM318 738l-27 10
q22 63 47 91.5t60 28.5q21 0 72.5 -23.5t67.5 -23.5q30 0 56 60l27 -10q-22 -63 -47 -91.5t-60 -28.5q-21 0 -72.5 23.5t-67.5 23.5q-30 0 -56 -60z" />
    <glyph glyph-name="Odieresis" unicode="&#xd6;" horiz-adv-x="741" 
d="M341 -14q-132 0 -204 72.5t-72 218.5q0 101 45.5 193.5t131 153t188.5 60.5q132 0 204 -72.5t72 -218.5q0 -101 -45.5 -193.5t-131 -153t-188.5 -60.5zM335 18q121 0 198 111t77 295q0 228 -174 228q-121 0 -198 -111t-77 -295q0 -228 174 -228zM406 807
q0 -24 -15.5 -41.5t-40.5 -17.5q-24 0 -37.5 15t-13.5 37q0 26 17.5 41.5t39.5 15.5t36 -15t14 -35zM606 807q0 -24 -15.5 -41.5t-40.5 -17.5q-24 0 -37.5 15t-13.5 37q0 26 17.5 41.5t39.5 15.5t36 -15t14 -35z" />
    <glyph glyph-name="multiply" unicode="&#xd7;" 
d="M473 449l-145 -146l145 -145l-38 -38l-145 145l-145 -145l-38 38l145 145l-145 146l38 38l145 -146l145 146z" />
    <glyph glyph-name="Oslash" unicode="&#xd8;" horiz-adv-x="741" 
d="M341 -14q-121 0 -191 60l-73 -80h-56l101 110q-57 74 -57 201q0 101 45.5 193.5t131 153t188.5 60.5q121 0 191 -61l74 81h56l-101 -111q56 -75 56 -200q0 -101 -45.5 -193.5t-131 -153t-188.5 -60.5zM161 246q0 -66 14 -112l404 442q-44 76 -143 76q-121 0 -198 -111
t-77 -295zM335 18q121 0 198 111t77 295q0 65 -14 110l-404 -442q43 -74 143 -74z" />
    <glyph glyph-name="Ugrave" unicode="&#xd9;" horiz-adv-x="740" 
d="M781 648l-96 -25l-66 -377q-24 -136 -93 -198t-180 -62q-59 0 -112.5 19.5t-90.5 63.5t-37 105q0 31 4 52l70 397l-90 25l5 22h286l-5 -22l-103 -25l-66 -378q-7 -44 -7 -61q0 -75 50 -111t123 -36q80 0 132.5 51.5t73.5 172.5l62 362l-99 25l4 22h239zM513 746l-18 -20
q-59 14 -127.5 46.5t-68.5 52.5q0 22 55 47q20 -23 71.5 -63.5t87.5 -62.5z" />
    <glyph glyph-name="Uacute" unicode="&#xda;" horiz-adv-x="740" 
d="M781 648l-96 -25l-66 -377q-24 -136 -93 -198t-180 -62q-59 0 -112.5 19.5t-90.5 63.5t-37 105q0 31 4 52l70 397l-90 25l5 22h286l-5 -22l-103 -25l-66 -378q-7 -44 -7 -61q0 -75 50 -111t123 -36q80 0 132.5 51.5t73.5 172.5l62 362l-99 25l4 22h239zM420 726l-18 20
q36 22 87.5 62.5t71.5 63.5q55 -25 55 -47q0 -20 -68.5 -52.5t-127.5 -46.5z" />
    <glyph glyph-name="Ucircumflex" unicode="&#xdb;" horiz-adv-x="740" 
d="M781 648l-96 -25l-66 -377q-24 -136 -93 -198t-180 -62q-59 0 -112.5 19.5t-90.5 63.5t-37 105q0 31 4 52l70 397l-90 25l5 22h286l-5 -22l-103 -25l-66 -378q-7 -44 -7 -61q0 -75 50 -111t123 -36q80 0 132.5 51.5t73.5 172.5l62 362l-99 25l4 22h239zM473 884h38
q19 -43 80 -141l-21 -17l-89 72l-127 -72l-18 20q31 27 77.5 73t59.5 65z" />
    <glyph glyph-name="Udieresis" unicode="&#xdc;" horiz-adv-x="740" 
d="M781 648l-96 -25l-66 -377q-24 -136 -93 -198t-180 -62q-59 0 -112.5 19.5t-90.5 63.5t-37 105q0 31 4 52l70 397l-90 25l5 22h286l-5 -22l-103 -25l-66 -378q-7 -44 -7 -61q0 -75 50 -111t123 -36q80 0 132.5 51.5t73.5 172.5l62 362l-99 25l4 22h239zM411 807
q0 -24 -15.5 -41.5t-40.5 -17.5q-24 0 -37.5 15t-13.5 37q0 26 17.5 41.5t39.5 15.5t36 -15t14 -35zM611 807q0 -24 -15.5 -41.5t-40.5 -17.5q-24 0 -37.5 15t-13.5 37q0 26 17.5 41.5t39.5 15.5t36 -15t14 -35z" />
    <glyph glyph-name="Yacute" unicode="&#xdd;" horiz-adv-x="689" 
d="M307 281l-153 343l-69 24l5 22h283l-4 -21l-111 -26l126 -292l219 292l-101 25l5 22h237l-4 -22l-81 -25l-257 -330l-43 -246l98 -25l-4 -22h-297l4 22l106 25zM382 726l-18 20q36 22 87.5 62.5t71.5 63.5q55 -25 55 -47q0 -20 -68.5 -52.5t-127.5 -46.5z" />
    <glyph glyph-name="Thorn" unicode="&#xde;" horiz-adv-x="601" 
d="M97 47l101 576l-90 25l5 22h283l-5 -22l-100 -25l-18 -103h70q50 0 88 -6.5t71 -22t51 -46.5t18 -75q0 -90 -79.5 -148t-198.5 -58h-31l4 28q102 7 155 56.5t53 125.5q0 59 -35 85.5t-105 26.5q-34 0 -68 -7l-76 -432l101 -25l-3 -22h-293l3 22z" />
    <glyph glyph-name="germandbls" unicode="&#xdf;" horiz-adv-x="594" 
d="M43 -107l92 542h-70l7 39h69l5 28q17 100 82 162t168 62q69 0 113.5 -35.5t44.5 -89.5q0 -37 -31.5 -71.5t-69 -56.5t-69 -50.5t-31.5 -55.5q0 -20 20 -39t49 -37t58 -38.5t49 -49.5t20 -63q0 -76 -57.5 -115t-133.5 -39q-58 0 -100.5 21.5t-42.5 58.5q0 30 20 46t49 19
q0 -63 20 -90t68 -27q51 0 80 24.5t29 60.5q0 28 -20 51.5t-48.5 40.5l-57 34.5t-48.5 41.5t-20 53q0 30 19.5 58t47 51.5l55 48t47 55.5t19.5 65q0 39 -26 70t-72 31q-56 0 -96 -49t-54 -134l-90 -524q-9 -52 -32 -101t-68 -87.5t-101 -38.5q-19 0 -32.5 7t-13.5 20
q0 29 36 63q38 -40 70 -40q33 0 47 78z" />
    <glyph glyph-name="agrave" unicode="&#xe0;" horiz-adv-x="515" 
d="M164 -14q-62 0 -92 46t-30 124q0 81 30.5 155.5t92.5 125.5t141 51q81 0 149 -45l-53 -314q-10 -60 -10 -76q0 -12 11 -18t25 -7.5t42 -2.5v-23q-51 -16 -113 -16q-24 0 -34.5 12t-10.5 38q0 13 4 43q-69 -93 -152 -93zM325 128l50 291q-34 40 -80 40q-51 0 -92.5 -47.5
t-61 -109.5t-19.5 -117q0 -140 84 -140q54 0 119 83zM368 573l-23 -15q-48 29 -102.5 79.5t-54.5 72.5q0 24 68 32q13 -28 48 -80.5t64 -88.5z" />
    <glyph glyph-name="aacute" unicode="&#xe1;" horiz-adv-x="515" 
d="M164 -14q-62 0 -92 46t-30 124q0 81 30.5 155.5t92.5 125.5t141 51q81 0 149 -45l-53 -314q-10 -60 -10 -76q0 -12 11 -18t25 -7.5t42 -2.5v-23q-51 -16 -113 -16q-24 0 -34.5 12t-10.5 38q0 13 4 43q-69 -93 -152 -93zM325 128l50 291q-34 40 -80 40q-51 0 -92.5 -47.5
t-61 -109.5t-19.5 -117q0 -140 84 -140q54 0 119 83zM260 558l-23 15q29 36 64 88.5t48 80.5q68 -8 68 -32q0 -22 -54.5 -72.5t-102.5 -79.5z" />
    <glyph glyph-name="acircumflex" unicode="&#xe2;" horiz-adv-x="515" 
d="M164 -14q-62 0 -92 46t-30 124q0 81 30.5 155.5t92.5 125.5t141 51q81 0 149 -45l-53 -314q-10 -60 -10 -76q0 -12 11 -18t25 -7.5t42 -2.5v-23q-51 -16 -113 -16q-24 0 -34.5 12t-10.5 38q0 13 4 43q-69 -93 -152 -93zM325 128l50 291q-34 40 -80 40q-51 0 -92.5 -47.5
t-61 -109.5t-19.5 -117q0 -140 84 -140q54 0 119 83zM316 740h38q40 -107 78 -165l-21 -17l-89 88l-127 -88l-18 20q33 34 80 88t59 74z" />
    <glyph glyph-name="atilde" unicode="&#xe3;" horiz-adv-x="515" 
d="M164 -14q-62 0 -92 46t-30 124q0 81 30.5 155.5t92.5 125.5t141 51q81 0 149 -45l-53 -314q-10 -60 -10 -76q0 -12 11 -18t25 -7.5t42 -2.5v-23q-51 -16 -113 -16q-24 0 -34.5 12t-10.5 38q0 13 4 43q-69 -93 -152 -93zM325 128l50 291q-34 40 -80 40q-51 0 -92.5 -47.5
t-61 -109.5t-19.5 -117q0 -140 84 -140q54 0 119 83zM173 578l-27 10q22 63 47 91.5t60 28.5q21 0 72.5 -23.5t67.5 -23.5q30 0 56 60l27 -10q-22 -63 -47 -91.5t-60 -28.5q-21 0 -72.5 23.5t-67.5 23.5q-30 0 -56 -60z" />
    <glyph glyph-name="adieresis" unicode="&#xe4;" horiz-adv-x="515" 
d="M164 -14q-62 0 -92 46t-30 124q0 81 30.5 155.5t92.5 125.5t141 51q81 0 149 -45l-53 -314q-10 -60 -10 -76q0 -12 11 -18t25 -7.5t42 -2.5v-23q-51 -16 -113 -16q-24 0 -34.5 12t-10.5 38q0 13 4 43q-69 -93 -152 -93zM325 128l50 291q-34 40 -80 40q-51 0 -92.5 -47.5
t-61 -109.5t-19.5 -117q0 -140 84 -140q54 0 119 83zM263 647q0 -24 -15.5 -41.5t-40.5 -17.5q-24 0 -37.5 15t-13.5 37q0 26 17.5 41.5t39.5 15.5t36 -15t14 -35zM463 647q0 -24 -15.5 -41.5t-40.5 -17.5q-24 0 -37.5 15t-13.5 37q0 26 17.5 41.5t39.5 15.5t36 -15t14 -35z
" />
    <glyph glyph-name="aring" unicode="&#xe5;" horiz-adv-x="515" 
d="M164 -14q-62 0 -92 46t-30 124q0 81 30.5 155.5t92.5 125.5t141 51q81 0 149 -45l-53 -314q-10 -60 -10 -76q0 -12 11 -18t25 -7.5t42 -2.5v-23q-51 -16 -113 -16q-24 0 -34.5 12t-10.5 38q0 13 4 43q-69 -93 -152 -93zM325 128l50 291q-34 40 -80 40q-51 0 -92.5 -47.5
t-61 -109.5t-19.5 -117q0 -140 84 -140q54 0 119 83zM300 559q-37 0 -59.5 20t-22.5 53q0 44 29.5 76t75.5 32q37 0 59.5 -20t22.5 -53q0 -44 -29.5 -76t-75.5 -32zM304 592q24 0 37.5 21.5t13.5 50.5q0 21 -10 32t-26 11q-23 0 -37 -21.5t-14 -50.5q0 -21 10 -32t26 -11z
" />
    <glyph glyph-name="ae" unicode="&#xe6;" horiz-adv-x="721" 
d="M164 339h-16q-53 0 -53 30q0 45 64.5 82t139.5 37q97 0 122 -61q70 61 160 61q59 0 89.5 -26t30.5 -68q0 -69 -75 -114t-231 -51q-3 -24 -3 -43q0 -146 108 -146q63 0 140 50l13 -20q-38 -35 -91.5 -59.5t-104.5 -24.5q-60 0 -97 31.5t-46 79.5q-28 -51 -76 -81.5
t-105 -30.5q-44 0 -73.5 22.5t-29.5 64.5q0 32 12.5 58t36.5 44t50 31t63 22t64.5 14t64.5 9l19 108q4 24 4 40q0 34 -15.5 46.5t-41.5 12.5q-43 0 -77 -29.5t-46 -88.5zM399 257q220 26 220 148q0 25 -14.5 40t-40.5 15q-59 0 -103.5 -59.5t-61.5 -143.5zM182 34
q41 0 78.5 39.5t50.5 118.5l5 30q-20 -2 -46 -8t-62.5 -20t-61 -42t-24.5 -65q0 -25 17 -39t43 -14z" />
    <glyph glyph-name="ccedilla" unicode="&#xe7;" horiz-adv-x="452" 
d="M90 -98l82 85q-130 8 -130 170q0 78 29.5 153t89 126.5t134.5 51.5q60 0 93.5 -22t33.5 -55q0 -29 -23.5 -44.5t-58.5 -15.5v27q0 82 -56 82q-45 0 -83 -46t-58 -109t-20 -120q0 -69 26 -107t77 -38q56 0 135 50l13 -20q-73 -67 -157 -81l-53 -53q43 -1 67 -18.5
t24 -48.5q0 -43 -38.5 -73.5t-89.5 -30.5q-44 0 -79 19l14 30q29 -16 64 -16q24 0 41 12.5t17 31.5q0 39 -90 42z" />
    <glyph glyph-name="egrave" unicode="&#xe8;" horiz-adv-x="452" 
d="M188 -14q-66 0 -106 40t-40 131q0 59 17.5 117t50 106t85.5 78t117 30q59 0 89.5 -26t30.5 -68q0 -70 -77 -115.5t-229 -46.5q-3 -24 -3 -47q0 -145 108 -145q63 0 140 50l13 -20q-38 -35 -91.5 -59.5t-104.5 -24.5zM295 460q-60 0 -104 -59t-60 -141q35 1 71 9t70.5 24
t56 45t21.5 67q0 23 -14 39t-41 16zM315 573l-23 -15q-48 29 -102.5 79.5t-54.5 72.5q0 24 68 32q13 -28 48 -80.5t64 -88.5z" />
    <glyph glyph-name="eacute" unicode="&#xe9;" horiz-adv-x="452" 
d="M188 -14q-66 0 -106 40t-40 131q0 59 17.5 117t50 106t85.5 78t117 30q59 0 89.5 -26t30.5 -68q0 -70 -77 -115.5t-229 -46.5q-3 -24 -3 -47q0 -145 108 -145q63 0 140 50l13 -20q-38 -35 -91.5 -59.5t-104.5 -24.5zM295 460q-60 0 -104 -59t-60 -141q35 1 71 9t70.5 24
t56 45t21.5 67q0 23 -14 39t-41 16zM226 558l-23 15q29 36 64 88.5t48 80.5q68 -8 68 -32q0 -22 -54.5 -72.5t-102.5 -79.5z" />
    <glyph glyph-name="ecircumflex" unicode="&#xea;" horiz-adv-x="452" 
d="M188 -14q-66 0 -106 40t-40 131q0 59 17.5 117t50 106t85.5 78t117 30q59 0 89.5 -26t30.5 -68q0 -70 -77 -115.5t-229 -46.5q-3 -24 -3 -47q0 -145 108 -145q63 0 140 50l13 -20q-38 -35 -91.5 -59.5t-104.5 -24.5zM295 460q-60 0 -104 -59t-60 -141q35 1 71 9t70.5 24
t56 45t21.5 67q0 23 -14 39t-41 16zM295 740h38q40 -107 78 -165l-21 -17l-89 88l-127 -88l-18 20q33 34 80 88t59 74z" />
    <glyph glyph-name="edieresis" unicode="&#xeb;" horiz-adv-x="452" 
d="M188 -14q-66 0 -106 40t-40 131q0 59 17.5 117t50 106t85.5 78t117 30q59 0 89.5 -26t30.5 -68q0 -70 -77 -115.5t-229 -46.5q-3 -24 -3 -47q0 -145 108 -145q63 0 140 50l13 -20q-38 -35 -91.5 -59.5t-104.5 -24.5zM295 460q-60 0 -104 -59t-60 -141q35 1 71 9t70.5 24
t56 45t21.5 67q0 23 -14 39t-41 16zM248 647q0 -24 -15.5 -41.5t-40.5 -17.5q-24 0 -37.5 15t-13.5 37q0 26 17.5 41.5t39.5 15.5t36 -15t14 -35zM448 647q0 -24 -15.5 -41.5t-40.5 -17.5q-24 0 -37.5 15t-13.5 37q0 26 17.5 41.5t39.5 15.5t36 -15t14 -35z" />
    <glyph glyph-name="igrave" unicode="&#xec;" horiz-adv-x="272" 
d="M197 373l-48 -278q-6 -32 -6 -42q0 -17 16.5 -22.5t62.5 -5.5v-23q-61 -16 -114 -16q-45 0 -45 39q0 20 9 76l48 278q6 40 6 45q0 15 -16.5 20t-59.5 5l4 23q64 16 118 16q35 0 35 -37q0 -20 -10 -78zM219 573l-23 -15q-48 29 -102.5 79.5t-54.5 72.5q0 24 68 32
q13 -28 48 -80.5t64 -88.5z" />
    <glyph glyph-name="iacute" unicode="&#xed;" horiz-adv-x="267" 
d="M197 373l-48 -278q-6 -32 -6 -42q0 -17 16.5 -22.5t62.5 -5.5v-23q-61 -16 -114 -16q-45 0 -45 39q0 20 9 76l48 278q6 40 6 45q0 15 -16.5 20t-59.5 5l4 23q64 16 118 16q35 0 35 -37q0 -20 -10 -78zM119 558l-23 15q29 36 64 88.5t48 80.5q68 -8 68 -32
q0 -22 -54.5 -72.5t-102.5 -79.5z" />
    <glyph glyph-name="icircumflex" unicode="&#xee;" horiz-adv-x="272" 
d="M197 373l-48 -278q-6 -32 -6 -42q0 -17 16.5 -22.5t62.5 -5.5v-23q-61 -16 -114 -16q-45 0 -45 39q0 20 9 76l48 278q6 40 6 45q0 15 -16.5 20t-59.5 5l4 23q64 16 118 16q35 0 35 -37q0 -20 -10 -78zM175 740h38q40 -107 78 -165l-21 -17l-89 88l-127 -88l-18 20
q33 34 80 88t59 74z" />
    <glyph glyph-name="idieresis" unicode="&#xef;" horiz-adv-x="272" 
d="M197 373l-48 -278q-6 -32 -6 -42q0 -17 16.5 -22.5t62.5 -5.5v-23q-61 -16 -114 -16q-45 0 -45 39q0 20 9 76l48 278q6 40 6 45q0 15 -16.5 20t-59.5 5l4 23q64 16 118 16q35 0 35 -37q0 -20 -10 -78zM130 647q0 -24 -15.5 -41.5t-40.5 -17.5q-24 0 -37.5 15t-13.5 37
q0 26 17.5 41.5t39.5 15.5t36 -15t14 -35zM330 647q0 -24 -15.5 -41.5t-40.5 -17.5q-24 0 -37.5 15t-13.5 37q0 26 17.5 41.5t39.5 15.5t36 -15t14 -35z" />
    <glyph glyph-name="eth" unicode="&#xf0;" horiz-adv-x="503" 
d="M196 526l6 48l95 42q-41 57 -101 93l15 25q72 -26 137 -95l108 48l-6 -48l-73 -33q88 -113 88 -259q0 -149 -73.5 -255t-184.5 -106q-79 0 -122 45t-43 138q0 118 69.5 210t168.5 92q44 0 88 -18q-13 68 -47 128zM379 349q0 30 -5 68q-33 10 -74 10q-72 0 -123 -73.5
t-51 -196.5q0 -62 24.5 -102.5t65.5 -40.5q60 0 111.5 90.5t51.5 244.5z" />
    <glyph glyph-name="ntilde" unicode="&#xf1;" horiz-adv-x="552" 
d="M132 0h-77l65 379q6 40 6 45q0 15 -16 20t-60 5l4 23q15 4 56.5 10t61.5 6q35 0 35 -37q0 -21 -7 -61q77 98 162 98q55 0 86.5 -35t31.5 -85q0 -31 -10 -91l-31 -182q-6 -32 -6 -42q0 -17 17 -22.5t62 -5.5v-23q-61 -16 -114 -16q-46 0 -46 37q0 24 10 78l31 178
q9 60 9 78q0 31 -17.5 50.5t-49.5 19.5q-66 0 -144 -87zM177 578l-27 10q22 63 47 91.5t60 28.5q21 0 72.5 -23.5t67.5 -23.5q30 0 56 60l27 -10q-22 -63 -47 -91.5t-60 -28.5q-21 0 -72.5 23.5t-67.5 23.5q-30 0 -56 -60z" />
    <glyph glyph-name="ograve" unicode="&#xf2;" horiz-adv-x="505" 
d="M463 314q0 -134 -72 -231t-182 -97q-79 0 -123 43t-44 131q0 134 72 231t182 97q79 0 123 -43t44 -131zM382 306q0 71 -25 112.5t-70 41.5q-72 0 -118 -87.5t-46 -204.5q0 -71 25 -112.5t70 -41.5q72 0 118 87.5t46 204.5zM360 573l-23 -15q-48 29 -102.5 79.5
t-54.5 72.5q0 24 68 32q13 -28 48 -80.5t64 -88.5z" />
    <glyph glyph-name="oacute" unicode="&#xf3;" horiz-adv-x="505" 
d="M463 314q0 -134 -72 -231t-182 -97q-79 0 -123 43t-44 131q0 134 72 231t182 97q79 0 123 -43t44 -131zM382 306q0 71 -25 112.5t-70 41.5q-72 0 -118 -87.5t-46 -204.5q0 -71 25 -112.5t70 -41.5q72 0 118 87.5t46 204.5zM254 558l-23 15q29 36 64 88.5t48 80.5
q68 -8 68 -32q0 -22 -54.5 -72.5t-102.5 -79.5z" />
    <glyph glyph-name="ocircumflex" unicode="&#xf4;" horiz-adv-x="505" 
d="M463 314q0 -134 -72 -231t-182 -97q-79 0 -123 43t-44 131q0 134 72 231t182 97q79 0 123 -43t44 -131zM382 306q0 71 -25 112.5t-70 41.5q-72 0 -118 -87.5t-46 -204.5q0 -71 25 -112.5t70 -41.5q72 0 118 87.5t46 204.5zM306 740h38q40 -107 78 -165l-21 -17l-89 88
l-127 -88l-18 20q33 34 80 88t59 74z" />
    <glyph glyph-name="otilde" unicode="&#xf5;" horiz-adv-x="505" 
d="M463 314q0 -134 -72 -231t-182 -97q-79 0 -123 43t-44 131q0 134 72 231t182 97q79 0 123 -43t44 -131zM382 306q0 71 -25 112.5t-70 41.5q-72 0 -118 -87.5t-46 -204.5q0 -71 25 -112.5t70 -41.5q72 0 118 87.5t46 204.5zM165 578l-27 10q22 63 47 91.5t60 28.5
q21 0 72.5 -23.5t67.5 -23.5q30 0 56 60l27 -10q-22 -63 -47 -91.5t-60 -28.5q-21 0 -72.5 23.5t-67.5 23.5q-30 0 -56 -60z" />
    <glyph glyph-name="odieresis" unicode="&#xf6;" horiz-adv-x="505" 
d="M463 314q0 -134 -72 -231t-182 -97q-79 0 -123 43t-44 131q0 134 72 231t182 97q79 0 123 -43t44 -131zM382 306q0 71 -25 112.5t-70 41.5q-72 0 -118 -87.5t-46 -204.5q0 -71 25 -112.5t70 -41.5q72 0 118 87.5t46 204.5zM254 647q0 -24 -15.5 -41.5t-40.5 -17.5
q-24 0 -37.5 15t-13.5 37q0 26 17.5 41.5t39.5 15.5t36 -15t14 -35zM454 647q0 -24 -15.5 -41.5t-40.5 -17.5q-24 0 -37.5 15t-13.5 37q0 26 17.5 41.5t39.5 15.5t36 -15t14 -35z" />
    <glyph glyph-name="divide" unicode="&#xf7;" 
d="M515 278h-450v52h450v-52zM235 464q0 22 16.5 38.5t38.5 16.5t38.5 -16.5t16.5 -38.5t-16.5 -38.5t-38.5 -16.5t-38.5 16.5t-16.5 38.5zM235 144q0 22 16.5 38.5t38.5 16.5t38.5 -16.5t16.5 -38.5t-16.5 -38.5t-38.5 -16.5t-38.5 16.5t-16.5 38.5z" />
    <glyph glyph-name="oslash" unicode="&#xf8;" horiz-adv-x="505" 
d="M463 314q0 -134 -72 -231t-182 -97q-68 0 -109 31l-34 -42h-52l58 71q-30 42 -30 114q0 134 72 231t182 97q67 0 108 -31l34 42h52l-58 -71q31 -43 31 -114zM382 306q0 26 -5 54l-236 -292q25 -54 77 -54q72 0 118 87.5t46 204.5zM123 168q0 -32 4 -53l236 291
q-25 54 -76 54q-72 0 -118 -87.5t-46 -204.5z" />
    <glyph glyph-name="ugrave" unicode="&#xf9;" horiz-adv-x="533" 
d="M479 474l-59 -345q-10 -60 -10 -76q0 -18 16 -22.5t62 -5.5v-23q-14 -4 -54.5 -10t-58.5 -6q-24 0 -34.5 12t-10.5 38q0 18 5 45q-72 -95 -157 -95q-55 0 -83.5 34t-28.5 84q0 29 11 91l31 184q6 40 6 45q0 15 -15.5 20t-58.5 5l4 23q16 4 57 10t59 6q35 0 35 -37
q0 -20 -10 -78l-30 -177q-11 -63 -11 -83q0 -29 16.5 -47.5t47.5 -18.5q67 0 135 82l59 345h77zM327 573l-23 -15q-48 29 -102.5 79.5t-54.5 72.5q0 24 68 32q13 -28 48 -80.5t64 -88.5z" />
    <glyph glyph-name="uacute" unicode="&#xfa;" horiz-adv-x="533" 
d="M479 474l-59 -345q-10 -60 -10 -76q0 -18 16 -22.5t62 -5.5v-23q-14 -4 -54.5 -10t-58.5 -6q-24 0 -34.5 12t-10.5 38q0 18 5 45q-72 -95 -157 -95q-55 0 -83.5 34t-28.5 84q0 29 11 91l31 184q6 40 6 45q0 15 -15.5 20t-58.5 5l4 23q16 4 57 10t59 6q35 0 35 -37
q0 -20 -10 -78l-30 -177q-11 -63 -11 -83q0 -29 16.5 -47.5t47.5 -18.5q67 0 135 82l59 345h77zM276 558l-23 15q29 36 64 88.5t48 80.5q68 -8 68 -32q0 -22 -54.5 -72.5t-102.5 -79.5z" />
    <glyph glyph-name="ucircumflex" unicode="&#xfb;" horiz-adv-x="533" 
d="M479 474l-59 -345q-10 -60 -10 -76q0 -18 16 -22.5t62 -5.5v-23q-14 -4 -54.5 -10t-58.5 -6q-24 0 -34.5 12t-10.5 38q0 18 5 45q-72 -95 -157 -95q-55 0 -83.5 34t-28.5 84q0 29 11 91l31 184q6 40 6 45q0 15 -15.5 20t-58.5 5l4 23q16 4 57 10t59 6q35 0 35 -37
q0 -20 -10 -78l-30 -177q-11 -63 -11 -83q0 -29 16.5 -47.5t47.5 -18.5q67 0 135 82l59 345h77zM304 740h38q40 -107 78 -165l-21 -17l-89 88l-127 -88l-18 20q33 34 80 88t59 74z" />
    <glyph glyph-name="udieresis" unicode="&#xfc;" horiz-adv-x="533" 
d="M479 474l-59 -345q-10 -60 -10 -76q0 -18 16 -22.5t62 -5.5v-23q-14 -4 -54.5 -10t-58.5 -6q-24 0 -34.5 12t-10.5 38q0 18 5 45q-72 -95 -157 -95q-55 0 -83.5 34t-28.5 84q0 29 11 91l31 184q6 40 6 45q0 15 -15.5 20t-58.5 5l4 23q16 4 57 10t59 6q35 0 35 -37
q0 -20 -10 -78l-30 -177q-11 -63 -11 -83q0 -29 16.5 -47.5t47.5 -18.5q67 0 135 82l59 345h77zM256 647q0 -24 -15.5 -41.5t-40.5 -17.5q-24 0 -37.5 15t-13.5 37q0 26 17.5 41.5t39.5 15.5t36 -15t14 -35zM456 647q0 -24 -15.5 -41.5t-40.5 -17.5q-24 0 -37.5 15t-13.5 37
q0 26 17.5 41.5t39.5 15.5t36 -15t14 -35z" />
    <glyph glyph-name="yacute" unicode="&#xfd;" horiz-adv-x="450" 
d="M134 488q31 0 38 -40l60 -345q125 212 125 272q0 42 -40 74q12 14 35 26.5t40 12.5q19 0 28.5 -13.5t9.5 -33.5q0 -49 -35.5 -120.5t-128.5 -225.5l-60 -100q-82 -137 -130 -183.5t-105 -46.5q-51 0 -51 37q0 23 28 54q45 -24 75 -24q22 0 55.5 36t94.5 136l-73 408
q-4 21 -13.5 29t-30.5 8h-29l5 24q54 15 102 15zM235 558l-23 15q29 36 64 88.5t48 80.5q68 -8 68 -32q0 -22 -54.5 -72.5t-102.5 -79.5z" />
    <glyph glyph-name="thorn" unicode="&#xfe;" horiz-adv-x="527" 
d="M192 338l-51 -282q36 -41 89 -41q70 0 120.5 85.5t50.5 188.5q0 138 -82 138q-54 0 -127 -89zM131 -1l-33 -187l85 -22v-20h-231v21l70 20l139 806q6 40 6 45q0 15 -16.5 20t-59.5 5l4 23q64 16 118 16q35 0 35 -37q0 -20 -10 -78l-37 -219q77 96 157 96q64 0 94 -46
t30 -124q0 -83 -31 -158t-92.5 -124.5t-139.5 -49.5q-45 0 -88 13z" />
    <glyph glyph-name="ydieresis" unicode="&#xff;" horiz-adv-x="450" 
d="M134 488q31 0 38 -40l60 -345q125 212 125 272q0 42 -40 74q12 14 35 26.5t40 12.5q19 0 28.5 -13.5t9.5 -33.5q0 -49 -35.5 -120.5t-128.5 -225.5l-60 -100q-82 -137 -130 -183.5t-105 -46.5q-51 0 -51 37q0 23 28 54q45 -24 75 -24q22 0 55.5 36t94.5 136l-73 408
q-4 21 -13.5 29t-30.5 8h-29l5 24q54 15 102 15zM227 647q0 -24 -15.5 -41.5t-40.5 -17.5q-24 0 -37.5 15t-13.5 37q0 26 17.5 41.5t39.5 15.5t36 -15t14 -35zM427 647q0 -24 -15.5 -41.5t-40.5 -17.5q-24 0 -37.5 15t-13.5 37q0 26 17.5 41.5t39.5 15.5t36 -15t14 -35z" />
    <glyph glyph-name="dotlessi" unicode="&#x131;" horiz-adv-x="272" 
d="M197 373l-48 -278q-6 -32 -6 -42q0 -17 16.5 -22.5t62.5 -5.5v-23q-61 -16 -114 -16q-45 0 -45 39q0 20 9 76l48 278q6 40 6 45q0 15 -16.5 20t-59.5 5l4 23q64 16 118 16q35 0 35 -37q0 -20 -10 -78z" />
    <glyph glyph-name="Lslash" unicode="&#x141;" horiz-adv-x="594" 
d="M291 623l-45 -257l136 35l-8 -45l-136 -35l-50 -284h230l98 164h23l-43 -201h-501l3 22l99 25l44 249l-101 -25l7 45l102 26l49 281l-90 25l4 22h293l-4 -22z" />
    <glyph glyph-name="lslash" unicode="&#x142;" horiz-adv-x="278" 
d="M30 310l8 48l77 29l40 230q6 40 6 45q0 15 -16.5 20t-59.5 5l4 23q64 16 118 16q35 0 35 -37q0 -20 -10 -78l-33 -192l84 32l-8 -48l-85 -32l-47 -276q-6 -32 -6 -42q0 -17 17 -22.5t62 -5.5v-23q-64 -16 -114 -16q-46 0 -46 37q0 24 10 78l41 238z" />
    <glyph glyph-name="OE" unicode="&#x152;" horiz-adv-x="920" 
d="M510 636h-71q-70 0 -125.5 -33.5t-87.5 -88.5t-48.5 -118.5t-16.5 -129.5q0 -123 49.5 -177.5t145.5 -54.5h49zM805 0h-468q-137 0 -204.5 72t-67.5 197q0 112 45.5 202t136.5 144.5t213 54.5h455l-31 -173h-24l-25 136h-232l-47 -264h145l50 99h21l-40 -234h-22l-16 99
h-144l-52 -296h229l99 164h22z" />
    <glyph glyph-name="oe" unicode="&#x153;" horiz-adv-x="782" 
d="M384 75q-72 -89 -175 -89q-79 0 -123 43t-44 131q0 134 72 231t182 97q113 0 154 -95q76 95 192 95q59 0 89.5 -26t30.5 -68q0 -70 -77.5 -115.5t-228.5 -46.5q-3 -24 -3 -46q0 -146 108 -146q63 0 140 50l13 -20q-38 -35 -91.5 -59.5t-104.5 -24.5q-105 0 -134 89z
M625 460q-61 0 -104.5 -59t-59.5 -141q35 1 71 9t70.5 24t56 45t21.5 67q0 23 -14 39t-41 16zM382 306q0 68 -24 111t-71 43q-72 0 -118 -87.5t-46 -204.5q0 -71 25 -112.5t70 -41.5q72 0 118 87.5t46 204.5z" />
    <glyph glyph-name="Scaron" unicode="&#x160;" horiz-adv-x="535" 
d="M474 197q0 -97 -74 -154t-180 -57q-50 0 -105.5 14t-89.5 33l21 164h35q3 -177 146 -177q62 0 110 36t48 98q0 41 -28.5 75t-68.5 59l-80.5 51t-69 63.5t-28.5 82.5q0 87 65 143t163 56q41 0 93 -10t84 -22l-30 -150h-34q0 150 -118 150q-60 0 -101.5 -33.5t-41.5 -86.5
q0 -38 29.5 -71t71 -58.5l83 -52.5t71 -66.5t29.5 -86.5zM356 733h-38q-19 43 -80 141l21 17l89 -72l127 72l18 -20q-31 -27 -77.5 -73t-59.5 -65z" />
    <glyph glyph-name="scaron" unicode="&#x161;" horiz-adv-x="409" 
d="M160 -14q-65 0 -107.5 21.5t-42.5 56.5q0 26 21.5 45t53.5 22v-26q0 -92 93 -92q40 0 69 25.5t29 61.5q0 28 -21 50t-51 38.5l-60.5 34.5t-51.5 46t-21 65q0 67 50 110.5t123 43.5q59 0 97 -20t38 -54q0 -60 -78 -60v23q0 83 -73 83q-34 0 -62.5 -25.5t-28.5 -66.5
q0 -33 33.5 -60.5t73 -45t73 -49.5t33.5 -74q0 -73 -56.5 -113t-133.5 -40zM255 564h-38q-40 107 -78 165l21 17l89 -88l127 88l18 -20q-33 -34 -80 -88t-59 -74z" />
    <glyph glyph-name="Ydieresis" unicode="&#x178;" horiz-adv-x="689" 
d="M307 281l-153 343l-69 24l5 22h283l-4 -21l-111 -26l126 -292l219 292l-101 25l5 22h237l-4 -22l-81 -25l-257 -330l-43 -246l98 -25l-4 -22h-297l4 22l106 25zM396 807q0 -24 -15.5 -41.5t-40.5 -17.5q-24 0 -37.5 15t-13.5 37q0 26 17.5 41.5t39.5 15.5t36 -15t14 -35z
M596 807q0 -24 -15.5 -41.5t-40.5 -17.5q-24 0 -37.5 15t-13.5 37q0 26 17.5 41.5t39.5 15.5t36 -15t14 -35z" />
    <glyph glyph-name="Zcaron" unicode="&#x17d;" horiz-adv-x="622" 
d="M569 201l-43 -201h-521v20l495 613h-295l-73 -136h-25l31 173h484v-20l-494 -614h324l94 165h23zM376 733h-38q-19 43 -80 141l21 17l89 -72l127 72l18 -20q-31 -27 -77.5 -73t-59.5 -65z" />
    <glyph glyph-name="zcaron" unicode="&#x17e;" horiz-adv-x="468" 
d="M382 0h-367v22l317 418h-134q-36 0 -59 -22t-42 -73l-23 4l21 125h338v-20l-318 -420h166q38 0 59.5 25.5t43.5 80.5l23 -3zM273 564h-38q-40 107 -78 165l21 17l89 -88l127 88l18 -20q-33 -34 -80 -88t-59 -74z" />
    <glyph glyph-name="florin" unicode="&#x192;" 
d="M122 372l7 35h105l5 27q19 109 94 167.5t161 58.5q33 0 33 -34q0 -15 -11.5 -32t-24.5 -25q-46 30 -90 30q-36 0 -52 -34.5t-30 -119.5l-7 -38h144l-7 -35h-143l-50 -294q-19 -110 -78.5 -170t-144.5 -60q-43 0 -43 28q0 29 36 60q44 -39 77 -39q28 0 41 29t27 109
l57 337h-106z" />
    <glyph glyph-name="circumflex" unicode="&#x2c6;" horiz-adv-x="400" 
d="M272 740h38q40 -107 78 -165l-21 -17l-89 88l-127 -88l-18 20q33 34 80 88t59 74z" />
    <glyph glyph-name="caron" unicode="&#x2c7;" horiz-adv-x="400" 
d="M264 564h-38q-40 107 -78 165l21 17l89 -88l127 88l18 -20q-33 -34 -80 -88t-59 -74z" />
    <glyph glyph-name="breve" unicode="&#x2d8;" horiz-adv-x="400" 
d="M260 567q-53 0 -86 31.5t-33 84.5q0 18 3 36l25 7q3 -46 28.5 -71.5t68.5 -25.5q85 0 130 97l24 -7q-15 -69 -56.5 -110.5t-103.5 -41.5z" />
    <glyph glyph-name="dotaccent" unicode="&#x2d9;" horiz-adv-x="400" 
d="M323 648q0 -25 -17 -44t-43 -19q-25 0 -40 16t-15 40q0 28 18.5 44.5t42.5 16.5t39 -16t15 -38z" />
    <glyph glyph-name="ring" unicode="&#x2da;" horiz-adv-x="400" 
d="M258 559q-37 0 -59.5 20t-22.5 53q0 44 29.5 76t75.5 32q37 0 59.5 -20t22.5 -53q0 -44 -29.5 -76t-75.5 -32zM262 592q24 0 37.5 21.5t13.5 50.5q0 21 -10 32t-26 11q-24 0 -37.5 -21.5t-13.5 -50.5q0 -21 10 -32t26 -11z" />
    <glyph glyph-name="ogonek" unicode="&#x2db;" horiz-adv-x="400" 
d="M191 0h38q-51 -27 -88 -74t-37 -91q0 -35 31 -35q28 0 61 24l14 -25q-52 -34 -101 -34q-37 0 -57 17.5t-20 43.5q0 49 46.5 99.5t112.5 74.5z" />
    <glyph glyph-name="tilde" unicode="&#x2dc;" horiz-adv-x="400" 
d="M136 578l-27 10q22 63 47 91.5t60 28.5q21 0 72.5 -23.5t67.5 -23.5q30 0 56 60l27 -10q-22 -63 -47 -91.5t-60 -28.5q-21 0 -72.5 23.5t-67.5 23.5q-30 0 -56 -60z" />
    <glyph glyph-name="hungarumlaut" unicode="&#x2dd;" horiz-adv-x="400" 
d="M279 554l-23 15q25 31 59 88.5t45 84.5q58 -4 58 -29q0 -21 -45.5 -71.5t-93.5 -87.5zM135 554l-23 15q25 31 59 88.5t45 84.5q58 -4 58 -29q0 -21 -45.5 -71.5t-93.5 -87.5z" />
    <glyph glyph-name="pi" unicode="&#x3c0;" horiz-adv-x="566" 
d="M555 534l21 -9q-22 -77 -50 -114t-82 -37q-12 0 -42 2q-55 -176 -55 -246q0 -67 94 -76q-10 -28 -33.5 -48t-49.5 -20q-59 0 -59 83q0 88 71 309l-133 13q-98 -239 -98 -332q0 -35 14 -55q-24 -18 -47 -18t-23 30q0 52 39 165t84 212q-29 3 -50 3q-36 0 -55.5 -14.5
t-40.5 -56.5l-21 9q22 77 50 114t82 37q32 0 143.5 -11t144.5 -11q36 0 55.5 14.5t40.5 56.5z" />
    <glyph glyph-name="uni200A" unicode="&#x200a;" horiz-adv-x="50" 
 />
    <glyph glyph-name="endash" unicode="&#x2013;" horiz-adv-x="600" 
d="M565 223h-530l10 56h530z" />
    <glyph glyph-name="emdash" unicode="&#x2014;" horiz-adv-x="900" 
d="M865 223h-830l10 56h830z" />
    <glyph glyph-name="quoteleft" unicode="&#x2018;" horiz-adv-x="257" 
d="M166 439q-27 0 -44.5 18t-17.5 49q0 46 30 94.5t87 84.5l16 -27q-68 -47 -87 -106h15q27 0 43 -13.5t16 -36.5q0 -28 -17 -45.5t-41 -17.5z" />
    <glyph glyph-name="quoteright" unicode="&#x2019;" horiz-adv-x="257" 
d="M191 684q27 0 44.5 -18t17.5 -49q0 -46 -30 -94.5t-87 -84.5l-16 27q68 47 87 106h-15q-27 0 -43 13.5t-16 36.5q0 28 17 45.5t41 17.5z" />
    <glyph glyph-name="quotesinglbase" unicode="&#x201a;" horiz-adv-x="257" 
d="M97 105q27 0 44.5 -18t17.5 -49q0 -46 -30 -94.5t-87 -84.5l-16 27q68 47 87 106h-15q-27 0 -43 13.5t-16 36.5q0 28 17 45.5t41 17.5z" />
    <glyph glyph-name="quotedblleft" unicode="&#x201c;" horiz-adv-x="427" 
d="M336 439q-27 0 -44.5 18t-17.5 49q0 46 30 94.5t87 84.5l16 -27q-68 -47 -87 -106h15q27 0 43 -13.5t16 -36.5q0 -28 -17 -45.5t-41 -17.5zM166 439q-27 0 -44.5 18t-17.5 49q0 46 30 94.5t87 84.5l16 -27q-68 -47 -87 -106h15q27 0 43 -13.5t16 -36.5q0 -28 -17 -45.5
t-41 -17.5z" />
    <glyph glyph-name="quotedblright" unicode="&#x201d;" horiz-adv-x="427" 
d="M191 684q27 0 44.5 -18t17.5 -49q0 -46 -30 -94.5t-87 -84.5l-16 27q68 47 87 106h-15q-27 0 -43 13.5t-16 36.5q0 28 17 45.5t41 17.5zM361 684q27 0 44.5 -18t17.5 -49q0 -46 -30 -94.5t-87 -84.5l-16 27q68 47 87 106h-15q-27 0 -43 13.5t-16 36.5q0 28 17 45.5
t41 17.5z" />
    <glyph glyph-name="quotedblbase" unicode="&#x201e;" horiz-adv-x="427" 
d="M97 105q27 0 44.5 -18t17.5 -49q0 -46 -30 -94.5t-87 -84.5l-16 27q68 47 87 106h-15q-27 0 -43 13.5t-16 36.5q0 28 17 45.5t41 17.5zM267 105q27 0 44.5 -18t17.5 -49q0 -46 -30 -94.5t-87 -84.5l-16 27q68 47 87 106h-15q-27 0 -43 13.5t-16 36.5q0 28 17 45.5
t41 17.5z" />
    <glyph glyph-name="dagger" unicode="&#x2020;" horiz-adv-x="500" 
d="M254 413l-186 -12l13 70l181 -12l26 211h70l-50 -211l187 12l-13 -70l-182 12l-75 -497h-70z" />
    <glyph glyph-name="daggerdbl" unicode="&#x2021;" horiz-adv-x="500" 
d="M304 413l-42 -240l182 12l-12 -70l-182 12l-25 -211h-70l49 211l-186 -12l12 70l178 -12l42 240l-182 -12l13 70l181 -12l26 211h70l-50 -211l187 12l-13 -70z" />
    <glyph glyph-name="bullet" unicode="&#x2022;" horiz-adv-x="400" 
d="M344 314q0 -58 -38.5 -100.5t-98.5 -42.5q-57 0 -91 36.5t-34 88.5q0 64 42.5 102t97.5 38q54 0 88 -36.5t34 -85.5z" />
    <glyph glyph-name="ellipsis" unicode="&#x2026;" horiz-adv-x="750" 
d="M165 52q0 -27 -17.5 -46.5t-45.5 -19.5q-26 0 -41.5 17t-15.5 41q0 29 19.5 46.5t44.5 17.5t40.5 -16.5t15.5 -39.5zM415 52q0 -27 -17.5 -46.5t-45.5 -19.5q-26 0 -41.5 17t-15.5 41q0 29 19.5 46.5t44.5 17.5t40.5 -16.5t15.5 -39.5zM665 52q0 -27 -17.5 -46.5
t-45.5 -19.5q-26 0 -41.5 17t-15.5 41q0 29 19.5 46.5t44.5 17.5t40.5 -16.5t15.5 -39.5z" />
    <glyph glyph-name="perthousand" unicode="&#x2030;" horiz-adv-x="1150" 
d="M130 -14l-35 28l580 646l35 -28zM270 660q61 0 93 -35.5t32 -90.5q0 -76 -53 -133.5t-131 -57.5q-61 0 -93 35.5t-32 90.5q0 76 53 133.5t131 57.5zM219 368q52 0 79.5 51.5t27.5 117.5q0 98 -64 98q-52 0 -79.5 -51.5t-27.5 -117.5q0 -98 64 -98zM535 -14
q-61 0 -93 35.5t-32 90.5q0 76 53 133.5t131 57.5q61 0 93 -35.5t32 -90.5q0 -76 -53 -133.5t-131 -57.5zM586 278q-52 0 -79.5 -51.5t-27.5 -117.5q0 -98 64 -98q52 0 79.5 51.5t27.5 117.5q0 98 -64 98zM903 -14q-61 0 -93 35.5t-32 90.5q0 76 53 133.5t131 57.5
q61 0 93 -35.5t32 -90.5q0 -76 -53 -133.5t-131 -57.5zM954 278q-52 0 -79.5 -51.5t-27.5 -117.5q0 -98 64 -98q52 0 79.5 51.5t27.5 117.5q0 98 -64 98z" />
    <glyph glyph-name="guilsinglleft" unicode="&#x2039;" horiz-adv-x="344" 
d="M139 242l103 -185l-23 -17l-174 208l246 204l18 -20z" />
    <glyph glyph-name="guilsinglright" unicode="&#x203a;" horiz-adv-x="344" 
d="M35 60l167 191l-101 182l24 19l174 -206l-246 -206z" />
    <glyph glyph-name="fraction" unicode="&#x2044;" horiz-adv-x="200" 
d="M-159 -14l-35 28l579 646l35 -28z" />
    <glyph glyph-name="zero.sups" unicode="&#x2070;" horiz-adv-x="400" 
d="M219 329q-75 0 -109 43t-34 116q0 97 60.5 179t143.5 82q68 0 105 -40.5t37 -118.5q0 -97 -60 -179t-143 -82zM156 465q0 -104 64 -104q48 0 85 68t37 172q0 116 -64 116q-49 0 -85.5 -67t-36.5 -185z" />
    <glyph glyph-name="four.sups" unicode="&#x2074;" horiz-adv-x="400" 
d="M406 456h-81l-17 -78l71 -13l-3 -27h-229l3 27l85 13l18 78h-198v19l300 269h33l-54 -246h80zM299 648l-169 -150h133z" />
    <glyph glyph-name="five.sups" unicode="&#x2075;" horiz-adv-x="400" 
d="M385 469q0 -62 -49.5 -100.5t-123.5 -38.5q-63 0 -107 21.5t-44 55.5q0 25 18.5 40t43.5 17v-22q0 -36 23 -58t71 -22q47 0 75 21.5t28 54.5q0 45 -44.5 63t-141.5 18h-24l68 219h201l21 34h18l-24 -108h-208l-21 -76h40q84 0 132 -31t48 -88z" />
    <glyph glyph-name="six.sups" unicode="&#x2076;" horiz-adv-x="400" 
d="M214 552l-8 24q42 19 94 19q53 0 81 -28.5t28 -77.5q0 -66 -52.5 -112.5t-129.5 -46.5q-69 0 -110 38t-41 101q0 78 50 140t123.5 97.5t161.5 51.5l4 -29q-259 -63 -259 -265q0 -14 3 -30t10.5 -33.5t23 -28.5t37.5 -11q41 0 70.5 33t29.5 80q0 85 -68 85q-22 0 -48 -7z
" />
    <glyph glyph-name="seven.sups" unicode="&#x2077;" horiz-adv-x="400" 
d="M384 666h-232l-28 -49h-20l35 142h18l4 -21h298v-21l-291 -379h-89z" />
    <glyph glyph-name="eight.sups" unicode="&#x2078;" horiz-adv-x="400" 
d="M67 425q0 41 34 72t87 46q-68 41 -68 92t43.5 82t111.5 31t105.5 -23.5t37.5 -63.5q0 -38 -33 -63t-79 -36q47 -25 72 -49.5t25 -59.5q0 -53 -53.5 -88t-125.5 -35q-63 0 -110 26.5t-47 68.5zM331 422q0 10 -3 19.5t-11.5 18l-14.5 15t-20.5 15.5t-21 12.5l-25 13.5
t-24.5 13q-70 -41 -70 -99q0 -30 25 -50t67 -20t70 17.5t28 44.5zM192 659q0 -25 22.5 -43t66.5 -41q67 31 67 89q0 27 -21.5 41.5t-56.5 14.5q-32 0 -55 -16t-23 -45z" />
    <glyph glyph-name="nine.sups" unicode="&#x2079;" horiz-adv-x="400" 
d="M285 525l8 -24q-42 -19 -94 -19q-53 0 -81 28.5t-28 77.5q0 66 52.5 112.5t129.5 46.5q69 0 110 -38t41 -101q0 -78 -50 -140t-123.5 -97.5t-161.5 -51.5l-4 29q259 63 259 265q0 14 -3 30t-10.5 33.5t-23 28.5t-37.5 11q-41 0 -70.5 -33t-29.5 -80q0 -85 68 -85
q22 0 48 7z" />
    <glyph glyph-name="Euro" unicode="&#x20ac;" 
d="M50 360l6 35h66q37 114 111.5 189.5t177.5 75.5q78 0 138 -35l-22 -146h-30q-3 75 -22.5 112.5t-74.5 37.5q-60 0 -106.5 -66.5t-73.5 -167.5h194l-6 -35h-196q-10 -44 -13 -69h195l-6 -35h-193q-3 -33 -3 -63q0 -174 105 -174q52 0 87 42.5t61 128.5h35l-42 -163
q-30 -17 -73 -29t-78 -12q-89 0 -141 63.5t-52 172.5q0 22 1 34h-65l6 35h63q5 40 13 69h-62z" />
    <glyph glyph-name="trademark" unicode="&#x2122;" horiz-adv-x="1030" 
d="M935 333l53 -15l-4 -19h-173l4 19l57 15l51 289l-189 -328h-20l-77 326l-51 -287l55 -14l-4 -20h-150l4 20l60 14l53 299l-54 21l3 17h139l63 -283l161 283h134l-4 -19l-58 -19zM122 670h371l-20 -111h-22l-16 81h-102l-54 -307l61 -15l-4 -19h-189l4 19l65 15l54 307
h-104l-42 -81h-22z" />
    <glyph glyph-name="Omega" unicode="&#x2126;" horiz-adv-x="764" 
d="M434 652q-111 0 -177 -87.5t-66 -231.5q0 -157 107 -258l-13 -75h-258l17 188h23l18 -110h179q-70 42 -119 113t-49 163q0 152 99 241t254 89q123 0 196.5 -68t73.5 -176q0 -221 -269 -362h190l53 110h23l-41 -188h-280l13 75q98 64 156.5 156t58.5 208q0 213 -189 213z
" />
    <glyph glyph-name="partialdiff" unicode="&#x2202;" horiz-adv-x="534" 
d="M332 685q-70 0 -149 -88q-23 15 -23 44q0 42 48 63.5t99 21.5q97 0 149.5 -74.5t52.5 -190.5q0 -73 -22 -153.5t-61.5 -153.5t-103.5 -120.5t-139 -47.5q-78 0 -118 41t-40 104q0 94 72 165t171 71q69 0 134 -38q28 110 28 191q0 77 -24.5 121t-73.5 44zM192 17
q57 0 110.5 79.5t88.5 196.5q-51 31 -108 31q-75 0 -121 -62t-46 -143q0 -47 20 -74.5t56 -27.5z" />
    <glyph glyph-name="Delta" unicode="&#x2206;" horiz-adv-x="692" 
d="M583 0h-564v21l390 663h29l148 -662zM78 41h406l-110 507z" />
    <glyph glyph-name="product" unicode="&#x220f;" horiz-adv-x="742" 
d="M672 623l-122 -692l92 -25l-4 -22h-282l4 22l98 25l123 702h-288l-123 -702l92 -25l-4 -22h-284l4 22l98 25l122 692l-90 25l5 22h664l-5 -22z" />
    <glyph glyph-name="summation" unicode="&#x2211;" horiz-adv-x="600" 
d="M-28 -116v23l309 376l-173 362v25h492l-31 -173h-22l-28 136h-294l137 -307l-299 -364h371l61 118h22l-44 -196h-501z" />
    <glyph glyph-name="minus" unicode="&#x2212;" 
d="M515 278h-450v52h450v-52z" />
    <glyph glyph-name="radical" unicode="&#x221a;" 
d="M197 0l-85 380l-67 22l3 20h149l59 -289l325 633h48l-401 -766h-31z" />
    <glyph glyph-name="infinity" unicode="&#x221e;" horiz-adv-x="833" 
d="M615 123q-62 0 -107.5 37.5t-73.5 94.5q-72 -132 -184 -132q-68 0 -112.5 52t-44.5 137t46 137t114 52q115 0 181 -133q70 133 184 133q68 0 112.5 -52t44.5 -137t-46 -137t-114 -52zM613 445q-85 0 -151 -132q26 -57 65 -95.5t86 -38.5t77.5 38t30.5 95q0 58 -29.5 95.5
t-78.5 37.5zM255 179q84 0 151 132q-27 58 -65.5 96t-85.5 38t-77.5 -38t-30.5 -95q0 -58 29.5 -95.5t78.5 -37.5z" />
    <glyph glyph-name="integral" unicode="&#x222b;" horiz-adv-x="341" 
d="M349 636q-36 18 -78 18q-20 0 -31.5 -28t-18 -113.5t-6.5 -242.5v-92q0 -101 -14 -177.5t-35.5 -120t-51 -70.5t-56.5 -36t-57 -9q-36 0 -36 29q0 16 11 34.5t25 26.5q36 -18 78 -18q20 0 31.5 28t18 113.5t6.5 242.5v92q0 101 14 177.5t35.5 120t51 70.5t56.5 36t57 9
q36 0 36 -29q0 -16 -11 -34.5t-25 -26.5z" />
    <glyph glyph-name="approxequal" unicode="&#x2248;" 
d="M466 463l49 -13q-28 -115 -114 -115q-35 0 -114 31t-107 31q-27 0 -42 -17.5t-24 -52.5l-49 13q28 115 114 115q35 0 114 -31t107 -31q27 0 42 17.5t24 52.5zM466 273l49 -13q-28 -115 -114 -115q-35 0 -114 31t-107 31q-27 0 -42 -17.5t-24 -52.5l-49 13q28 115 114 115
q35 0 114 -31t107 -31q27 0 42 17.5t24 52.5z" />
    <glyph glyph-name="notequal" unicode="&#x2260;" 
d="M515 183h-272l-67 -105h-57l67 105h-121v52h154l88 138h-242v52h275l66 104h57l-66 -104h118v-52h-151l-88 -138h239v-52z" />
    <glyph glyph-name="lessequal" unicode="&#x2264;" 
d="M515 0h-450v52h450v-52zM90 309v50l366 195l27 -49l-324 -171l324 -171l-27 -49z" />
    <glyph glyph-name="greaterequal" unicode="&#x2265;" 
d="M515 0h-450v52h450v-52zM490 359v-50l-366 -195l-27 49l324 171l-324 171l27 49z" />
    <glyph glyph-name="lozenge" unicode="&#x25ca;" 
d="M300 -14h-19l-233 337l233 337h19l233 -337zM290 59l179 263l-180 264l-178 -263z" />
    <glyph glyph-name="uniF8FF" unicode="&#xf8ff;" horiz-adv-x="3635" 
d="M486 474h167l-67 -427q-23 -146 -103 -213t-214 -67q-58 0 -110 17t-90.5 59t-38.5 103h187q3 -22 24 -34t47 -12q63 0 91.5 36t41.5 120q-69 -64 -160 -64q-90 0 -144 54.5t-54 141.5q0 114 83.5 207t202.5 93q91 0 128 -66h2zM331 134q53 0 89.5 36t36.5 89
q0 38 -24.5 62.5t-67.5 24.5q-53 0 -89.5 -36.5t-36.5 -90.5q0 -38 24 -61.5t68 -23.5zM968 131q53 0 89 35t36 89q0 38 -24.5 63t-67.5 25q-52 0 -88.5 -36t-36.5 -90q0 -39 24 -62.5t68 -23.5zM1124 474h167l-75 -474h-167l8 54h-1q-54 -68 -153 -68q-92 0 -146.5 59.5
t-54.5 148.5q0 112 80.5 203t197.5 91q42 0 79 -16t57 -46zM1392 474h167l-9 -63h1q65 77 163 77q150 0 150 -145q0 -21 -5 -58l-45 -285h-167l35 222q8 53 8 72q0 61 -62 61q-87 0 -105 -111l-38 -244h-167zM2445 0h-167l8 54h-2q-26 -34 -67.5 -51t-85.5 -17
q-91 0 -146 59t-55 148q0 111 81.5 203t197.5 92q42 0 79 -16t57 -46l53 337h167zM2549 0l121 763h167l-56 -351h2q69 76 162 76q75 0 112.5 -39.5t37.5 -109.5q0 -26 -4 -50l-46 -289h-167l39 243q4 26 4 43q0 69 -62 69q-46 0 -71.5 -32.5t-33.5 -79.5l-38 -243h-167z
M3221 474h167l-75 -474h-167zM3318 559q-35 0 -57.5 23t-22.5 57q0 41 32.5 74t76.5 33q35 0 57.5 -22.5t22.5 -56.5q0 -42 -33 -75t-76 -33zM701 -233v152h19v-152h-19zM766 -103v22h18v-22h-18zM766 -233v110h18v-110h-18zM847 -233h-18v152h19v-54q12 14 30 14
q23 0 35 -16.5t12 -38.5q0 -25 -13 -42t-35 -17q-20 0 -30 16v-14zM876 -220q15 0 22.5 13.5t7.5 28.5q0 42 -29 42q-30 0 -30 -42t29 -42zM956 -233v110h16v-17q10 19 24 19q10 0 19 -6l-6 -17q-6 4 -14 4q-21 0 -21 -35v-58h-18zM1083 -235q-51 1 -51 57q0 26 13.5 41.5
t37.5 15.5t38 -15t14 -40q0 -59 -52 -59zM1083 -220q33 0 33 43q0 19 -9.5 30t-23.5 11q-32 0 -32 -42t32 -42zM1162 -200l18 3q3 -23 29 -23q25 0 25 17q0 10 -17 14t-34.5 11.5t-17.5 25.5q0 31 40 31t44 -30l-18 -3q-6 18 -24 18q-24 0 -24 -14q0 -2 0.5 -3.5t1 -2.5
t1.5 -2t3 -2l3 -1.5t4 -1.5l4.5 -1.5t5.5 -1t6 -1.5q21 -5 31 -12t10 -22q0 -16 -12.5 -25t-31.5 -9q-41 0 -47 35zM1329 -195h-25v26h25v-26zM1403 -233h-18v110h16v-15q14 17 34 17q22 0 31 -19q12 19 33 19q34 0 34 -36v-76h-18v71q0 25 -20 25q-27 0 -27 -31v-65h-18v72
q0 24 -20 24q-27 0 -27 -37v-59zM1660 -233h-17v16q-12 -18 -34 -18q-38 0 -38 40v72h19v-70q0 -26 22 -26q29 0 29 34v62h19v-110zM1620 -109h-16l14 29h24zM1841 -103h-19v22h19v-22zM1841 -233h-19v110h19v-110zM1954 -193l18 -2q-6 -40 -46 -40q-25 0 -37.5 15.5
t-12.5 41.5t12.5 41.5t37.5 15.5q38 0 44 -34l-18 -3q-5 22 -26 22q-30 0 -30 -42t30 -42q22 0 28 27zM2074 -219q-19 -16 -40 -16q-38 0 -38 31q0 18 13.5 25.5t35 10t28.5 5.5v6q0 21 -27 21q-23 0 -28 -21l-18 3q7 33 48 33q44 0 44 -35v-41q0 -27 5 -36h-19q-2 4 -4 14z
M2073 -188v10q-6 -3 -21.5 -5t-25.5 -6t-10 -14q0 -18 22 -18q15 0 25 8.5t10 24.5zM2276 -233h-18l-41 110h19l31 -88l31 88h19zM2367 -103h-19v22h19v-22zM2367 -233h-19v110h19v-110zM2611 -197l20 -3q-12 -35 -49 -35q-52 0 -52 56q0 27 13.5 42.5t37.5 15.5t37 -16
t13 -38v-8h-82q1 -15 10 -26t23 -11q24 0 29 23zM2550 -167h62q-3 31 -30 31q-28 0 -32 -31zM3166 -233h-19v95h-16v15h16v14q0 30 30 30q12 0 18 -2l-3 -16q-6 1 -13 1q-13 0 -13 -17v-10h21v-15h-21v-95zM3268 -109h-15l13 29h25zM3458 -4q-28 0 -47.5 18.5t-19.5 47.5
t19.5 47t47.5 18t47.5 -18t19.5 -47t-19.5 -47.5t-47.5 -18.5zM3458 10q20 0 34.5 15t14.5 37t-14.5 36.5t-34.5 14.5t-34.5 -14.5t-14.5 -36.5t14.5 -37t34.5 -15zM3446 25h-14v73h28q28 0 28 -21q0 -18 -19 -20l20 -32h-16l-17 31h-10v-31zM3459 87h-13v-19h13q15 0 15 10
q0 9 -15 9zM2171 -195h-25v26h25v-26zM2837 -195h-26v26h26v-26zM2196 131q53 0 89 35t36 89q0 38 -24.5 63t-67.5 25q-52 0 -88.5 -36t-36.5 -90q0 -39 24 -62.5t68 -23.5zM1694 -200l18 3q3 -23 29 -23q25 0 25 17q0 10 -17 14t-34.5 11.5t-17.5 25.5q0 31 40 31t44 -30
l-18 -3q-6 18 -24 18q-24 0 -24 -14q0 -2 0.5 -3.5t1 -2.5t1.5 -2t3 -2l3 -1.5t4 -1.5l4.5 -1.5t5.5 -1t6 -1.5q21 -5 31 -12t10 -22q0 -16 -12.5 -25t-31.5 -9q-41 0 -47 35zM2497 -233h-18v14q-10 -16 -30 -16q-22 0 -35 16t-13 43q0 22 12 38.5t35 16.5q18 0 30 -14v54
h19v-152zM2450 -220q30 0 30 42q0 18 -8 30t-23 12q-29 0 -29 -42t30 -42zM2711 -235q-51 1 -51 57q0 26 13.5 41.5t37.5 15.5t38 -15t14 -40q0 -59 -52 -59zM2711 -220q33 0 33 43q0 19 -9.5 30t-23.5 11q-32 0 -32 -42t32 -42zM2962 -193l18 -2q-6 -40 -46 -40
q-25 0 -37.5 15.5t-12.5 41.5t12.5 41.5t37.5 15.5q38 0 44 -34l-18 -3q-5 22 -26 22q-30 0 -30 -42t30 -42q22 0 28 27zM3083 -219q-19 -16 -40 -16q-38 0 -38 31q0 18 13.5 25.5t35 10t28.5 5.5v6q0 21 -27 21q-23 0 -28 -21l-18 3q7 33 48 33q44 0 44 -35v-41
q0 -27 5 -36h-19q-2 4 -4 14zM3082 -188v10q-6 -3 -21.5 -5t-25.5 -6t-10 -14q0 -18 22 -18q15 0 25 8.5t10 24.5zM3293 -197l20 -3q-12 -35 -49 -35q-52 0 -52 56q0 27 13.5 42.5t37.5 15.5t37 -16t13 -38v-8h-82q1 -15 10 -26t23 -11q24 0 29 23zM3232 -167h62
q-3 31 -30 31q-28 0 -32 -31z" />
    <glyph glyph-name="fi" unicode="&#xfb01;" horiz-adv-x="611" 
d="M213 435l-76 -443q-9 -52 -32 -101t-68 -87.5t-101 -38.5q-19 0 -32.5 7t-13.5 20q0 29 36 63q38 -40 70 -40q33 0 47 78l92 542h-70l7 39h69l6 39q14 94 83 153.5t144 59.5q35 0 35 -27q0 -17 -11 -35t-25 -28q-44 30 -81 30q-28 0 -45.5 -43t-28.5 -149h114l-7 -39
h-112zM593 648q0 -25 -17 -44t-43 -19q-25 0 -40 16t-15 40q0 28 18.5 44.5t42.5 16.5t39 -16t15 -38zM536 373l-48 -278q-6 -32 -6 -42q0 -17 16.5 -22.5t62.5 -5.5v-23q-61 -16 -114 -16q-45 0 -45 39q0 20 9 76l48 278q6 40 6 45q0 15 -16.5 20t-59.5 5l4 23
q64 16 118 16q35 0 35 -37q0 -20 -10 -78z" />
    <glyph glyph-name="fl" unicode="&#xfb02;" horiz-adv-x="605" 
d="M213 435l-76 -443q-9 -52 -32 -101t-68 -87.5t-101 -38.5q-19 0 -32.5 7t-13.5 20q0 29 36 63q38 -40 70 -40q33 0 47 78l92 542h-70l7 39h69l6 39q14 94 83 153.5t144 59.5q35 0 35 -27q0 -17 -11 -35t-25 -28q-44 30 -81 30q-28 0 -45.5 -43t-28.5 -149h114l-7 -39
h-112zM435 -14q-46 0 -46 37q0 24 10 78l89 516q6 40 6 45q0 15 -16.5 20t-59.5 5l4 23q64 16 118 16q35 0 35 -37q0 -20 -10 -78l-89 -516q-6 -32 -6 -42q0 -17 17 -22.5t62 -5.5v-23q-64 -16 -114 -16z" />
    <glyph glyph-name="a.smcp" horiz-adv-x="616" 
d="M386 40l-31 135h-166l-78 -136l66 -16l-3 -23h-174l3 23l66 17l278 473h22l112 -474l61 -17l-2 -22h-228l2 22zM308 381l-99 -172h138z" />
    <glyph glyph-name="b.smcp" horiz-adv-x="530" 
d="M4 0l3 22l70 17l71 425l-64 16l4 23h225q158 0 158 -106q0 -112 -157 -134q65 -2 105 -31.5t40 -83.5q0 -79 -63 -113.5t-160 -34.5h-232zM207 278h48q56 0 88.5 33t32.5 84q0 79 -82 79q-30 0 -55 -5zM201 245l-36 -210q23 -7 53 -7q64 0 103.5 34t39.5 94
q0 40 -30.5 64.5t-84.5 24.5h-45z" />
    <glyph glyph-name="c.smcp" horiz-adv-x="571" 
d="M497 147l-30 -121q-92 -36 -174 -36q-109 0 -173.5 53t-64.5 164q0 131 83 218.5t218 87.5q78 0 169 -32l-16 -121h-27q-18 125 -130 125q-66 0 -113.5 -44.5t-68 -106t-20.5 -129.5q0 -97 37 -142t115 -45q55 0 99 34.5t65 94.5h31z" />
    <glyph glyph-name="d.smcp" horiz-adv-x="628" 
d="M4 0l3 22l70 17l71 425l-64 16l3 23h229q51 0 95 -11t81.5 -34.5t59.5 -66t22 -99.5q0 -139 -88.5 -215.5t-246.5 -76.5h-235zM165 32h84q117 0 175 77t58 190q0 75 -46 123.5t-127 48.5h-70z" />
    <glyph glyph-name="e.smcp" horiz-adv-x="498" 
d="M4 0l3 22l70 17l71 425l-64 16l3 23h386l-22 -135h-21l-22 102h-169l-33 -191h100l39 75h19l-29 -181h-19l-15 74h-100l-36 -215h167l75 119h20l-32 -151h-391z" />
    <glyph glyph-name="f.smcp" horiz-adv-x="480" 
d="M166 39l70 -17l-2 -22h-230l3 22l70 17l71 425l-64 16l4 23h384l-21 -136h-21l-24 103h-167l-32 -191h94l38 75h19l-29 -181h-19l-15 74h-94z" />
    <glyph glyph-name="g.smcp" horiz-adv-x="618" 
d="M401 35l25 158l-70 16l4 23h222l-3 -23l-64 -16l-26 -162q-38 -16 -93.5 -28.5t-98.5 -12.5q-114 0 -178 54t-64 159q0 140 87 225t228 85q44 0 95 -10.5t75 -22.5l-15 -120h-28q-8 64 -39 95t-91 31q-104 0 -161 -81.5t-57 -202.5q0 -92 39 -137.5t121 -45.5q39 0 92 16
z" />
    <glyph glyph-name="h.smcp" horiz-adv-x="668" 
d="M429 39l34 207h-262l-35 -207l66 -17l-3 -22h-225l3 22l70 17l71 425l-64 16l4 23h225l-4 -23l-71 -16l-31 -184h262l31 184l-65 16l5 23h224l-3 -23l-71 -16l-71 -425l65 -17l-4 -22h-224l3 22z" />
    <glyph glyph-name="i.smcp" horiz-adv-x="316" 
d="M77 39l71 425l-65 16l5 23h224l-3 -23l-71 -16l-71 -425l65 -17l-4 -22h-224l3 22z" />
    <glyph glyph-name="j.smcp" horiz-adv-x="330" 
d="M-4 -71l-7 22q56 28 78 56.5t34 96.5l60 360l-64 16l4 23h225l-4 -23l-71 -16l-55 -327q-13 -82 -59.5 -133t-140.5 -75z" />
    <glyph glyph-name="k.smcp" horiz-adv-x="592" 
d="M302 297l146 -249q18 -29 71 -29v-22q-42 -11 -94 -11q-47 0 -70 41l-136 230l235 207l-64 16l4 23h182l-3 -23l-67 -16zM238 464l-72 -425l66 -17l-3 -22h-225l3 22l70 17l71 425l-64 16l3 23h226l-4 -23z" />
    <glyph glyph-name="l.smcp" horiz-adv-x="497" 
d="M238 464l-73 -432h172l72 123h20l-32 -155h-393l3 22l70 17l71 425l-64 16l3 23h229l-4 -23z" />
    <glyph glyph-name="m.smcp" horiz-adv-x="741" 
d="M592 40l65 -18l-3 -22h-226l3 22l71 18l67 375l-250 -422h-29l-109 435l-67 -389l65 -17l-3 -22h-172l3 22l70 17l71 425l-64 16l3 23h160l101 -389l230 389h159l-3 -23l-71 -16z" />
    <glyph glyph-name="n.smcp" horiz-adv-x="623" 
d="M472 -7h-26l-265 435l-67 -389l67 -17l-3 -22h-174l3 22l70 17l71 425l-64 16l3 23h152l218 -362l55 323l-66 16l3 23h174l-3 -23l-70 -16z" />
    <glyph glyph-name="o.smcp" horiz-adv-x="619" 
d="M274 -10q-105 0 -162 53t-57 163q0 76 36 146t104 115.5t150 45.5q105 0 162.5 -54t57.5 -164q0 -118 -83.5 -211.5t-207.5 -93.5zM272 19q89 0 145 82t56 219q0 165 -127 165q-89 0 -144.5 -81.5t-55.5 -217.5q0 -167 126 -167z" />
    <glyph glyph-name="p.smcp" horiz-adv-x="506" 
d="M77 39l71 425l-64 16l4 23h205q183 0 183 -118q0 -79 -64 -120.5t-159 -41.5h-25l4 24q151 20 151 139q0 42 -25 65t-70 23q-28 0 -50 -6l-72 -430l69 -16l-3 -22h-228l3 22z" />
    <glyph glyph-name="q.smcp" horiz-adv-x="619" 
d="M394 -176q-24 0 -48 16.5t-47 46.5t-37 52t-32 54q-175 21 -175 213q0 76 36 146t104 115.5t150 45.5q105 0 162.5 -54t57.5 -164q0 -103 -66 -190.5t-169 -108.5q24 -50 64.5 -91.5t80.5 -42.5h18l1 -24q-51 -14 -100 -14zM272 19q89 0 145 82t56 219q0 165 -127 165
q-89 0 -144.5 -81.5t-55.5 -217.5q0 -167 126 -167z" />
    <glyph glyph-name="r.smcp" horiz-adv-x="539" 
d="M77 39l71 425l-64 16l4 23h207q181 0 181 -115q0 -69 -54.5 -104t-134.5 -40q61 -8 86 -70l48 -123q7 -17 20.5 -23.5t42.5 -9.5v-18q-46 -14 -86 -14q-49 0 -66 47l-58 160q-17 43 -57 43h-17l-34 -197l66 -17l-3 -22h-225l3 22zM240 469l-34 -203h37q59 0 100.5 33.5
t41.5 91.5q0 84 -95 84q-18 0 -50 -6z" />
    <glyph glyph-name="s.smcp" horiz-adv-x="454" 
d="M384 155q0 -77 -56.5 -121t-141.5 -44q-88 0 -154 34l19 128h29q4 -133 112 -133q46 0 79.5 25.5t33.5 65.5q0 30 -21.5 53.5t-52.5 41l-62.5 36t-53 48t-21.5 67.5q0 75 50.5 116t129.5 41q87 0 140 -20l-23 -120h-27q-3 112 -95 112q-42 0 -71.5 -23.5t-29.5 -65.5
q0 -31 34 -58.5t74 -46.5t74 -55t34 -81z" />
    <glyph glyph-name="t.smcp" horiz-adv-x="545" 
d="M475 470h-120l-73 -431l69 -17l-3 -22h-232l3 22l74 17l72 431h-116l-60 -102h-21l22 135h452l-23 -135h-20z" />
    <glyph glyph-name="u.smcp" horiz-adv-x="607" 
d="M275 -10q-37 0 -68 6t-61 20t-47.5 42t-17.5 68q0 12 4 40l49 298l-64 16l4 23h225l-4 -23l-71 -16l-48 -294q-4 -24 -4 -38q1 -49 36.5 -75t89.5 -26q60 0 103 40t55 115l45 278l-67 16l3 23h174l-3 -23l-69 -16l-47 -280q-16 -95 -73.5 -144.5t-143.5 -49.5z" />
    <glyph glyph-name="v.smcp" horiz-adv-x="599" 
d="M295 115l201 349l-67 16l3 23h175l-3 -23l-67 -17l-275 -470h-25l-110 471l-61 16l3 23h228l-4 -23l-73 -18z" />
    <glyph glyph-name="w.smcp" horiz-adv-x="866" 
d="M590 134l171 330l-66 16l3 23h176l-3 -23l-67 -17l-251 -470h-23l-77 374l-200 -374h-24l-103 471l-60 16l3 23h227l-4 -23l-74 -18l67 -332l157 291l-9 43l-59 16l4 23h226l-3 -23l-75 -18z" />
    <glyph glyph-name="x.smcp" horiz-adv-x="593" 
d="M241 463l78 -154l138 155l-62 16l3 23h180l-4 -23l-66 -16l-172 -187l127 -238l62 -17l-3 -22h-236l3 22l73 17l-90 177l-153 -178l67 -16l-3 -22h-188l3 22l68 18l189 209l-114 215l-57 16l3 23h228l-4 -23z" />
    <glyph glyph-name="y.smcp" horiz-adv-x="571" 
d="M239 217l-119 247l-54 16l3 23h229l-3 -23l-74 -17l94 -204l156 205l-66 16l3 23h175l-3 -23l-65 -17l-186 -247l-30 -177l69 -17l-3 -22h-233l3 22l75 17z" />
    <glyph glyph-name="z.smcp" horiz-adv-x="535" 
d="M466 155l-29 -155h-425v20l373 450h-218l-58 -102h-21l22 135h394v-21l-373 -450h246l68 123h21z" />
    <glyph glyph-name="aacute.smcp" horiz-adv-x="616" 
d="M386 40l-31 135h-166l-78 -136l66 -16l-3 -23h-174l3 23l66 17l278 473h22l112 -474l61 -17l-2 -22h-228l2 22zM308 381l-99 -172h138zM319 578l-23 15q29 36 64 88.5t48 80.5q68 -8 68 -32q0 -22 -54.5 -72.5t-102.5 -79.5z" />
    <glyph glyph-name="agrave.smcp" horiz-adv-x="616" 
d="M386 40l-31 135h-166l-78 -136l66 -16l-3 -23h-174l3 23l66 17l278 473h22l112 -474l61 -17l-2 -22h-228l2 22zM308 381l-99 -172h138zM425 593l-23 -15q-48 29 -102.5 79.5t-54.5 72.5q0 24 68 32q13 -28 48 -80.5t64 -88.5z" />
    <glyph glyph-name="acircumflex.smcp" horiz-adv-x="616" 
d="M386 40l-31 135h-166l-78 -136l66 -16l-3 -23h-174l3 23l66 17l278 473h22l112 -474l61 -17l-2 -22h-228l2 22zM308 381l-99 -172h138zM374 760h38q40 -107 78 -165l-21 -17l-89 88l-127 -88l-18 20q33 34 80 88t59 74z" />
    <glyph glyph-name="atilde.smcp" horiz-adv-x="616" 
d="M386 40l-31 135h-166l-78 -136l66 -16l-3 -23h-174l3 23l66 17l278 473h22l112 -474l61 -17l-2 -22h-228l2 22zM308 381l-99 -172h138zM241 598l-27 10q22 63 47 91.5t60 28.5q21 0 72.5 -23.5t67.5 -23.5q30 0 56 60l27 -10q-22 -63 -47 -91.5t-60 -28.5
q-21 0 -72.5 23.5t-67.5 23.5q-30 0 -56 -60z" />
    <glyph glyph-name="adieresis.smcp" horiz-adv-x="616" 
d="M386 40l-31 135h-166l-78 -136l66 -16l-3 -23h-174l3 23l66 17l278 473h22l112 -474l61 -17l-2 -22h-228l2 22zM308 381l-99 -172h138zM323 667q0 -24 -15.5 -41.5t-40.5 -17.5q-24 0 -37.5 15t-13.5 37q0 26 17.5 41.5t39.5 15.5t36 -15t14 -35zM523 667
q0 -24 -15.5 -41.5t-40.5 -17.5q-24 0 -37.5 15t-13.5 37q0 26 17.5 41.5t39.5 15.5t36 -15t14 -35z" />
    <glyph glyph-name="aring.smcp" horiz-adv-x="616" 
d="M386 40l-31 135h-166l-78 -136l66 -16l-3 -23h-174l3 23l66 17l278 473h22l112 -474l61 -17l-2 -22h-228l2 22zM308 381l-99 -172h138zM362 579q-37 0 -59.5 20t-22.5 53q0 44 29.5 76t75.5 32q37 0 59.5 -20t22.5 -53q0 -44 -29.5 -76t-75.5 -32zM366 612
q24 0 37.5 21.5t13.5 50.5q0 21 -10 32t-26 11q-24 0 -37.5 -21.5t-13.5 -50.5q0 -21 10 -32t26 -11z" />
    <glyph glyph-name="ccedilla.smcp" horiz-adv-x="571" 
d="M347 -131q0 -43 -38.5 -73.5t-89.5 -30.5q-44 0 -79 19l14 30q29 -16 64 -16q24 0 41 12.5t17 31.5q0 39 -90 42l-4 18l86 89q-99 6 -156 58.5t-57 157.5q0 131 83 218.5t218 87.5q78 0 169 -32l-16 -121h-27q-18 125 -130 125q-66 0 -113.5 -44.5t-68 -106t-20.5 -129.5
q0 -97 37 -142t115 -45q55 0 99 34.5t65 94.5h31l-30 -121q-76 -31 -156 -35l-55 -55q43 -1 67 -18.5t24 -48.5z" />
    <glyph glyph-name="eacute.smcp" horiz-adv-x="498" 
d="M4 0l3 22l70 17l71 425l-64 16l3 23h386l-22 -135h-21l-22 102h-169l-33 -191h100l39 75h19l-29 -181h-19l-15 74h-100l-36 -215h167l75 119h20l-32 -151h-391zM258 578l-23 15q29 36 64 88.5t48 80.5q68 -8 68 -32q0 -22 -54.5 -72.5t-102.5 -79.5z" />
    <glyph glyph-name="egrave.smcp" horiz-adv-x="498" 
d="M4 0l3 22l70 17l71 425l-64 16l3 23h386l-22 -135h-21l-22 102h-169l-33 -191h100l39 75h19l-29 -181h-19l-15 74h-100l-36 -215h167l75 119h20l-32 -151h-391zM350 593l-23 -15q-48 29 -102.5 79.5t-54.5 72.5q0 24 68 32q13 -28 48 -80.5t64 -88.5z" />
    <glyph glyph-name="ecircumflex.smcp" horiz-adv-x="498" 
d="M4 0l3 22l70 17l71 425l-64 16l3 23h386l-22 -135h-21l-22 102h-169l-33 -191h100l39 75h19l-29 -181h-19l-15 74h-100l-36 -215h167l75 119h20l-32 -151h-391zM314 760h38q40 -107 78 -165l-21 -17l-89 88l-127 -88l-18 20q33 34 80 88t59 74z" />
    <glyph glyph-name="edieresis.smcp" horiz-adv-x="498" 
d="M4 0l3 22l70 17l71 425l-64 16l3 23h386l-22 -135h-21l-22 102h-169l-33 -191h100l39 75h19l-29 -181h-19l-15 74h-100l-36 -215h167l75 119h20l-32 -151h-391zM262 667q0 -24 -15.5 -41.5t-40.5 -17.5q-24 0 -37.5 15t-13.5 37q0 26 17.5 41.5t39.5 15.5t36 -15t14 -35z
M462 667q0 -24 -15.5 -41.5t-40.5 -17.5q-24 0 -37.5 15t-13.5 37q0 26 17.5 41.5t39.5 15.5t36 -15t14 -35z" />
    <glyph glyph-name="iacute.smcp" horiz-adv-x="316" 
d="M77 39l71 425l-65 16l5 23h224l-3 -23l-71 -16l-71 -425l65 -17l-4 -22h-224l3 22zM178 578l-23 15q29 36 64 88.5t48 80.5q68 -8 68 -32q0 -22 -54.5 -72.5t-102.5 -79.5z" />
    <glyph glyph-name="igrave.smcp" horiz-adv-x="316" 
d="M77 39l71 425l-65 16l5 23h224l-3 -23l-71 -16l-71 -425l65 -17l-4 -22h-224l3 22zM267 593l-23 -15q-48 29 -102.5 79.5t-54.5 72.5q0 24 68 32q13 -28 48 -80.5t64 -88.5z" />
    <glyph glyph-name="icircumflex.smcp" horiz-adv-x="316" 
d="M77 39l71 425l-65 16l5 23h224l-3 -23l-71 -16l-71 -425l65 -17l-4 -22h-224l3 22zM220 760h38q40 -107 78 -165l-21 -17l-89 88l-127 -88l-18 20q33 34 80 88t59 74z" />
    <glyph glyph-name="idieresis.smcp" horiz-adv-x="316" 
d="M77 39l71 425l-65 16l5 23h224l-3 -23l-71 -16l-71 -425l65 -17l-4 -22h-224l3 22zM174 667q0 -24 -15.5 -41.5t-40.5 -17.5q-24 0 -37.5 15t-13.5 37q0 26 17.5 41.5t39.5 15.5t36 -15t14 -35zM374 667q0 -24 -15.5 -41.5t-40.5 -17.5q-24 0 -37.5 15t-13.5 37
q0 26 17.5 41.5t39.5 15.5t36 -15t14 -35z" />
    <glyph glyph-name="dotlessi.smcp" horiz-adv-x="316" 
d="M77 39l71 425l-65 16l5 23h224l-3 -23l-71 -16l-71 -425l65 -17l-4 -22h-224l3 22z" />
    <glyph glyph-name="lslash.smcp" horiz-adv-x="497" 
d="M238 464l-31 -181l100 25l-5 -46l-103 -26l-34 -204h172l72 123h20l-32 -155h-393l3 22l70 17l29 174l-67 -17l4 47l71 17l34 204l-64 16l3 23h228l-3 -23z" />
    <glyph glyph-name="ntilde.smcp" horiz-adv-x="623" 
d="M472 -7h-26l-265 435l-67 -389l67 -17l-3 -22h-174l3 22l70 17l71 425l-64 16l3 23h152l218 -362l55 323l-66 16l3 23h174l-3 -23l-70 -16zM236 598l-27 10q22 63 47 91.5t60 28.5q21 0 72.5 -23.5t67.5 -23.5q30 0 56 60l27 -10q-22 -63 -47 -91.5t-60 -28.5
q-21 0 -72.5 23.5t-67.5 23.5q-30 0 -56 -60z" />
    <glyph glyph-name="oacute.smcp" horiz-adv-x="619" 
d="M274 -10q-105 0 -162 53t-57 163q0 76 36 146t104 115.5t150 45.5q105 0 162.5 -54t57.5 -164q0 -118 -83.5 -211.5t-207.5 -93.5zM272 19q89 0 145 82t56 219q0 165 -127 165q-89 0 -144.5 -81.5t-55.5 -217.5q0 -167 126 -167zM289 578l-23 15q29 36 64 88.5t48 80.5
q68 -8 68 -32q0 -22 -54.5 -72.5t-102.5 -79.5z" />
    <glyph glyph-name="ograve.smcp" horiz-adv-x="619" 
d="M274 -10q-105 0 -162 53t-57 163q0 76 36 146t104 115.5t150 45.5q105 0 162.5 -54t57.5 -164q0 -118 -83.5 -211.5t-207.5 -93.5zM272 19q89 0 145 82t56 219q0 165 -127 165q-89 0 -144.5 -81.5t-55.5 -217.5q0 -167 126 -167zM437 593l-23 -15q-48 29 -102.5 79.5
t-54.5 72.5q0 24 68 32q13 -28 48 -80.5t64 -88.5z" />
    <glyph glyph-name="ocircumflex.smcp" horiz-adv-x="619" 
d="M274 -10q-105 0 -162 53t-57 163q0 76 36 146t104 115.5t150 45.5q105 0 162.5 -54t57.5 -164q0 -118 -83.5 -211.5t-207.5 -93.5zM272 19q89 0 145 82t56 219q0 165 -127 165q-89 0 -144.5 -81.5t-55.5 -217.5q0 -167 126 -167zM374 760h38q40 -107 78 -165l-21 -17
l-89 88l-127 -88l-18 20q33 34 80 88t59 74z" />
    <glyph glyph-name="otilde.smcp" horiz-adv-x="619" 
d="M274 -10q-105 0 -162 53t-57 163q0 76 36 146t104 115.5t150 45.5q105 0 162.5 -54t57.5 -164q0 -118 -83.5 -211.5t-207.5 -93.5zM272 19q89 0 145 82t56 219q0 165 -127 165q-89 0 -144.5 -81.5t-55.5 -217.5q0 -167 126 -167zM224 598l-27 10q22 63 47 91.5t60 28.5
q21 0 72.5 -23.5t67.5 -23.5q30 0 56 60l27 -10q-22 -63 -47 -91.5t-60 -28.5q-21 0 -72.5 23.5t-67.5 23.5q-30 0 -56 -60z" />
    <glyph glyph-name="odieresis.smcp" horiz-adv-x="619" 
d="M274 -10q-105 0 -162 53t-57 163q0 76 36 146t104 115.5t150 45.5q105 0 162.5 -54t57.5 -164q0 -118 -83.5 -211.5t-207.5 -93.5zM272 19q89 0 145 82t56 219q0 165 -127 165q-89 0 -144.5 -81.5t-55.5 -217.5q0 -167 126 -167zM309 667q0 -24 -15.5 -41.5t-40.5 -17.5
q-24 0 -37.5 15t-13.5 37q0 26 17.5 41.5t39.5 15.5t36 -15t14 -35zM509 667q0 -24 -15.5 -41.5t-40.5 -17.5q-24 0 -37.5 15t-13.5 37q0 26 17.5 41.5t39.5 15.5t36 -15t14 -35z" />
    <glyph glyph-name="oslash.smcp" horiz-adv-x="619" 
d="M274 -10q-91 0 -145 38l-50 -54h-56l76 82q-44 53 -44 150q0 76 36 146t104 115.5t150 45.5q89 0 144 -39l50 54h56l-76 -82q46 -54 46 -151q0 -118 -83.5 -211.5t-207.5 -93.5zM146 186q0 -43 7 -72l297 318q-32 53 -104 53q-89 0 -144.5 -81.5t-55.5 -217.5zM272 19
q89 0 145 82t56 219q0 40 -7 69l-296 -317q31 -53 102 -53z" />
    <glyph glyph-name="scaron.smcp" horiz-adv-x="454" 
d="M384 155q0 -77 -56.5 -121t-141.5 -44q-88 0 -154 34l19 128h29q4 -133 112 -133q46 0 79.5 25.5t33.5 65.5q0 30 -21.5 53.5t-52.5 41l-62.5 36t-53 48t-21.5 67.5q0 75 50.5 116t129.5 41q87 0 140 -20l-23 -120h-27q-3 112 -95 112q-42 0 -71.5 -23.5t-29.5 -65.5
q0 -31 34 -58.5t74 -46.5t74 -55t34 -81zM296 584h-38q-40 107 -78 165l21 17l89 -88l127 88l18 -20q-33 -34 -80 -88t-59 -74z" />
    <glyph glyph-name="uacute.smcp" horiz-adv-x="607" 
d="M275 -10q-37 0 -68 6t-61 20t-47.5 42t-17.5 68q0 12 4 40l49 298l-64 16l4 23h225l-4 -23l-71 -16l-48 -294q-4 -24 -4 -38q1 -49 36.5 -75t89.5 -26q60 0 103 40t55 115l45 278l-67 16l3 23h174l-3 -23l-69 -16l-47 -280q-16 -95 -73.5 -144.5t-143.5 -49.5zM330 578
l-23 15q29 36 64 88.5t48 80.5q68 -8 68 -32q0 -22 -54.5 -72.5t-102.5 -79.5z" />
    <glyph glyph-name="ugrave.smcp" horiz-adv-x="607" 
d="M275 -10q-37 0 -68 6t-61 20t-47.5 42t-17.5 68q0 12 4 40l49 298l-64 16l4 23h225l-4 -23l-71 -16l-48 -294q-4 -24 -4 -38q1 -49 36.5 -75t89.5 -26q60 0 103 40t55 115l45 278l-67 16l3 23h174l-3 -23l-69 -16l-47 -280q-16 -95 -73.5 -144.5t-143.5 -49.5zM402 593
l-23 -15q-48 29 -102.5 79.5t-54.5 72.5q0 24 68 32q13 -28 48 -80.5t64 -88.5z" />
    <glyph glyph-name="ucircumflex.smcp" horiz-adv-x="607" 
d="M275 -10q-37 0 -68 6t-61 20t-47.5 42t-17.5 68q0 12 4 40l49 298l-64 16l4 23h225l-4 -23l-71 -16l-48 -294q-4 -24 -4 -38q1 -49 36.5 -75t89.5 -26q60 0 103 40t55 115l45 278l-67 16l3 23h174l-3 -23l-69 -16l-47 -280q-16 -95 -73.5 -144.5t-143.5 -49.5zM378 760
h38q40 -107 78 -165l-21 -17l-89 88l-127 -88l-18 20q33 34 80 88t59 74z" />
    <glyph glyph-name="udieresis.smcp" horiz-adv-x="607" 
d="M275 -10q-37 0 -68 6t-61 20t-47.5 42t-17.5 68q0 12 4 40l49 298l-64 16l4 23h225l-4 -23l-71 -16l-48 -294q-4 -24 -4 -38q1 -49 36.5 -75t89.5 -26q60 0 103 40t55 115l45 278l-67 16l3 23h174l-3 -23l-69 -16l-47 -280q-16 -95 -73.5 -144.5t-143.5 -49.5zM322 667
q0 -24 -15.5 -41.5t-40.5 -17.5q-24 0 -37.5 15t-13.5 37q0 26 17.5 41.5t39.5 15.5t36 -15t14 -35zM522 667q0 -24 -15.5 -41.5t-40.5 -17.5q-24 0 -37.5 15t-13.5 37q0 26 17.5 41.5t39.5 15.5t36 -15t14 -35z" />
    <glyph glyph-name="yacute.smcp" horiz-adv-x="571" 
d="M239 217l-119 247l-54 16l3 23h229l-3 -23l-74 -17l94 -204l156 205l-66 16l3 23h175l-3 -23l-65 -17l-186 -247l-30 -177l69 -17l-3 -22h-233l3 22l75 17zM333 578l-23 15q29 36 64 88.5t48 80.5q68 -8 68 -32q0 -22 -54.5 -72.5t-102.5 -79.5z" />
    <glyph glyph-name="ydieresis.smcp" horiz-adv-x="571" 
d="M239 217l-119 247l-54 16l3 23h229l-3 -23l-74 -17l94 -204l156 205l-66 16l3 23h175l-3 -23l-65 -17l-186 -247l-30 -177l69 -17l-3 -22h-233l3 22l75 17zM308 667q0 -24 -15.5 -41.5t-40.5 -17.5q-24 0 -37.5 15t-13.5 37q0 26 17.5 41.5t39.5 15.5t36 -15t14 -35z
M508 667q0 -24 -15.5 -41.5t-40.5 -17.5q-24 0 -37.5 15t-13.5 37q0 26 17.5 41.5t39.5 15.5t36 -15t14 -35z" />
    <glyph glyph-name="zcaron.smcp" horiz-adv-x="535" 
d="M466 155l-29 -155h-425v20l373 450h-218l-58 -102h-21l22 135h394v-21l-373 -450h246l68 123h21zM317 584h-38q-40 107 -78 165l21 17l89 -88l127 88l18 -20q-33 -34 -80 -88t-59 -74z" />
    <glyph glyph-name="eth.smcp" horiz-adv-x="633" 
d="M9 0l3 22l70 17l33 199h-60l6 45h61l31 181l-64 16l3 23h229q51 0 95 -11t81.5 -34.5t59.5 -66t22 -99.5q0 -139 -88.5 -215.5t-246.5 -76.5h-235zM170 32h84q117 0 175 77t58 190q0 75 -46 123.5t-127 48.5h-70l-32 -188h107l-5 -45h-110z" />
    <glyph glyph-name="thorn.smcp" horiz-adv-x="508" 
d="M77 39l71 425l-64 16l4 23h224l-4 -23l-70 -16l-13 -74h50q183 0 183 -118q0 -79 -64 -120.5t-159 -41.5h-25l4 24q151 20 151 139q0 42 -25 65t-70 23q-28 0 -50 -6l-54 -317l69 -16l-3 -22h-228l3 22z" />
    <glyph glyph-name="ae.smcp" horiz-adv-x="791" 
d="M766 503l-22 -135h-21l-22 102h-169l-33 -191h100l39 75h19l-29 -181h-19l-15 74h-100l-36 -215h167l75 119h20l-32 -151h-391l3 22l69 17l23 136h-174l-107 -135l72 -17l-3 -23h-184l3 22l66 18l340 425l-66 15l5 23h422zM245 209h153l42 246z" />
    <glyph glyph-name="oe.smcp" horiz-adv-x="749" 
d="M400 471h-55q-43 0 -78.5 -21.5t-57 -53.5t-36.5 -70t-21 -69t-6 -54q0 -79 36 -125t106 -46h38zM646 0h-373q-107 0 -162.5 54.5t-55.5 147.5q0 130 82.5 215.5t222.5 85.5h364l-22 -135h-21l-22 102h-169l-33 -191h100l39 75h19l-29 -181h-19l-15 74h-100l-36 -215h167
l75 119h20z" />
    <glyph glyph-name="germandbls.smcp" horiz-adv-x="908" 
d="M384 155q0 -77 -56.5 -121t-141.5 -44q-88 0 -154 34l19 128h29q4 -133 112 -133q46 0 79.5 25.5t33.5 65.5q0 30 -21.5 53.5t-52.5 41l-62.5 36t-53 48t-21.5 67.5q0 75 50.5 116t129.5 41q87 0 140 -20l-23 -120h-27q-3 112 -95 112q-42 0 -71.5 -23.5t-29.5 -65.5
q0 -31 34 -58.5t74 -46.5t74 -55t34 -81zM838 155q0 -77 -56.5 -121t-141.5 -44q-88 0 -154 34l19 128h29q4 -133 112 -133q46 0 79.5 25.5t33.5 65.5q0 30 -21.5 53.5t-52.5 41l-62.5 36t-53 48t-21.5 67.5q0 75 50.5 116t129.5 41q87 0 140 -20l-23 -120h-27
q-3 112 -95 112q-42 0 -71.5 -23.5t-29.5 -65.5q0 -31 34 -58.5t74 -46.5t74 -55t34 -81z" />
    <glyph glyph-name="fi.smcp" horiz-adv-x="796" 
d="M166 39l70 -17l-2 -22h-230l3 22l70 17l71 425l-64 16l4 23h384l-21 -136h-21l-24 103h-167l-32 -191h94l38 75h19l-29 -181h-19l-15 74h-94zM557 39l71 425l-65 16l5 23h224l-3 -23l-71 -16l-71 -425l65 -17l-4 -22h-224l3 22z" />
    <glyph glyph-name="fl.smcp" horiz-adv-x="977" 
d="M166 39l70 -17l-2 -22h-230l3 22l70 17l71 425l-64 16l4 23h384l-21 -136h-21l-24 103h-167l-32 -191h94l38 75h19l-29 -181h-19l-15 74h-94zM718 464l-73 -432h172l72 123h20l-32 -155h-393l3 22l70 17l71 425l-64 16l3 23h229l-4 -23z" />
    <glyph glyph-name="ampersand.c2sc" horiz-adv-x="585" 
d="M538 249l-66 -14q-54 -96 -80 -128q31 -51 48.5 -66.5t46.5 -15.5h30v-26q-70 -10 -101 -10q-30 0 -50.5 12t-40.5 41q-64 -53 -151 -53q-61 0 -104.5 33t-43.5 89q0 61 42 98.5t117 60.5q-36 61 -36 103q0 61 40.5 91.5t106.5 30.5q48 0 85.5 -22t37.5 -68
q0 -25 -11 -45.5t-33 -35t-41 -23.5t-48 -20l91 -150q30 39 53 106l-54 14l2 20h163zM206 36q59 0 103 30l-112 184q-42 -27 -62.5 -56t-20.5 -73q0 -36 24.5 -60.5t67.5 -24.5zM231 405q0 -28 30 -81l12 -21q76 34 76 103q0 29 -15.5 46t-44.5 17q-26 0 -42 -18t-16 -46z
" />
    <glyph glyph-name="zero.tosf" 
d="M238 -14q-96 0 -142.5 55.5t-46.5 144.5q0 127 76.5 226.5t188.5 99.5q96 0 142.5 -55.5t46.5 -144.5q0 -127 -76.5 -226.5t-188.5 -99.5zM239 18q49 0 85 37t53.5 93t25.5 106t8 92q0 134 -98 134q-49 0 -85 -37t-53.5 -93t-25.5 -106t-8 -92q0 -134 98 -134z" />
    <glyph glyph-name="one.tosf" 
d="M305 51l147 -29l-4 -22h-399l4 22l159 29l66 373l-166 -10l4 23l243 71h27z" />
    <glyph glyph-name="two.tosf" 
d="M285 478q-46 0 -77 -36t-42 -100q-24 0 -48 10t-24 32q0 41 35 71.5t81 43.5t93 13q84 0 128.5 -34t44.5 -97q0 -37 -22 -76t-53 -69t-73 -60t-72.5 -47.5l-61.5 -34.5l-32 -16h232l54 105h23l-41 -183h-432v20l63.5 32t67 36.5t73 45.5t63 50.5t57.5 60t35 66t15 75.5
q0 44 -24 68t-63 24z" />
    <glyph glyph-name="three.tosf" 
d="M445 55q0 -97 -70.5 -157t-179.5 -60q-82 0 -142.5 31t-60.5 72q0 31 25.5 51.5t58.5 22.5v-29q0 -54 33.5 -84.5t93.5 -30.5q66 0 109.5 37.5t43.5 100.5q0 68 -54 104.5t-172 40.5l3 27q85 15 157.5 62.5t72.5 118.5q0 42 -29 66t-77 24q-69 0 -137 -68l-19 22
q86 106 203 106q70 0 113 -33t43 -89q0 -67 -52 -114.5t-127 -70.5q70 -7 117 -45t47 -105z" />
    <glyph glyph-name="four.tosf" 
d="M454 508l-71 -400h112l-10 -56h-112l-26 -147l100 -27l-4 -22h-311l4 22l119 27l26 147h-273v19l403 437h43zM342 385l-257 -277h206z" />
    <glyph glyph-name="five.tosf" 
d="M139 246q311 0 311 -187q0 -97 -74.5 -159t-186.5 -62q-67 0 -120.5 25t-53.5 64q0 29 24 49t56 22v-20q0 -49 26.5 -78.5t85.5 -29.5q64 0 114 40t50 110q0 75 -69.5 110.5t-220.5 35.5l91 329h272l29 56h23l-33 -142h-281z" />
    <glyph glyph-name="six.tosf" 
d="M229 357l-8 24q52 31 116 31q75 0 118.5 -44t43.5 -123q0 -98 -72 -178.5t-175 -80.5q-93 0 -148 58t-55 166q0 93 38.5 174t104 138.5t144.5 96t166 56.5l6 -29q-360 -110 -360 -442q0 -184 116 -184q57 0 98.5 63.5t41.5 153.5q0 61 -28 96.5t-83 35.5q-33 0 -64 -12z
" />
    <glyph glyph-name="seven.tosf" 
d="M461 407h-337l-38 -78h-25l46 201h23l7 -35h407v-21l-410 -622h-106z" />
    <glyph glyph-name="eight.tosf" 
d="M38 139q0 70 48 118.5t124 70.5q-100 67 -100 152q0 80 62.5 130t156.5 50q73 0 131 -34.5t58 -101.5q0 -68 -44.5 -112t-104.5 -64q59 -37 90.5 -72t31.5 -84q0 -95 -72.5 -150.5t-169.5 -55.5q-86 0 -148.5 41t-62.5 112zM402 143q0 19 -8 37t-18 31t-30.5 29t-33.5 24
l-41 25l-40 24q-103 -60 -103 -171q0 -54 37.5 -88t95.5 -34t99.5 35t41.5 88zM198 520q0 -26 11 -47.5t37 -43t43.5 -33t55.5 -34.5q91 62 91 159q0 48 -30.5 77.5t-83.5 29.5q-52 0 -88 -27t-36 -81z" />
    <glyph glyph-name="nine.tosf" 
d="M322 142l8 -24q-52 -31 -116 -31q-75 0 -118.5 44t-43.5 123q0 98 72 178.5t175 80.5q93 0 148 -58t55 -166q0 -93 -38.5 -174t-104 -138.5t-144.5 -96t-166 -56.5l-6 29q360 110 360 442q0 184 -116 184q-57 0 -98.5 -63.5t-41.5 -153.5q0 -61 28 -96.5t83 -35.5
q32 0 64 12z" />
    <glyph glyph-name="zero.lf" 
d="M246 -14q-100 0 -147 69.5t-47 184.5q0 102 36 198t101 159t142 63q93 0 143 -63.5t50 -188.5q0 -102 -35.5 -198.5t-101 -160t-141.5 -63.5zM150 183q0 -164 95 -164q72 0 127 124.5t55 317.5q0 165 -95 165q-72 0 -127 -124.5t-55 -318.5z" />
    <glyph glyph-name="one.lf" horiz-adv-x="410" 
d="M231 51l117 -29l-4 -22h-339l4 22l129 29l92 517l-136 -10l4 23l213 71h27z" />
    <glyph glyph-name="two.lf" 
d="M292 626q-47 0 -80.5 -36t-46.5 -100q-15 0 -29.5 2.5t-28.5 13t-14 26.5q0 60 69.5 94t147.5 34q85 0 133.5 -37t48.5 -103q0 -42 -17 -85.5t-51.5 -86t-68 -77.5t-84.5 -74.5l-82.5 -62.5l-78.5 -56h288l54 110h23l-41 -188h-447v20l62 45.5t69 54.5t78.5 67.5t69 71
t63.5 81t39 82t17 87.5q0 117 -93 117z" />
    <glyph glyph-name="three.lf" horiz-adv-x="530" 
d="M463 203q0 -97 -70.5 -157t-179.5 -60q-82 0 -142.5 31t-60.5 72q0 31 25.5 51.5t58.5 22.5v-29q0 -54 33.5 -84.5t93.5 -30.5q66 0 109.5 37.5t43.5 100.5q0 68 -54 104.5t-172 40.5l3 27q85 15 157.5 62.5t72.5 118.5q0 42 -29 66t-77 24q-69 0 -137 -68l-19 22
q86 106 203 106q70 0 113 -33t43 -89q0 -67 -52 -114.5t-127 -70.5q70 -7 117 -45t47 -105z" />
    <glyph glyph-name="four.lf" 
d="M470 652l-71 -400h112l-10 -56h-112l-26 -147l100 -27l-4 -22h-311l4 22l119 27l26 147h-273v19l403 437h43zM358 529l-257 -277h206z" />
    <glyph glyph-name="five.lf" horiz-adv-x="520" 
d="M144 394q311 0 311 -187q0 -97 -74.5 -159t-186.5 -62q-67 0 -120.5 25t-53.5 64q0 29 24 49t56 22v-20q0 -49 26.5 -78.5t85.5 -29.5q64 0 114 40t50 110q0 75 -69.5 110.5t-220.5 35.5l91 329h272l29 56h23l-33 -142h-281z" />
    <glyph glyph-name="six.lf" 
d="M234 357l-8 24q52 31 116 31q75 0 118.5 -44t43.5 -123q0 -98 -72 -178.5t-175 -80.5q-93 0 -148 58t-55 166q0 93 38.5 174t104 138.5t144.5 96t166 56.5l6 -29q-360 -110 -360 -442q0 -184 116 -184q57 0 98.5 63.5t41.5 153.5q0 61 -28 96.5t-83 35.5q-32 0 -64 -12z
" />
    <glyph glyph-name="seven.lf" 
d="M492 555h-337l-38 -78h-25l46 201h23l7 -35h407v-21l-410 -622h-106z" />
    <glyph glyph-name="eight.lf" 
d="M40 139q0 70 48 118.5t124 70.5q-100 67 -100 152q0 80 62.5 130t156.5 50q73 0 131 -34.5t58 -101.5q0 -68 -44.5 -112t-104.5 -64q59 -37 90.5 -72t31.5 -84q0 -95 -72.5 -150.5t-169.5 -55.5q-86 0 -148.5 41t-62.5 112zM404 143q0 19 -8 37t-18 31t-30.5 29t-33.5 24
l-41 25l-40 24q-103 -60 -103 -171q0 -54 37.5 -88t95.5 -34t99.5 35t41.5 88zM200 520q0 -26 11 -47.5t37 -43t43.5 -33t55.5 -34.5q91 62 91 159q0 48 -30.5 77.5t-83.5 29.5q-52 0 -88 -27t-36 -81z" />
    <glyph glyph-name="nine.lf" 
d="M344 289l8 -24q-52 -31 -116 -31q-75 0 -118.5 44t-43.5 123q0 98 72 178.5t175 80.5q93 0 148 -58t55 -166q0 -93 -38.5 -174t-104 -138.5t-144.5 -96t-166 -56.5l-6 29q360 110 360 442q0 184 -116 184q-57 0 -98.5 -63.5t-41.5 -153.5q0 -61 28 -96.5t83 -35.5
q32 0 64 12z" />
    <glyph glyph-name="zero.osf" 
d="M238 -14q-96 0 -142.5 55.5t-46.5 144.5q0 127 76.5 226.5t188.5 99.5q96 0 142.5 -55.5t46.5 -144.5q0 -127 -76.5 -226.5t-188.5 -99.5zM239 18q49 0 85 37t53.5 93t25.5 106t8 92q0 134 -98 134q-49 0 -85 -37t-53.5 -93t-25.5 -106t-8 -92q0 -134 98 -134z" />
    <glyph glyph-name="one.osf" horiz-adv-x="416" 
d="M235 51l117 -29l-4 -22h-334l4 22l124 29l66 373l-131 -10l4 23l208 71h27z" />
    <glyph glyph-name="two.osf" horiz-adv-x="540" 
d="M277 478q-46 0 -77 -36t-42 -100q-24 0 -48 10t-24 32q0 41 35 71.5t81 43.5t93 13q84 0 128.5 -34t44.5 -97q0 -37 -22 -76t-53 -69t-73 -60t-72.5 -47.5l-61.5 -34.5l-32 -16h232l54 105h23l-41 -183h-432v20l63.5 32t67 36.5t73 45.5t63 50.5t57.5 60t35 66t15 75.5
q0 44 -24 68t-63 24z" />
    <glyph glyph-name="three.osf" horiz-adv-x="530" 
d="M435 55q0 -97 -70.5 -157t-179.5 -60q-82 0 -142.5 31t-60.5 72q0 31 25.5 51.5t58.5 22.5v-29q0 -54 33.5 -84.5t93.5 -30.5q66 0 109.5 37.5t43.5 100.5q0 68 -54 104.5t-172 40.5l3 27q85 15 157.5 62.5t72.5 118.5q0 42 -29 66t-77 24q-69 0 -137 -68l-19 22
q86 106 203 106q70 0 113 -33t43 -89q0 -67 -52 -114.5t-127 -70.5q70 -7 117 -45t47 -105z" />
    <glyph glyph-name="four.osf" 
d="M454 508l-71 -400h112l-10 -56h-112l-26 -147l100 -27l-4 -22h-311l4 22l119 27l26 147h-273v19l403 437h43zM342 385l-257 -277h206z" />
    <glyph glyph-name="five.osf" horiz-adv-x="520" 
d="M124 246q311 0 311 -187q0 -97 -74.5 -159t-186.5 -62q-67 0 -120.5 25t-53.5 64q0 29 24 49t56 22v-20q0 -49 26.5 -78.5t85.5 -29.5q64 0 114 40t50 110q0 75 -69.5 110.5t-220.5 35.5l91 329h272l29 56h23l-33 -142h-281z" />
    <glyph glyph-name="six.osf" 
d="M229 357l-8 24q52 31 116 31q75 0 118.5 -44t43.5 -123q0 -98 -72 -178.5t-175 -80.5q-93 0 -148 58t-55 166q0 93 38.5 174t104 138.5t144.5 96t166 56.5l6 -29q-360 -110 -360 -442q0 -184 116 -184q57 0 98.5 63.5t41.5 153.5q0 61 -28 96.5t-83 35.5q-33 0 -64 -12z
" />
    <glyph glyph-name="seven.osf" 
d="M461 407h-337l-38 -78h-25l46 201h23l7 -35h407v-21l-410 -622h-106z" />
    <glyph glyph-name="eight.osf" 
d="M38 139q0 70 48 118.5t124 70.5q-100 67 -100 152q0 80 62.5 130t156.5 50q73 0 131 -34.5t58 -101.5q0 -68 -44.5 -112t-104.5 -64q59 -37 90.5 -72t31.5 -84q0 -95 -72.5 -150.5t-169.5 -55.5q-86 0 -148.5 41t-62.5 112zM402 143q0 19 -8 37t-18 31t-30.5 29t-33.5 24
l-41 25l-40 24q-103 -60 -103 -171q0 -54 37.5 -88t95.5 -34t99.5 35t41.5 88zM198 520q0 -26 11 -47.5t37 -43t43.5 -33t55.5 -34.5q91 62 91 159q0 48 -30.5 77.5t-83.5 29.5q-52 0 -88 -27t-36 -81z" />
    <glyph glyph-name="nine.osf" 
d="M322 142l8 -24q-52 -31 -116 -31q-75 0 -118.5 44t-43.5 123q0 98 72 178.5t175 80.5q93 0 148 -58t55 -166q0 -93 -38.5 -174t-104 -138.5t-144.5 -96t-166 -56.5l-6 29q360 110 360 442q0 184 -116 184q-57 0 -98.5 -63.5t-41.5 -153.5q0 -61 28 -96.5t83 -35.5
q32 0 64 12z" />
    <glyph glyph-name="acute.case" horiz-adv-x="400" 
d="M191 726l-18 20q36 22 87.5 62.5t71.5 63.5q55 -25 55 -47q0 -20 -68.5 -52.5t-127.5 -46.5z" />
    <glyph glyph-name="grave.case" horiz-adv-x="400" 
d="M398 746l-18 -20q-59 14 -127.5 46.5t-68.5 52.5q0 22 55 47q20 -23 71.5 -63.5t87.5 -62.5z" />
    <glyph glyph-name="circumflex.case" horiz-adv-x="400" 
d="M302 884h38q19 -43 80 -141l-21 -17l-89 72l-127 -72l-18 20q31 27 77.5 73t59.5 65z" />
    <glyph glyph-name="tilde.case" horiz-adv-x="400" 
d="M167 738l-27 10q22 63 47 91.5t60 28.5q21 0 72.5 -23.5t67.5 -23.5q30 0 56 60l27 -10q-22 -63 -47 -91.5t-60 -28.5q-21 0 -72.5 23.5t-67.5 23.5q-30 0 -56 -60z" />
    <glyph glyph-name="dieresis.case" horiz-adv-x="400" 
d="M256 807q0 -24 -15.5 -41.5t-40.5 -17.5q-24 0 -37.5 15t-13.5 37q0 26 17.5 41.5t39.5 15.5t36 -15t14 -35zM456 807q0 -24 -15.5 -41.5t-40.5 -17.5q-24 0 -37.5 15t-13.5 37q0 26 17.5 41.5t39.5 15.5t36 -15t14 -35z" />
    <glyph glyph-name="ring.case" horiz-adv-x="400" 
d="M295 719q-37 0 -59.5 20t-22.5 53q0 44 29.5 76t75.5 32q37 0 59.5 -20t22.5 -53q0 -44 -29.5 -76t-75.5 -32zM299 752q23 0 37 21.5t14 50.5q0 21 -10 32t-26 11q-24 0 -37.5 -21.5t-13.5 -50.5q0 -21 10 -32t26 -11z" />
    <glyph glyph-name="caron.case" horiz-adv-x="400" 
d="M298 733h-38q-19 43 -80 141l21 17l89 -72l127 72l18 -20q-31 -27 -77.5 -73t-59.5 -65z" />
    <glyph glyph-name="macron.case" horiz-adv-x="400" 
d="M442 816l-10 -60h-280l10 60h280z" />
    <glyph glyph-name="breve.case" horiz-adv-x="400" 
d="M287 727q-53 0 -86 31.5t-33 84.5q0 18 3 36l25 7q3 -46 28.5 -71.5t68.5 -25.5q85 0 130 97l24 -7q-15 -69 -56.5 -110.5t-103.5 -41.5z" />
    <glyph glyph-name="hungarumlaut.case" horiz-adv-x="400" 
d="M154 726l-17 17q23 24 60 78t45 76q58 -13 58 -40q0 -25 -47 -62.5t-99 -68.5zM309 726l-17 17q23 24 60 78t45 76q58 -13 58 -40q0 -25 -47 -62.5t-99 -68.5z" />
    <glyph glyph-name="dotaccent.case" horiz-adv-x="400" 
d="M348 807q0 -25 -17 -44t-43 -19q-25 0 -40 16t-15 40q0 28 18.5 44.5t42.5 16.5t39 -16t15 -38z" />
    <glyph glyph-name="acute.smcp" horiz-adv-x="400" 
d="M195 578l-23 15q29 36 64 88.5t48 80.5q68 -8 68 -32q0 -22 -54.5 -72.5t-102.5 -79.5z" />
    <glyph glyph-name="grave.smcp" horiz-adv-x="400" 
d="M355 593l-23 -15q-48 29 -102.5 79.5t-54.5 72.5q0 24 68 32q13 -28 48 -80.5t64 -88.5z" />
    <glyph glyph-name="circumflex.smcp" horiz-adv-x="400" 
d="M277 760h38q40 -107 78 -165l-21 -17l-89 88l-127 -88l-18 20q33 34 80 88t59 74z" />
    <glyph glyph-name="tilde.smcp" horiz-adv-x="400" 
d="M141 598l-27 10q22 63 47 91.5t60 28.5q21 0 72.5 -23.5t67.5 -23.5q30 0 56 60l27 -10q-22 -63 -47 -91.5t-60 -28.5q-21 0 -72.5 23.5t-67.5 23.5q-30 0 -56 -60z" />
    <glyph glyph-name="dieresis.smcp" horiz-adv-x="400" 
d="M225 667q0 -24 -15.5 -41.5t-40.5 -17.5q-24 0 -37.5 15t-13.5 37q0 26 17.5 41.5t39.5 15.5t36 -15t14 -35zM425 667q0 -24 -15.5 -41.5t-40.5 -17.5q-24 0 -37.5 15t-13.5 37q0 26 17.5 41.5t39.5 15.5t36 -15t14 -35z" />
    <glyph glyph-name="ring.smcp" horiz-adv-x="400" 
d="M263 579q-37 0 -59.5 20t-22.5 53q0 44 29.5 76t75.5 32q37 0 59.5 -20t22.5 -53q0 -44 -29.5 -76t-75.5 -32zM267 612q23 0 37 21.5t14 50.5q0 21 -10 32t-26 11q-24 0 -37.5 -21.5t-13.5 -50.5q0 -21 10 -32t26 -11z" />
    <glyph glyph-name="caron.smcp" horiz-adv-x="400" 
d="M269 584h-38q-40 107 -78 165l21 17l89 -88l127 88l18 -20q-33 -34 -80 -88t-59 -74z" />
    <glyph glyph-name="macron.smcp" horiz-adv-x="400" 
d="M416 676l-10 -60h-280l10 60h280z" />
    <glyph glyph-name="breve.smcp" horiz-adv-x="400" 
d="M265 587q-53 0 -86 31.5t-33 84.5q0 18 3 36l25 7q3 -46 28.5 -71.5t68.5 -25.5q85 0 130 97l24 -7q-15 -69 -56.5 -110.5t-103.5 -41.5z" />
    <glyph glyph-name="hungarumlaut.smcp" horiz-adv-x="400" 
d="M284 574l-23 15q25 31 59 88.5t45 84.5q58 -4 58 -29q0 -21 -45.5 -71.5t-93.5 -87.5zM140 574l-23 15q25 31 59 88.5t45 84.5q58 -4 58 -29q0 -21 -45.5 -71.5t-93.5 -87.5z" />
    <glyph glyph-name="dotaccent.smcp" horiz-adv-x="400" 
d="M328 668q0 -25 -17 -44t-43 -19q-25 0 -40 16t-15 40q0 28 18.5 44.5t42.5 16.5t39 -16t15 -38z" />
    </font>
</defs>
</svg>
