<svg xmlns="http://www.w3.org/2000/svg" width="15" height="15" viewBox="0 0 15 15"><path fill="#FFF" d="M7.42 0C3.33 0 0 3.341 0 7.448c0 4.106 3.329 7.448 7.42 7.448 4.092 0 7.42-3.342 7.42-7.448C14.84 3.34 11.513 0 7.42 0zm3.31 5.743c.004.074.006.148.006.223 0 2.265-1.718 4.876-4.86 4.876a4.818 4.818 0 0 1-2.618-.77 3.447 3.447 0 0 0 2.529-.709 1.71 1.71 0 0 1-1.596-1.19 1.715 1.715 0 0 0 .771-.03 1.713 1.713 0 0 1-1.37-1.68V6.44c.23.128.494.205.774.214a1.715 1.715 0 0 1-.76-1.426c0-.315.084-.61.232-.862a4.844 4.844 0 0 0 3.52 1.791 1.711 1.711 0 0 1 1.664-2.105c.49 0 .934.208 1.246.541.39-.077.754-.219 1.085-.416a1.72 1.72 0 0 1-.752.949c.346-.042.676-.133.98-.27a3.443 3.443 0 0 1-.85.886z"/></svg>