<svg width="24" height="24" viewBox="0 0 24 24" xmlns="http://www.w3.org/2000/svg"><title>Shape</title><path d="M12.004 0C5.384 0 0 5.346 0 11.916s5.385 11.917 12.004 11.917c6.618 0 12.003-5.346 12.003-11.917C24.007 5.346 18.623 0 12.004 0zm5.354 9.19c.006.117.009.236.009.355 0 3.625-2.779 7.803-7.862 7.803a7.856 7.856 0 0 1-4.235-1.232 5.57 5.57 0 0 0 4.09-1.136 2.763 2.763 0 0 1-2.58-1.904 2.805 2.805 0 0 0 1.247-.046 2.748 2.748 0 0 1-2.216-2.69v-.034c.373.205.799.328 1.252.342a2.736 2.736 0 0 1-.855-3.662 7.864 7.864 0 0 0 5.694 2.867 2.753 2.753 0 0 1 2.691-3.368 2.77 2.77 0 0 1 2.017.866 5.54 5.54 0 0 0 1.755-.666 2.759 2.759 0 0 1-1.216 1.518 5.524 5.524 0 0 0 1.586-.432 5.535 5.535 0 0 1-1.377 1.418z" fill="#CCC"/></svg>